<?xml  version="1.0" encoding="UTF-8"?>
<!DOCTYPE svg PUBLIC "-//W3C//DTD SVG 1.0//EN" "http://www.w3.org/TR/2001/REC-SVG-20010904/DTD/svg10.dtd" >
<svg xmlns="http://www.w3.org/2000/svg" >
<metadata>
<version>1.0</version>
<id><![CDATA[Frutiger Next W01 UltraLight]]></id>
<vendor>Monotype Imaging Inc.</vendor>
<credits>
<name>Fonts.com WebFonts</name>
<URL>http://webfonts.fonts.com</URL>
<role>Home of the Web fonts</role>
</credits>
<license>
<URL>http://webfonts.fonts.com/Legal</URL>
</license>
<copyright><![CDATA[Copyright © 2007 Linotype GmbH, www.linotype.com. All rights reserved. This font software may not be reproduced, modified, disclosed or transferred without the express written approval of Linotype GmbH. Frutiger Next is a trademark of Linotype GmbH and may be registered in certain jurisdictions. This typeface is original artwork of Adrian Frutiger and Linotype Design Studio. The design may be protected in certain jurisdictions.]]></copyright>
<trademark><![CDATA[Frutiger Next is a trademark of Linotype GmbH and may be registered in certain jurisdictions.]]></trademark>
<licensee>
<name></name>
</licensee>
</metadata>
<defs >
<font horiz-adv-x="454" id="338dbcb4-e3b3-4fdf-9ce2-328fa41ca621">
<font-face font-family="" panose-1="2 11 2 3 4 2 4 2 2 3" ascent="877" descent="-279" units-per-em="1000" alphabetic="0">
</font-face>
<missing-glyph horiz-adv-x="0" />

<glyph unicode="&#xA;" />
<glyph unicode="&#xD;" horiz-adv-x="0" />
<glyph unicode=" " horiz-adv-x="252" />
<glyph unicode="!" horiz-adv-x="252" d="M117 142L114 667H138L135 142H117ZM111 0V62H140V0H111Z"  />
<glyph unicode="&quot;" horiz-adv-x="370" d="M233 459V667H255V459H233ZM115 459V667H137V459H115Z"  />
<glyph unicode="#" horiz-adv-x="504" d="M86 0L122 233H32V253H126L152 417H56V437H156L191 667H214L178 437H356L392 667H414L379 437H469V417H375L349 253H445V233H345L309 0H286L323 233H145L108 0H86ZM148 253H326L353 417H175L148 253Z"  />
<glyph unicode="$" horiz-adv-x="504" d="M230 -108V-12Q195 -12 160 -8T92 11L95 33Q127 19 160 14T226 9Q260 9 291 17T345 45T382 93T396 163Q396 218 365 254T276 323L202 363Q147 393 117 430T86 521Q86 556 98 583T131 630T181 661T243 676V774H265V677Q294 677 325 672T382 656L379 634Q354 646 323 651T266 657Q234 657 206 649T155 623T121 581T108 521Q108 475 135 442T218 379L290 340Q351 307 384 266T418 163Q418 122 406 91T371 39T318 6T253 -10V-108H230Z"  />
<glyph unicode="%" horiz-adv-x="785" d="M161 -24L601 691H624L184 -24H161ZM101 341Q131 290 190 290Q249 290 279 341T309 473Q309 554 279 605T190 657Q131 657 101 606T71 473Q71 392 101 341ZM130 284Q104 299 86 326T59 390T49 473Q49 518 58 555T86 620T130 662T190 677Q223 677 249 662T294 620T321 556T331 473Q331 428 322 391T294 327T250 285T190 270Q157 270 130 284ZM509 60Q539 9 598 9Q657 9 687 60T717 192Q717 273 687 324T598 376Q539 376 509 325T479 192Q479 111 509 60ZM538 3Q512 18 494 45T467 109T457 192Q457 237 466 274T494 339T538 381T598 396Q631 396 657 381T702 339T729 275T739 192Q739 147 730 110T702 46T658 4T598 -11Q565 -11 538 3Z"  />
<glyph unicode="&amp;" horiz-adv-x="592" d="M466 18Q440 10 417 5T372 -4T329 -9T283 -11Q244 -11 205 -2T134 30T83 87T63 175Q63 211 74 241T107 294T156 331T219 348Q155 358 116 399T77 504Q77 546 93 578T136 632T200 665T276 677Q308 677 340 672T406 651L403 629Q371 646 341 651T276 657Q242 657 210 648T153 619T113 571T98 504Q98 463 114 436T155 391T213 366T276 358H444V464H466V358H567V338H466V18ZM276 338Q235 338 200 329T140 299T100 248T85 175Q85 128 103 97T149 46T213 18T283 9Q327 9 364 15T444 33V338H276Z"  />
<glyph unicode="&apos;" horiz-adv-x="252" d="M115 459V667H137V459H115Z"  />
<glyph unicode="(" horiz-adv-x="252" d="M220 -128Q172 -58 142 -1T94 106T70 202T63 297Q63 346 71 393T98 491T146 598T220 721H238Q196 652 167 595T119 487T93 390T85 297Q85 250 92 205T116 110T163 2T238 -128H220Z"  />
<glyph unicode=")" horiz-adv-x="252" d="M14 -128Q56 -59 85 -2T133 106T159 203T167 296Q167 342 160 387T136 483T89 591T14 721H32Q80 650 110 594T158 487T182 391T189 296Q189 247 181 200T154 102T105 -5T32 -128H14Z"  />
<glyph unicode="*" horiz-adv-x="370" d="M94 409L169 524L56 566L64 585L175 541L174 667H196L195 541L306 585L314 566L201 524L276 409L259 398L185 514L111 398L94 409Z"  />
<glyph unicode="+" horiz-adv-x="504" d="M9 221V241H241V463H263V241H495V221H263V0H241V221H9Z"  />
<glyph unicode="&#x2c;" horiz-adv-x="252" d="M63 -128L119 62H146L80 -128H63Z"  />
<glyph unicode="-" horiz-adv-x="310" d="M38 300V320H272V300H38Z"  />
<glyph unicode="." horiz-adv-x="252" d="M112 0V62H141V0H112Z"  />
<glyph unicode="/" horiz-adv-x="269" d="M-16 0L262 667H284L6 0H-16Z"  />
<glyph unicode="0" horiz-adv-x="504" d="M111 111Q131 66 165 38T253 9Q306 9 340 37T394 110T421 214T429 333Q429 393 422 451T395 555T341 629T253 657Q200 657 166 629T111 556T83 452T75 333Q75 273 83 215T111 111ZM155 18Q117 47 94 95T62 205T53 333Q53 399 63 461T96 571T157 648T253 677Q312 677 350 648T410 571T442 461T451 333Q451 267 442 205T409 95T348 18T253 -11Q194 -11 155 18Z"  />
<glyph unicode="1" horiz-adv-x="504" d="M258 0V638L117 512L103 529L260 667H280V0H258Z"  />
<glyph unicode="2" horiz-adv-x="504" d="M54 0V18L224 212Q272 267 302 308T348 383T370 448T376 514Q376 576 339 616T235 657Q189 657 155 644T86 612L83 633Q117 652 151 664T235 677Q273 677 303 665T355 631T387 579T398 514Q398 476 391 442T367 372T318 294T239 197L84 20H417V0H54Z"  />
<glyph unicode="3" horiz-adv-x="504" d="M51 36Q118 9 203 9Q300 9 349 57T398 189Q398 231 384 259T345 305T291 331T227 339H138V359H227Q298 359 341 398T385 511Q385 547 373 574T338 620T286 648T222 657Q180 657 144 647T75 619L72 640Q104 657 140 667T222 677Q303 677 354 635T406 511Q406 444 371 401T278 349Q347 341 383 298T420 189Q420 144 406 108T364 45T296 4T203 -11Q158 -11 122 -5T51 14V36Z"  />
<glyph unicode="4" horiz-adv-x="504" d="M26 165V183L346 667H375V185H474V165H375V0H353V165H26ZM52 185H353V640L52 185Z"  />
<glyph unicode="5" horiz-adv-x="504" d="M80 38Q146 9 216 9Q308 9 358 60T408 204Q408 285 364 331T233 377Q202 377 172 372T92 349L98 667H398V647H118L113 375Q143 386 172 391T233 397Q330 397 380 345T430 204Q430 105 374 47T216 -11Q142 -11 80 15V38Z"  />
<glyph unicode="6" horiz-adv-x="504" d="M138 63Q161 37 192 23T259 9Q299 9 331 23T385 64T418 126T430 206Q430 287 386 336T263 385Q226 385 195 372T140 335T104 280T91 214Q91 166 103 128T138 63ZM426 639Q400 647 375 652T327 657Q262 657 216 632T141 558T99 438T84 273Q94 307 113 332T156 373T208 397T264 405Q308 405 343 391T402 350T439 287T452 206Q452 159 439 119T401 50T340 5T259 -11Q218 -11 183 4T122 51T80 136T65 264Q65 364 80 441T126 570T207 650T327 677Q378 677 429 661L426 639Z"  />
<glyph unicode="7" horiz-adv-x="504" d="M139 0L401 647H56V667H425V649L162 0H139Z"  />
<glyph unicode="8" horiz-adv-x="504" d="M91 265Q134 311 228 347Q191 366 163 384T115 422T85 466T75 522Q75 556 89 584T127 633T184 665T253 677Q292 677 324 667T380 636T417 587T430 522Q430 461 394 421T280 347Q328 324 361 303T416 260T446 211T456 154Q456 116 441 86T400 34T336 1T253 -11Q208 -11 171 0T106 33T64 85T48 155Q48 219 91 265ZM181 395Q212 377 256 357Q299 375 328 393T375 430T400 472T408 522Q408 554 396 579T364 621T315 648T253 657Q221 657 193 648T143 621T110 578T97 522Q97 496 105 475T132 434T181 395ZM342 292Q307 313 254 336Q154 299 112 256T70 155Q70 120 83 93T121 48T179 19T253 9Q293 9 326 18T383 46T420 92T434 154Q434 182 426 205T398 249T342 292Z"  />
<glyph unicode="9" horiz-adv-x="504" d="M119 330Q141 307 171 294T241 281Q278 281 309 294T364 331T400 385T413 452Q413 500 401 538T366 602T312 643T245 657Q204 657 173 643T119 602T86 540T74 460Q74 419 85 386T119 330ZM78 27Q104 19 131 14T181 9Q246 9 291 34T365 107T406 227T420 393Q410 359 391 334T348 293T296 269T240 261Q196 261 161 275T102 316T65 379T52 460Q52 507 65 547T103 616T164 661T245 677Q285 677 320 662T382 615T424 530T439 402Q439 300 425 223T380 94T300 16T181 -11Q126 -11 75 5L78 27Z"  />
<glyph unicode=":" horiz-adv-x="252" d="M112 0V62H141V0H112ZM112 421V483H141V421H112Z"  />
<glyph unicode=";" horiz-adv-x="252" d="M112 421V483H141V421H112ZM63 -128L119 62H146L80 -128H63Z"  />
<glyph unicode="&lt;" horiz-adv-x="504" d="M9 220V241L495 434V412L33 230L495 42V20L9 220Z"  />
<glyph unicode="=" horiz-adv-x="504" d="M9 135V155H495V135H9ZM9 306V326H495V306H9Z"  />
<glyph unicode="&gt;" horiz-adv-x="504" d="M9 20V42L471 230L9 412V434L495 241V220L9 20Z"  />
<glyph unicode="?" horiz-adv-x="367" d="M134 142V157Q134 199 146 231T177 289T218 338T258 386T289 440T302 508Q302 580 262 618T155 657Q120 657 91 651T30 634L27 655Q58 665 86 671T155 677Q231 677 277 633T324 510Q324 470 312 439T281 382T240 333T200 284T169 228T156 157V142H134ZM130 0V62H159V0H130Z"  />
<glyph unicode="@" horiz-adv-x="1030" d="M820 -171Q783 -186 749 -196T682 -213T613 -223T538 -227Q433 -227 347 -196T201 -107T107 34T73 223Q73 334 109 427T210 587T364 693T559 731Q651 731 725 703T852 623T933 494T962 323Q962 250 944 189T893 83T819 14T728 -11Q678 -11 648 21T617 112Q582 46 540 18T443 -11Q381 -11 341 32T300 154Q300 223 321 286T383 397T481 474T612 503Q670 503 714 488L641 157Q638 144 637 135T636 112Q636 62 662 36T730 9Q773 9 811 32T877 97T923 196T940 323Q940 414 913 486T836 608T716 684T557 711Q458 711 373 676T227 576T130 421T95 223Q95 122 126 43T216 -92T356 -177T540 -207Q611 -207 676 -194T816 -149L820 -171ZM688 474Q671 479 653 481T611 483Q542 483 489 456T398 383T342 278T322 154Q322 84 357 47T447 9Q480 9 509 22T562 60T603 118T629 193L688 474Z"  />
<glyph unicode="A" horiz-adv-x="580" d="M9 0L279 667H302L570 0H546L467 197H112L33 0H9ZM120 217H459L290 640L120 217Z"  />
<glyph unicode="B" horiz-adv-x="504" d="M94 0V667H213Q311 667 365 629T419 508Q419 448 384 406T283 352Q361 341 401 299T442 184Q442 134 425 99T377 42T303 10T208 0H94ZM115 361H229Q304 361 351 400T398 508Q398 582 350 614T213 647H115V361ZM115 20H208Q255 20 294 28T361 56T404 106T420 184Q420 228 404 258T361 306T297 333T218 341H115V20Z"  />
<glyph unicode="C" horiz-adv-x="577" d="M536 20Q502 4 462 -3T378 -11Q301 -11 242 15T143 88T82 197T61 333Q61 403 82 465T145 575T245 649T378 677Q421 677 461 671T534 648L531 626Q499 643 459 650T378 657Q308 657 253 632T161 562T103 458T83 333Q83 265 102 206T159 103T252 34T378 9Q416 9 457 17T533 42L536 20Z"  />
<glyph unicode="D" horiz-adv-x="623" d="M94 0V667H228Q393 667 477 579T562 333Q562 173 473 87T220 0H94ZM116 20H221Q373 20 456 100T540 333Q540 485 460 566T228 647H116V20Z"  />
<glyph unicode="E" horiz-adv-x="448" d="M94 0V667H385V647H116V360H371V340H116V20H397V0H94Z"  />
<glyph unicode="F" horiz-adv-x="416" d="M94 0V667H376V647H116V360H365V340H116V0H94Z"  />
<glyph unicode="G" horiz-adv-x="647" d="M569 34Q534 16 488 3T378 -11Q301 -11 242 15T143 88T82 197T61 333Q61 403 83 465T146 575T248 649T385 677Q431 677 477 669T558 640L555 618Q521 638 476 647T385 657Q313 657 257 632T162 562T103 458T83 333Q83 265 102 206T159 103T252 34T378 9Q437 9 478 20T548 46V323H361V343H569V34Z"  />
<glyph unicode="H" horiz-adv-x="608" d="M94 0V667H116V360H492V667H514V0H492V340H116V0H94Z"  />
<glyph unicode="I" horiz-adv-x="210" d="M94 0V667H116V0H94Z"  />
<glyph unicode="J" horiz-adv-x="278" d="M9 20Q22 15 37 12T65 9Q125 9 146 46T168 150V667H190V146Q190 111 184 82T163 33T124 1T65 -11Q51 -11 36 -9T6 -1L9 20Z"  />
<glyph unicode="K" horiz-adv-x="519" d="M94 0V667H116V356L453 667H485L141 351L515 0H482L116 345V0H94Z"  />
<glyph unicode="L" horiz-adv-x="412" d="M94 0V667H116V20H397V0H94Z"  />
<glyph unicode="M" horiz-adv-x="813" d="M94 0V667H124L408 25L691 667H719V0H697V632L419 0H395L116 633V0H94Z"  />
<glyph unicode="N" horiz-adv-x="636" d="M94 0V667H120L520 34V667H542V0H516L116 633V0H94Z"  />
<glyph unicode="O" horiz-adv-x="673" d="M144 107Q176 62 223 36T336 9Q400 9 448 36T527 108T574 211T590 333Q590 397 575 455T528 559T449 630T336 657Q272 657 225 630T146 558T99 455T83 333Q83 269 98 211T144 107ZM214 17Q163 45 129 92T78 201T61 333Q61 400 78 462T129 572T215 648T336 677Q406 677 457 649T543 574T595 465T612 333Q612 266 595 204T543 94T457 18T336 -11Q266 -11 214 17Z"  />
<glyph unicode="P" horiz-adv-x="458" d="M94 0V667H221Q323 667 375 626T427 495Q427 405 375 363T221 321H116V0H94ZM116 341H221Q313 341 359 376T405 495Q405 575 359 611T221 647H116V341Z"  />
<glyph unicode="Q" horiz-adv-x="673" d="M397 -4Q383 -7 368 -9T336 -11Q266 -11 215 17T129 92T78 201T61 333Q61 400 78 462T129 572T215 648T336 677Q406 677 457 649T543 574T595 465T612 333Q612 276 600 224T564 128T505 52T421 3L567 -128H534L397 -4ZM144 107Q176 62 223 36T336 9Q400 9 448 36T527 108T574 211T590 333Q590 397 575 455T528 559T449 630T336 657Q272 657 225 630T146 558T99 455T83 333Q83 269 98 211T144 107Z"  />
<glyph unicode="R" horiz-adv-x="505" d="M116 359H228Q305 359 351 394T398 507Q398 583 350 615T211 647H116V359ZM94 0V667H211Q314 667 366 630T419 507Q419 438 380 396T267 345Q290 340 309 324T346 272L478 0H453L328 263Q311 299 284 319T213 339H116V0H94Z"  />
<glyph unicode="S" horiz-adv-x="428" d="M52 35Q84 21 118 15T190 9Q224 9 254 17T306 44T342 92T355 163Q355 218 326 254T238 323L166 363Q112 393 83 430T53 521Q53 559 67 588T105 637T161 667T229 677Q269 677 299 671T358 654L355 632Q299 657 229 657Q198 657 170 649T121 623T88 581T75 521Q75 475 100 443T182 379L252 340Q311 307 344 266T377 163Q377 118 363 86T323 32T263 0T190 -11Q153 -11 117 -6T49 13L52 35Z"  />
<glyph unicode="T" horiz-adv-x="439" d="M208 0V647H10V667H428V647H230V0H208Z"  />
<glyph unicode="U" horiz-adv-x="616" d="M110 222Q110 122 160 66T309 9Q406 9 456 66T506 222V667H528V221Q528 170 514 127T472 54T403 6T309 -11Q254 -11 213 5T144 52T102 126T88 222V667H110V222Z"  />
<glyph unicode="V" horiz-adv-x="545" d="M258 0L12 667H37L273 25L509 667H533L286 0H258Z"  />
<glyph unicode="W" horiz-adv-x="867" d="M215 0L14 667H39L230 25L421 667H446L638 25L829 667H853L652 0H623L433 638L244 0H215Z"  />
<glyph unicode="X" horiz-adv-x="531" d="M6 0L246 350L28 667H55L261 366L468 667H494L276 349L517 0H490L261 333L32 0H6Z"  />
<glyph unicode="Y" horiz-adv-x="533" d="M255 0V309L9 667H36L267 331L497 667H524L277 309V0H255Z"  />
<glyph unicode="Z" horiz-adv-x="438" d="M26 0V18L379 647H38V667H403V649L52 20H411V0H26Z"  />
<glyph unicode="[" horiz-adv-x="252" d="M115 -128V721H222V701H137V-108H222V-128H115Z"  />
<glyph unicode="\" horiz-adv-x="252" d="M252 0L-24 667H0L276 0H252Z"  />
<glyph unicode="]" horiz-adv-x="252" d="M30 -128V-108H115V701H30V721H137V-128H30Z"  />
<glyph unicode="^" horiz-adv-x="504" d="M71 260L242 667H266L433 260H409L253 639L94 260H71Z"  />
<glyph unicode="_" horiz-adv-x="500" d="M0 -125V-75H500V-125H0Z"  />
<glyph unicode="`" horiz-adv-x="182" d="M108 585L16 721H43L126 585H108Z"  />
<glyph unicode="a" d="M356 0L352 111Q332 46 288 18T190 -11Q120 -11 81 26T41 126Q41 198 97 242T274 287H350V337Q350 367 345 394T325 440T288 471T228 483Q192 483 160 474T95 451L92 472Q124 486 156 494T228 503Q270 503 297 490T341 455T364 402T371 337V194Q371 172 371 155T371 118T373 70T376 0H356ZM275 268Q164 268 114 230T63 126Q63 70 96 40T192 9Q232 9 262 24T311 65T340 124T350 193V268H275Z"  />
<glyph unicode="b" horiz-adv-x="510" d="M81 0V721H103V372Q127 443 170 473T270 503Q319 503 355 483T414 427T448 345T460 243Q460 188 448 142T411 61T352 8T270 -11Q207 -11 163 24T100 132L99 0H81ZM145 72Q189 9 270 9Q312 9 343 26T396 75T427 149T438 243Q438 292 428 336T398 412T345 464T270 483Q190 483 146 422T102 248Q102 135 145 72Z"  />
<glyph unicode="c" horiz-adv-x="416" d="M378 9Q350 -2 325 -6T265 -11Q211 -11 171 9T104 65T64 147T50 246Q50 299 64 346T107 428T177 483T273 503Q327 503 378 484L375 462Q349 473 324 478T272 483Q223 483 186 465T123 414T85 339T72 246Q72 198 84 155T120 80T181 28T266 9Q297 9 321 14T375 31L378 9Z"  />
<glyph unicode="d" horiz-adv-x="510" d="M112 78Q133 46 164 28T240 9Q321 9 364 70T408 244Q408 357 368 420T240 483Q198 483 167 465T114 416T83 341T72 247Q72 197 82 154T112 78ZM413 0L410 126Q387 51 343 20T240 -11Q191 -11 155 9T96 64T62 146T50 247Q50 302 62 349T98 430T157 483T240 503Q303 503 347 471T407 369V721H429V193Q429 171 429 154T429 117T430 69T433 0H413Z"  />
<glyph unicode="e" horiz-adv-x="463" d="M72 253Q72 201 83 157T119 79T179 28T264 9Q305 9 333 15T390 35L393 13Q366 2 338 -4T264 -11Q210 -11 170 9T104 64T64 148T50 255Q50 311 65 356T106 434T168 485T247 503Q293 503 326 487T380 440T411 369T421 277V253H72ZM400 273Q400 369 364 426T247 483Q210 483 179 467T124 423T87 357T73 273H400Z"  />
<glyph unicode="f" horiz-adv-x="276" d="M125 0V473H24V493H125V617Q125 647 133 669T155 704T187 724T225 731Q236 731 248 730T271 723L268 701Q257 706 245 708T224 710Q194 710 171 690T147 616V493H256V473H147V0H125Z"  />
<glyph unicode="g" horiz-adv-x="510" d="M112 87Q133 56 164 38T240 20Q321 20 364 75T408 244Q408 357 368 420T240 483Q198 483 167 466T114 417T83 344T72 252Q72 204 82 162T112 87ZM93 -185Q128 -198 160 -202T222 -207Q320 -207 364 -150T408 9V129Q398 94 381 70T342 30T294 7T240 0Q191 0 156 19T97 73T62 153T50 252Q50 306 62 351T98 431T157 484T240 503Q304 503 348 470T409 364V493H429V7Q429 -102 380 -164T222 -227Q192 -227 159 -223T90 -207L93 -185Z"  />
<glyph unicode="h" horiz-adv-x="508" d="M81 0V721H103V386Q123 445 167 474T268 503Q317 503 348 487T396 443T420 380T427 306V0H405V301Q405 337 400 370T380 428T338 468T266 483Q218 483 187 464T137 417T111 357T103 300V0H81Z"  />
<glyph unicode="i" horiz-adv-x="186" d="M82 0V493H104V0H82ZM81 623V685H105V623H81Z"  />
<glyph unicode="j" horiz-adv-x="188" d="M-18 -203Q-10 -205 -2 -206T16 -207Q54 -207 69 -185T84 -115V493H106V-119Q106 -172 85 -199T16 -227Q7 -227 -3 -227T-21 -224L-18 -203ZM83 623V685H107V623H83Z"  />
<glyph unicode="k" horiz-adv-x="413" d="M81 0V721H103V283L343 493H375L128 278L407 0H375L103 272V0H81Z"  />
<glyph unicode="l" horiz-adv-x="184" d="M81 0V721H103V0H81Z"  />
<glyph unicode="m" horiz-adv-x="770" d="M81 0V298Q81 320 81 337T81 375T79 423T77 493H97L100 386Q111 419 127 441T164 477T207 497T253 503Q313 503 345 471T388 384Q399 417 415 440T452 477T496 497T543 503Q619 503 654 455T689 323V0H667V318Q667 397 638 440T541 483Q501 483 474 467T429 427T404 376T396 325V0H374V321Q374 396 346 439T251 483Q210 483 182 466T137 423T111 365T103 305V0H81Z"  />
<glyph unicode="n" horiz-adv-x="508" d="M81 0V299Q81 321 81 338T81 375T79 423T77 493H97L100 383Q121 443 165 473T268 503Q317 503 348 487T396 443T420 380T427 306V0H405V301Q405 337 400 370T380 428T338 468T266 483Q219 483 188 464T137 418T111 358T103 300V0H81Z"  />
<glyph unicode="o" horiz-adv-x="525" d="M117 80Q141 48 176 29T262 9Q311 9 347 29T406 82T441 159T453 248Q453 294 442 336T407 411T348 463T262 483Q213 483 177 463T118 410T84 333T72 244Q72 198 83 156T117 80ZM166 10Q126 32 100 68T62 150T50 244Q50 294 63 341T102 424T169 481T262 503Q318 503 358 482T424 424T462 342T475 248Q475 198 462 151T422 68T355 11T262 -11Q206 -11 166 10Z"  />
<glyph unicode="p" horiz-adv-x="510" d="M145 72Q189 9 270 9Q312 9 343 26T396 75T427 149T438 243Q438 292 428 336T398 412T345 464T270 483Q190 483 146 422T102 248Q102 135 145 72ZM81 -216V299Q81 321 81 338T81 375T79 423T77 493H97L100 362Q122 439 167 471T270 503Q319 503 355 483T414 427T448 345T460 243Q460 188 448 142T411 61T352 8T270 -11Q208 -11 163 24T103 127V-216H81Z"  />
<glyph unicode="q" horiz-adv-x="510" d="M112 78Q133 46 164 28T240 9Q322 9 365 70T408 244Q408 357 368 420T240 483Q198 483 167 465T114 416T83 341T72 247Q72 197 82 154T112 78ZM407 -216V119Q387 50 342 20T240 -11Q191 -11 155 9T96 64T62 146T50 247Q50 302 62 349T98 430T157 483T240 503Q304 503 348 471T409 364V493H429V-216H407Z"  />
<glyph unicode="r" horiz-adv-x="283" d="M81 0V299Q81 321 81 338T81 375T79 423T77 493H97L100 383Q119 445 156 474T237 503Q246 503 251 503T264 500L261 477Q248 481 235 481Q209 481 186 469T144 434T114 375T103 292V0H81Z"  />
<glyph unicode="s" horiz-adv-x="342" d="M40 28Q72 17 98 13T154 9Q206 9 242 37T278 120Q278 140 274 156T260 186T232 213T187 240L131 269Q83 293 63 320T42 386Q42 414 52 435T81 472T125 495T178 503Q212 503 234 499T281 484L278 462Q231 483 178 483Q155 483 134 477T98 459T73 429T64 386Q64 369 68 356T81 331T107 308T148 284L204 255Q258 227 279 196T300 120Q300 90 289 66T259 25T212 -2T154 -11Q124 -11 97 -8T37 6L40 28Z"  />
<glyph unicode="t" horiz-adv-x="266" d="M128 102Q128 9 196 9Q223 9 249 20L252 -1Q225 -11 194 -11Q152 -11 129 17T106 99V473H10V493H106V617L128 622V493H239V473H128V102Z"  />
<glyph unicode="u" horiz-adv-x="504" d="M103 184Q103 146 109 114T131 59T173 23T240 9Q287 9 318 28T367 75T393 135T401 193V493H423V194Q423 172 423 155T423 118T424 70T427 0H406L403 107Q382 47 338 18T238 -11Q194 -11 164 4T116 44T89 105T81 179V493H103V184Z"  />
<glyph unicode="v" horiz-adv-x="400" d="M184 0L14 493H38L198 25L362 493H385L211 0H184Z"  />
<glyph unicode="w" horiz-adv-x="711" d="M176 0L16 493H40L190 25L344 493H368L518 25L672 493H695L531 0H504L355 467L203 0H176Z"  />
<glyph unicode="x" horiz-adv-x="393" d="M16 0L182 259L33 493H59L197 276L337 493H362L211 258L376 0H350L196 241L41 0H16Z"  />
<glyph unicode="y" horiz-adv-x="402" d="M38 -203Q54 -207 66 -207Q79 -207 90 -204T112 -193T130 -169T147 -131L188 -10L16 493H40L200 18L363 493H386L167 -137Q149 -190 125 -208T65 -227Q60 -227 52 -227T35 -224L38 -203Z"  />
<glyph unicode="z" horiz-adv-x="381" d="M31 0V18L325 473H43V493H349V475L57 20H350V0H31Z"  />
<glyph unicode="{" horiz-adv-x="252" d="M192 -128Q157 -128 136 -107T115 -31V188Q115 205 112 222T100 254T76 277T37 286V307Q61 307 76 316T99 339T111 370T115 405V624Q115 678 136 699T192 721H232V701H193Q168 701 153 685T137 624V399Q137 362 121 334T66 297Q104 289 120 260T137 194V-31Q137 -76 152 -92T193 -108H232V-128H192Z"  />
<glyph unicode="|" horiz-adv-x="219" d="M98 -216V775H120V-216H98Z"  />
<glyph unicode="}" horiz-adv-x="252" d="M20 -128V-108H59Q84 -108 99 -92T115 -31V194Q115 231 131 259T186 296Q148 304 132 333T115 399V624Q115 669 100 685T59 701H20V721H60Q95 721 116 700T137 624V405Q137 388 140 371T152 339T176 316T215 307V286Q191 286 176 277T153 254T141 223T137 188V-31Q137 -85 116 -106T60 -128H20Z"  />
<glyph unicode="~" horiz-adv-x="504" d="M-1 175Q4 221 31 248T109 275Q145 275 182 264T256 241T329 217T399 206Q478 206 487 286H509Q504 239 477 213T399 186Q363 186 326 197T252 220T179 244T109 255Q30 255 21 175H-1Z"  />
<glyph unicode="&#xA0;" horiz-adv-x="252" />
<glyph unicode="&#xA1;" horiz-adv-x="252" d="M113 -174L116 351H134L137 -174H113ZM111 431V493H140V431H111Z"  />
<glyph unicode="&#xA2;" horiz-adv-x="504" d="M270 0V90Q222 93 186 114T126 169T90 245T78 334Q78 382 90 424T126 499T186 551T270 576V667H292V578Q342 578 395 561L392 540Q367 550 343 554T293 558Q245 558 209 541T149 493T113 421T100 334Q100 290 112 250T147 178T206 129T287 110Q316 110 340 114T392 129L395 108Q369 99 346 95T292 90V0H270Z"  />
<glyph unicode="&#xA3;" horiz-adv-x="504" d="M82 0V20H174V371H86V391H174V495Q174 531 183 564T213 622T265 662T343 677Q374 677 397 672T448 656L445 634Q418 645 394 651T343 657Q302 657 274 644T229 608T204 554T196 489V391H362V371H196V20H437V0H82Z"  />
<glyph unicode="&#xA4;" horiz-adv-x="504" d="M44 107L30 122L106 198Q83 224 71 258T58 331Q58 368 70 401T105 462L30 538L44 553L119 477Q145 503 179 517T253 532Q291 532 325 518T385 478L460 553L474 538L399 463Q421 437 433 404T446 331Q446 293 433 260T397 199L474 122L460 107L383 184Q357 159 324 145T253 130Q215 130 181 144T120 183L44 107ZM130 203Q154 178 185 164T253 150Q288 150 319 164T374 203T411 261T425 331Q425 368 412 401T375 459T320 498T253 512Q217 512 185 498T130 460T93 402T79 331Q79 293 93 261T130 203Z"  />
<glyph unicode="&#xA5;" horiz-adv-x="504" d="M241 0V169H95V189H241V284H95V304H231L43 667H69L253 309L438 667H462L273 304H411V284H263V189H411V169H263V0H241Z"  />
<glyph unicode="&#xA6;" horiz-adv-x="219" d="M98 379V775H120V379H98ZM98 -216V181H120V-216H98Z"  />
<glyph unicode="&#xA7;" horiz-adv-x="504" d="M98 -76Q131 -92 168 -98T240 -104Q310 -104 350 -70T391 23Q391 54 374 81T316 126L175 191Q135 209 114 232T93 296Q93 332 118 363T199 427Q158 447 134 477T109 547Q109 578 121 602T154 642T205 668T268 677Q297 677 328 672T386 655L383 633Q357 646 325 651T268 657Q240 657 215 650T171 628T141 594T130 547Q130 480 215 441L340 382Q379 364 399 337T420 270Q420 235 400 205T332 140Q374 120 393 90T412 23Q412 -43 366 -83T240 -124Q206 -124 168 -119T95 -98L98 -76ZM315 149Q363 185 381 214T399 270Q399 305 381 326T329 364L217 417Q160 385 137 356T114 296Q114 263 132 245T186 209L315 149Z"  />
<glyph unicode="&#xA8;" horiz-adv-x="182" d="M15 623V685H39V623H15ZM142 623V685H166V623H142Z"  />
<glyph unicode="&#xA9;" horiz-adv-x="808" d="M533 144Q511 133 483 128T428 122Q377 122 338 137T271 181T230 247T216 333Q216 379 231 418T274 485T342 530T431 546Q457 546 483 541T533 525L529 503Q507 514 481 520T431 526Q386 526 351 512T292 472T254 411T241 334Q241 291 253 256T289 195T348 156T430 142Q483 142 529 164L533 144ZM107 202Q132 143 175 100T277 33T404 9Q472 9 530 32T632 97T701 199T726 332Q726 404 701 463T633 566T531 633T404 657Q336 657 278 634T176 569T107 467T82 334Q82 262 107 202ZM266 14Q203 40 158 85T86 194T60 334Q60 411 86 474T159 582T268 652T404 677Q479 677 542 652T650 580T722 471T748 332Q748 255 722 192T649 84T540 14T404 -11Q329 -11 266 14Z"  />
<glyph unicode="&#xAA;" horiz-adv-x="350" d="M259 379L256 440Q242 408 215 390T149 372Q104 372 79 396T53 456Q53 476 60 493T83 522T127 541T196 548H255V571Q255 612 238 634T176 657Q152 657 132 653T92 639L89 660Q109 668 129 672T176 677Q230 677 253 649T277 571V446Q277 433 277 418T280 379H259ZM196 529Q128 529 102 510T75 456Q75 428 94 410T149 392Q175 392 194 400T227 423T248 457T255 496V529H196Z"  />
<glyph unicode="&#xAB;" horiz-adv-x="400" d="M174 55L45 250L174 448H200L72 250L200 55H174ZM321 55L192 250L321 448H347L219 250L347 55H321Z"  />
<glyph unicode="&#xAC;" horiz-adv-x="504" d="M9 298V318H495V142H473V298H9Z"  />
<glyph unicode="&#xAD;" horiz-adv-x="310" d="M38 300V320H272V300H38Z"  />
<glyph unicode="&#xAE;" horiz-adv-x="808" d="M295 134V545H398Q463 545 493 518T524 441Q524 418 515 400T491 369T457 349T417 342Q454 334 477 288L557 134H531L456 283Q444 307 425 321T374 335H317V134H295ZM317 354H389Q412 354 432 358T468 373T493 400T502 441Q502 479 477 502T398 525H317V354ZM107 202Q132 143 175 100T277 33T404 9Q472 9 530 32T632 97T701 199T726 332Q726 404 701 463T633 566T531 633T404 657Q336 657 278 634T176 569T107 467T82 334Q82 262 107 202ZM266 14Q203 40 158 85T86 194T60 334Q60 411 86 474T159 582T268 652T404 677Q479 677 542 652T650 580T722 471T748 332Q748 255 722 192T649 84T540 14T404 -11Q329 -11 266 14Z"  />
<glyph unicode="&#xAF;" horiz-adv-x="182" d="M-7 646V666H188V646H-7Z"  />
<glyph unicode="&#xB0;" horiz-adv-x="400" d="M114 458Q145 425 199 425Q224 425 245 433T282 457T306 494T315 540Q315 591 284 624T199 657Q173 657 152 649T116 625T92 588T83 542Q83 491 114 458ZM142 415Q117 425 99 443T72 486T62 541Q62 570 72 595T100 638T144 666T199 677Q230 677 255 667T299 639T326 596T336 541Q336 512 326 487T298 444T254 416T199 405Q167 405 142 415Z"  />
<glyph unicode="&#xB1;" horiz-adv-x="504" d="M9 254V274H241V454H263V274H495V254H263V67H241V254H9ZM9 0V20H495V0H9Z"  />
<glyph unicode="&#xB2;" horiz-adv-x="380" d="M57 382V400L185 522Q215 551 233 573T260 613T273 646T276 678Q276 716 251 739T183 762Q154 762 129 754T79 734L76 755Q100 767 128 774T183 782Q238 782 268 753T298 678Q298 660 295 643T281 605T251 561T199 507L88 402H307V382H57Z"  />
<glyph unicode="&#xB3;" horiz-adv-x="380" d="M58 410Q83 402 109 399T161 395Q217 395 250 418T284 493Q284 531 257 553T172 576H112V596H172Q220 596 247 618T275 683Q275 718 249 740T172 762Q147 762 122 757T72 742L69 763Q94 771 120 776T172 782Q235 782 266 754T297 684Q297 645 274 620T215 587Q257 582 281 557T306 493Q306 438 267 407T161 375Q132 375 106 378T55 389L58 410Z"  />
<glyph unicode="&#xB4;" horiz-adv-x="182" d="M58 585L142 721H168L76 585H58Z"  />
<glyph unicode="&#xB5;" horiz-adv-x="504" d="M80 -216V493H102V192Q102 142 113 107T144 51T189 19T243 9Q318 9 355 58T393 192V493H415V122Q415 94 417 63T421 0H399L395 105Q355 -11 240 -11Q191 -11 155 14T102 93V-216H80Z"  />
<glyph unicode="&#xB6;" horiz-adv-x="504" d="M240 -108V322Q199 322 164 334T102 369T60 424T44 495Q44 543 60 578T106 635T174 668T259 679H462V-108H440V659H262V-108H240Z"  />
<glyph unicode="&#xB7;" horiz-adv-x="252" d="M112 280V342H141V280H112Z"  />
<glyph unicode="&#xB8;" horiz-adv-x="182" d="M26 -134Q45 -141 62 -143T96 -146Q127 -146 140 -135T154 -107Q154 -72 107 -72Q85 -72 58 -81L51 -72L102 0H122L78 -62Q88 -58 99 -57T118 -55Q144 -55 159 -69T175 -105Q175 -129 157 -147T96 -165Q76 -165 60 -163T23 -154L26 -134Z"  />
<glyph unicode="&#xB9;" horiz-adv-x="380" d="M206 382V749L104 674L91 690L209 775H228V382H206Z"  />
<glyph unicode="&#xBA;" horiz-adv-x="350" d="M88 430Q102 413 123 403T174 392Q204 392 226 403T262 432T284 475T291 526Q291 553 284 577T262 618T226 646T176 657Q146 657 124 646T88 617T66 574T59 523Q59 496 66 472T88 430ZM116 384Q91 396 74 416T47 464T37 523Q37 553 46 580T73 629T117 664T176 677Q208 677 233 665T276 633T303 585T313 526Q313 496 304 469T277 420T233 385T174 372Q142 372 116 384Z"  />
<glyph unicode="&#xBB;" horiz-adv-x="400" d="M53 55L181 253L53 448H79L208 253L79 55H53ZM200 55L328 253L200 448H226L355 253L226 55H200Z"  />
<glyph unicode="&#xBC;" horiz-adv-x="785" d="M94 -24L534 691H557L117 -24H94ZM144 277V644L42 569L29 585L147 670H166V277H144ZM377 99V118L592 393H615V119H677V99H615V0H593V99H377ZM402 119H594V367L402 119Z"  />
<glyph unicode="&#xBD;" horiz-adv-x="785" d="M100 -24L540 691H563L123 -24H100ZM146 277V644L44 569L31 585L149 670H168V277H146ZM456 0V18L584 140Q614 169 632 191T659 231T672 264T675 296Q675 334 650 357T582 380Q553 380 528 372T478 352L475 373Q499 385 527 392T582 400Q637 400 667 371T697 296Q697 278 694 261T680 223T650 179T598 125L487 20H706V0H456Z"  />
<glyph unicode="&#xBE;" horiz-adv-x="785" d="M196 -24L636 691H659L219 -24H196ZM39 305Q64 297 90 294T142 290Q198 290 231 313T265 388Q265 426 238 448T153 471H93V491H153Q201 491 228 513T256 578Q256 613 230 635T153 657Q128 657 103 652T53 637L50 658Q75 666 101 671T153 677Q216 677 247 649T278 579Q278 540 255 515T196 482Q238 477 262 452T287 388Q287 333 248 302T142 270Q113 270 87 273T36 284L39 305ZM482 99V118L697 393H720V119H782V99H720V0H698V99H482ZM507 119H699V367L507 119Z"  />
<glyph unicode="&#xBF;" horiz-adv-x="367" d="M332 -162Q301 -173 273 -178T204 -184Q128 -184 82 -140T35 -17Q35 23 47 54T78 111T119 160T159 209T190 265T203 336V351H225V336Q225 294 213 262T182 204T141 155T101 107T70 53T57 -15Q57 -86 97 -125T204 -164Q239 -164 268 -158T329 -141L332 -162ZM200 431V493H229V431H200Z"  />
<glyph unicode="&#xC0;" horiz-adv-x="580" d="M9 0L279 667H302L570 0H546L467 197H112L33 0H9ZM120 217H459L290 640L120 217ZM292 724L200 860H227L310 724H292Z"  />
<glyph unicode="&#xC1;" horiz-adv-x="580" d="M9 0L279 667H302L570 0H546L467 197H112L33 0H9ZM120 217H459L290 640L120 217ZM274 724L358 860H384L292 724H274Z"  />
<glyph unicode="&#xC2;" horiz-adv-x="580" d="M9 0L279 667H302L570 0H546L467 197H112L33 0H9ZM120 217H459L290 640L120 217ZM167 724L276 860H303L412 724H388L289 846L191 724H167Z"  />
<glyph unicode="&#xC3;" horiz-adv-x="580" d="M9 0L279 667H302L570 0H546L467 197H112L33 0H9ZM120 217H459L290 640L120 217ZM165 748Q167 783 185 804T237 826Q256 826 269 818T293 801T316 783T344 775Q370 775 381 791T394 833H414Q412 798 394 777T343 755Q324 755 311 763T286 780T263 798T236 806Q210 806 199 790T185 748H165Z"  />
<glyph unicode="&#xC4;" horiz-adv-x="580" d="M9 0L279 667H302L570 0H546L467 197H112L33 0H9ZM120 217H459L290 640L120 217ZM214 761V823H238V761H214ZM341 761V823H365V761H341Z"  />
<glyph unicode="&#xC5;" horiz-adv-x="580" d="M9 0L279 667H302L570 0H546L467 197H112L33 0H9ZM120 217H459L290 640L120 217ZM243 746Q261 727 290 727Q319 727 336 745T354 792Q354 819 337 838T290 857Q261 857 243 839T225 792Q225 765 243 746ZM290 707Q252 707 228 732T204 792Q204 827 228 852T290 877Q328 877 351 852T375 792Q375 757 351 732T290 707Z"  />
<glyph unicode="&#xC6;" horiz-adv-x="779" d="M163 217H431V644L163 217ZM3 0L422 667H716V647H453V360H702V340H453V20H728V0H431V197H152L29 0H3Z"  />
<glyph unicode="&#xC7;" horiz-adv-x="577" d="M280 -134Q299 -141 316 -143T350 -146Q381 -146 394 -135T408 -107Q408 -72 361 -72Q339 -72 312 -81L305 -72L349 -10Q279 -5 225 23T135 97T80 203T61 333Q61 403 82 465T145 575T245 649T378 677Q421 677 461 671T534 648L531 626Q499 643 459 650T378 657Q308 657 253 632T161 562T103 458T83 333Q83 265 102 206T159 103T252 34T378 9Q416 9 457 17T533 42L536 20Q502 4 462 -3T378 -11H367L332 -62Q342 -58 353 -57T372 -55Q398 -55 413 -69T429 -105Q429 -129 411 -147T350 -165Q330 -165 314 -163T277 -154L280 -134Z"  />
<glyph unicode="&#xC8;" horiz-adv-x="448" d="M94 0V667H385V647H116V360H371V340H116V20H397V0H94ZM248 724L156 860H183L266 724H248Z"  />
<glyph unicode="&#xC9;" horiz-adv-x="448" d="M94 0V667H385V647H116V360H371V340H116V20H397V0H94ZM219 724L303 860H329L237 724H219Z"  />
<glyph unicode="&#xCA;" horiz-adv-x="448" d="M94 0V667H385V647H116V360H371V340H116V20H397V0H94ZM120 724L229 860H256L365 724H341L242 846L144 724H120Z"  />
<glyph unicode="&#xCB;" horiz-adv-x="448" d="M94 0V667H385V647H116V360H371V340H116V20H397V0H94ZM166 761V823H190V761H166ZM293 761V823H317V761H293Z"  />
<glyph unicode="&#xCC;" horiz-adv-x="210" d="M94 0V667H116V0H94ZM108 724L16 860H43L126 724H108Z"  />
<glyph unicode="&#xCD;" horiz-adv-x="210" d="M94 0V667H116V0H94ZM84 724L168 860H194L102 724H84Z"  />
<glyph unicode="&#xCE;" horiz-adv-x="210" d="M94 0V667H116V0H94ZM-18 724L91 860H118L227 724H203L104 846L6 724H-18Z"  />
<glyph unicode="&#xCF;" horiz-adv-x="210" d="M94 0V667H116V0H94ZM29 761V823H53V761H29ZM156 761V823H180V761H156Z"  />
<glyph unicode="&#xD0;" horiz-adv-x="623" d="M94 0V330H23V349H94V667H228Q393 667 477 579T562 333Q562 173 473 87T220 0H94ZM116 20H221Q373 20 456 100T540 333Q540 485 460 566T228 647H116V349H327V330H116V20Z"  />
<glyph unicode="&#xD1;" horiz-adv-x="636" d="M94 0V667H120L520 34V667H542V0H516L116 633V0H94ZM201 748Q203 783 221 804T273 826Q292 826 305 818T329 801T352 783T380 775Q406 775 417 791T430 833H450Q448 798 430 777T379 755Q360 755 347 763T322 780T299 798T272 806Q246 806 235 790T221 748H201Z"  />
<glyph unicode="&#xD2;" horiz-adv-x="673" d="M144 107Q176 62 223 36T336 9Q400 9 448 36T527 108T574 211T590 333Q590 397 575 455T528 559T449 630T336 657Q272 657 225 630T146 558T99 455T83 333Q83 269 98 211T144 107ZM214 17Q163 45 129 92T78 201T61 333Q61 400 78 462T129 572T215 648T336 677Q406 677 457 649T543 574T595 465T612 333Q612 266 595 204T543 94T457 18T336 -11Q266 -11 214 17ZM334 724L242 860H269L352 724H334Z"  />
<glyph unicode="&#xD3;" horiz-adv-x="673" d="M144 107Q176 62 223 36T336 9Q400 9 448 36T527 108T574 211T590 333Q590 397 575 455T528 559T449 630T336 657Q272 657 225 630T146 558T99 455T83 333Q83 269 98 211T144 107ZM214 17Q163 45 129 92T78 201T61 333Q61 400 78 462T129 572T215 648T336 677Q406 677 457 649T543 574T595 465T612 333Q612 266 595 204T543 94T457 18T336 -11Q266 -11 214 17ZM317 724L401 860H427L335 724H317Z"  />
<glyph unicode="&#xD4;" horiz-adv-x="673" d="M144 107Q176 62 223 36T336 9Q400 9 448 36T527 108T574 211T590 333Q590 397 575 455T528 559T449 630T336 657Q272 657 225 630T146 558T99 455T83 333Q83 269 98 211T144 107ZM214 17Q163 45 129 92T78 201T61 333Q61 400 78 462T129 572T215 648T336 677Q406 677 457 649T543 574T595 465T612 333Q612 266 595 204T543 94T457 18T336 -11Q266 -11 214 17ZM213 724L322 860H349L458 724H434L335 846L237 724H213Z"  />
<glyph unicode="&#xD5;" horiz-adv-x="673" d="M144 107Q176 62 223 36T336 9Q400 9 448 36T527 108T574 211T590 333Q590 397 575 455T528 559T449 630T336 657Q272 657 225 630T146 558T99 455T83 333Q83 269 98 211T144 107ZM214 17Q163 45 129 92T78 201T61 333Q61 400 78 462T129 572T215 648T336 677Q406 677 457 649T543 574T595 465T612 333Q612 266 595 204T543 94T457 18T336 -11Q266 -11 214 17ZM211 748Q213 783 231 804T283 826Q302 826 315 818T339 801T362 783T390 775Q416 775 427 791T440 833H460Q458 798 440 777T389 755Q370 755 357 763T332 780T309 798T282 806Q256 806 245 790T231 748H211Z"  />
<glyph unicode="&#xD6;" horiz-adv-x="673" d="M144 107Q176 62 223 36T336 9Q400 9 448 36T527 108T574 211T590 333Q590 397 575 455T528 559T449 630T336 657Q272 657 225 630T146 558T99 455T83 333Q83 269 98 211T144 107ZM214 17Q163 45 129 92T78 201T61 333Q61 400 78 462T129 572T215 648T336 677Q406 677 457 649T543 574T595 465T612 333Q612 266 595 204T543 94T457 18T336 -11Q266 -11 214 17ZM260 761V823H284V761H260ZM387 761V823H411V761H387Z"  />
<glyph unicode="&#xD7;" horiz-adv-x="504" d="M44 8L30 23L237 231L30 439L44 454L252 245L460 454L474 439L266 231L474 23L460 8L252 216L44 8Z"  />
<glyph unicode="&#xD8;" horiz-adv-x="673" d="M47 -13L130 90Q95 138 78 200T61 333Q61 400 78 462T129 572T215 648T336 677Q399 677 447 654T530 590L611 691L627 679L543 574Q578 526 595 464T612 333Q612 266 595 204T543 94T457 18T336 -11Q273 -11 225 12T142 74L63 -25L47 -13ZM517 573Q485 612 441 634T336 657Q272 657 225 630T146 558T99 455T83 333Q83 269 98 211T144 108L517 573ZM156 91Q187 53 231 31T336 9Q400 9 448 36T527 108T574 211T590 333Q590 396 575 454T529 557L156 91Z"  />
<glyph unicode="&#xD9;" horiz-adv-x="616" d="M110 222Q110 122 160 66T309 9Q406 9 456 66T506 222V667H528V221Q528 170 514 127T472 54T403 6T309 -11Q254 -11 213 5T144 52T102 126T88 222V667H110V222ZM310 724L218 860H245L328 724H310Z"  />
<glyph unicode="&#xDA;" horiz-adv-x="616" d="M110 222Q110 122 160 66T309 9Q406 9 456 66T506 222V667H528V221Q528 170 514 127T472 54T403 6T309 -11Q254 -11 213 5T144 52T102 126T88 222V667H110V222ZM287 724L371 860H397L305 724H287Z"  />
<glyph unicode="&#xDB;" horiz-adv-x="616" d="M110 222Q110 122 160 66T309 9Q406 9 456 66T506 222V667H528V221Q528 170 514 127T472 54T403 6T309 -11Q254 -11 213 5T144 52T102 126T88 222V667H110V222ZM186 724L295 860H322L431 724H407L308 846L210 724H186Z"  />
<glyph unicode="&#xDC;" horiz-adv-x="616" d="M110 222Q110 122 160 66T309 9Q406 9 456 66T506 222V667H528V221Q528 170 514 127T472 54T403 6T309 -11Q254 -11 213 5T144 52T102 126T88 222V667H110V222ZM233 761V823H257V761H233ZM360 761V823H384V761H360Z"  />
<glyph unicode="&#xDD;" horiz-adv-x="533" d="M255 0V309L9 667H36L267 331L497 667H524L277 309V0H255ZM247 724L331 860H357L265 724H247Z"  />
<glyph unicode="&#xDE;" horiz-adv-x="468" d="M94 0V667H116V513H221Q323 513 375 472T427 341Q427 251 375 209T221 167H116V0H94ZM116 187H221Q313 187 359 222T405 341Q405 421 359 457T221 493H116V187Z"  />
<glyph unicode="&#xDF;" horiz-adv-x="505" d="M81 0V515Q81 560 92 599T127 668T187 714T272 731Q354 731 392 682T431 555Q431 540 429 522T423 483H380Q313 483 277 457T240 383Q240 366 244 353T257 329T281 307T320 283L372 255Q422 228 442 201T463 128Q463 62 422 26T317 -11Q297 -11 273 -8T218 5L221 27Q250 16 273 13T317 9Q369 9 405 38T441 125Q441 168 421 192T356 240L304 268Q259 292 239 318T219 383Q219 436 260 469T378 503H405Q407 516 408 529T409 555Q409 586 402 614T378 664T336 698T272 711Q227 711 195 696T143 654T113 591T103 513V0H81Z"  />
<glyph unicode="&#xE0;" d="M356 0L352 111Q332 46 288 18T190 -11Q120 -11 81 26T41 126Q41 198 97 242T274 287H350V337Q350 367 345 394T325 440T288 471T228 483Q192 483 160 474T95 451L92 472Q124 486 156 494T228 503Q270 503 297 490T341 455T364 402T371 337V194Q371 172 371 155T371 118T373 70T376 0H356ZM275 268Q164 268 114 230T63 126Q63 70 96 40T192 9Q232 9 262 24T311 65T340 124T350 193V268H275ZM226 585L134 721H161L244 585H226Z"  />
<glyph unicode="&#xE1;" d="M356 0L352 111Q332 46 288 18T190 -11Q120 -11 81 26T41 126Q41 198 97 242T274 287H350V337Q350 367 345 394T325 440T288 471T228 483Q192 483 160 474T95 451L92 472Q124 486 156 494T228 503Q270 503 297 490T341 455T364 402T371 337V194Q371 172 371 155T371 118T373 70T376 0H356ZM275 268Q164 268 114 230T63 126Q63 70 96 40T192 9Q232 9 262 24T311 65T340 124T350 193V268H275ZM196 585L280 721H306L214 585H196Z"  />
<glyph unicode="&#xE2;" d="M356 0L352 111Q332 46 288 18T190 -11Q120 -11 81 26T41 126Q41 198 97 242T274 287H350V337Q350 367 345 394T325 440T288 471T228 483Q192 483 160 474T95 451L92 472Q124 486 156 494T228 503Q270 503 297 490T341 455T364 402T371 337V194Q371 172 371 155T371 118T373 70T376 0H356ZM275 268Q164 268 114 230T63 126Q63 70 96 40T192 9Q232 9 262 24T311 65T340 124T350 193V268H275ZM98 585L207 721H234L343 585H319L220 707L122 585H98Z"  />
<glyph unicode="&#xE3;" d="M356 0L352 111Q332 46 288 18T190 -11Q120 -11 81 26T41 126Q41 198 97 242T274 287H350V337Q350 367 345 394T325 440T288 471T228 483Q192 483 160 474T95 451L92 472Q124 486 156 494T228 503Q270 503 297 490T341 455T364 402T371 337V194Q371 172 371 155T371 118T373 70T376 0H356ZM275 268Q164 268 114 230T63 126Q63 70 96 40T192 9Q232 9 262 24T311 65T340 124T350 193V268H275ZM98 610Q100 645 118 666T170 688Q189 688 202 680T226 663T249 645T277 637Q303 637 314 653T327 695H347Q345 660 327 639T276 617Q257 617 244 625T219 642T196 660T169 668Q143 668 132 652T118 610H98Z"  />
<glyph unicode="&#xE4;" d="M356 0L352 111Q332 46 288 18T190 -11Q120 -11 81 26T41 126Q41 198 97 242T274 287H350V337Q350 367 345 394T325 440T288 471T228 483Q192 483 160 474T95 451L92 472Q124 486 156 494T228 503Q270 503 297 490T341 455T364 402T371 337V194Q371 172 371 155T371 118T373 70T376 0H356ZM275 268Q164 268 114 230T63 126Q63 70 96 40T192 9Q232 9 262 24T311 65T340 124T350 193V268H275ZM145 623V685H169V623H145ZM272 623V685H296V623H272Z"  />
<glyph unicode="&#xE5;" d="M356 0L352 111Q332 46 288 18T190 -11Q120 -11 81 26T41 126Q41 198 97 242T274 287H350V337Q350 367 345 394T325 440T288 471T228 483Q192 483 160 474T95 451L92 472Q124 486 156 494T228 503Q270 503 297 490T341 455T364 402T371 337V194Q371 172 371 155T371 118T373 70T376 0H356ZM275 268Q164 268 114 230T63 126Q63 70 96 40T192 9Q232 9 262 24T311 65T340 124T350 193V268H275ZM174 608Q192 589 221 589Q250 589 267 607T285 654Q285 681 268 700T221 719Q192 719 174 701T156 654Q156 627 174 608ZM221 569Q183 569 159 594T135 654Q135 689 159 714T221 739Q259 739 282 714T306 654Q306 619 282 594T221 569Z"  />
<glyph unicode="&#xE6;" horiz-adv-x="744" d="M91 472Q123 486 153 494T222 503Q259 503 284 492T325 462T349 418T359 363Q379 427 423 465T527 503Q610 503 653 444T697 284V261H361Q361 209 371 164T403 84T459 29T543 9Q583 9 610 16T666 35L669 13Q642 3 615 -4T543 -11Q466 -11 420 31T355 146Q347 99 330 69T290 21T241 -4T190 -11Q121 -11 81 26T41 126Q41 198 99 239T272 280H342V337Q342 367 337 394T317 440T280 471T222 483Q190 483 158 475T94 451L91 472ZM273 261Q167 261 115 227T63 126Q63 70 97 40T192 9Q230 9 258 23T305 63T333 122T342 193V261H273ZM676 280Q676 377 638 430T527 483Q491 483 461 468T409 427T375 363T362 280H676Z"  />
<glyph unicode="&#xE7;" horiz-adv-x="416" d="M180 -134Q199 -141 216 -143T250 -146Q281 -146 294 -135T308 -107Q308 -72 261 -72Q239 -72 212 -81L205 -72L248 -10Q198 -7 161 15T100 71T63 151T50 246Q50 299 64 346T107 428T177 483T273 503Q327 503 378 484L375 462Q349 473 324 478T272 483Q223 483 186 465T123 414T85 339T72 246Q72 198 84 155T120 80T181 28T266 9Q297 9 321 14T375 31L378 9Q351 -1 326 -5T268 -11L232 -62Q242 -58 253 -57T272 -55Q298 -55 313 -69T329 -105Q329 -129 311 -147T250 -165Q230 -165 214 -163T177 -154L180 -134Z"  />
<glyph unicode="&#xE8;" horiz-adv-x="463" d="M72 253Q72 201 83 157T119 79T179 28T264 9Q305 9 333 15T390 35L393 13Q366 2 338 -4T264 -11Q210 -11 170 9T104 64T64 148T50 255Q50 311 65 356T106 434T168 485T247 503Q293 503 326 487T380 440T411 369T421 277V253H72ZM400 273Q400 369 364 426T247 483Q210 483 179 467T124 423T87 357T73 273H400ZM243 585L151 721H178L261 585H243Z"  />
<glyph unicode="&#xE9;" horiz-adv-x="463" d="M72 253Q72 201 83 157T119 79T179 28T264 9Q305 9 333 15T390 35L393 13Q366 2 338 -4T264 -11Q210 -11 170 9T104 64T64 148T50 255Q50 311 65 356T106 434T168 485T247 503Q293 503 326 487T380 440T411 369T421 277V253H72ZM400 273Q400 369 364 426T247 483Q210 483 179 467T124 423T87 357T73 273H400ZM215 585L299 721H325L233 585H215Z"  />
<glyph unicode="&#xEA;" horiz-adv-x="463" d="M72 253Q72 201 83 157T119 79T179 28T264 9Q305 9 333 15T390 35L393 13Q366 2 338 -4T264 -11Q210 -11 170 9T104 64T64 148T50 255Q50 311 65 356T106 434T168 485T247 503Q293 503 326 487T380 440T411 369T421 277V253H72ZM400 273Q400 369 364 426T247 483Q210 483 179 467T124 423T87 357T73 273H400ZM116 585L225 721H252L361 585H337L238 707L140 585H116Z"  />
<glyph unicode="&#xEB;" horiz-adv-x="463" d="M72 253Q72 201 83 157T119 79T179 28T264 9Q305 9 333 15T390 35L393 13Q366 2 338 -4T264 -11Q210 -11 170 9T104 64T64 148T50 255Q50 311 65 356T106 434T168 485T247 503Q293 503 326 487T380 440T411 369T421 277V253H72ZM400 273Q400 369 364 426T247 483Q210 483 179 467T124 423T87 357T73 273H400ZM163 623V685H187V623H163ZM290 623V685H314V623H290Z"  />
<glyph unicode="&#xEC;" horiz-adv-x="186" d="M82 0V493H104V0H82ZM107 585L15 721H42L125 585H107Z"  />
<glyph unicode="&#xED;" horiz-adv-x="186" d="M82 0V493H104V0H82ZM60 585L144 721H170L78 585H60Z"  />
<glyph unicode="&#xEE;" horiz-adv-x="186" d="M82 0V493H104V0H82ZM-30 585L79 721H106L215 585H191L92 707L-6 585H-30Z"  />
<glyph unicode="&#xEF;" horiz-adv-x="186" d="M82 0V493H104V0H82ZM17 623V685H41V623H17ZM144 623V685H168V623H144Z"  />
<glyph unicode="&#xF0;" horiz-adv-x="517" d="M196 579L186 594L278 652Q251 669 217 681T147 702L150 721Q230 704 296 664L386 721L396 706L311 652Q345 628 373 595T422 518T454 416T465 286Q465 225 454 171T417 77T353 13T257 -11Q201 -11 162 10T98 66T62 146T50 238Q50 287 62 332T100 413T163 470T254 491Q284 491 313 482T369 454T415 405T447 333Q437 448 399 522T294 640L196 579ZM115 79Q138 47 173 28T257 9Q308 9 343 31T401 88T433 166T443 254Q443 299 429 338T391 407T331 454T254 471Q206 471 172 452T115 400T83 325T72 238Q72 193 82 152T115 79Z"  />
<glyph unicode="&#xF1;" horiz-adv-x="508" d="M81 0V299Q81 321 81 338T81 375T79 423T77 493H97L100 383Q121 443 165 473T268 503Q317 503 348 487T396 443T420 380T427 306V0H405V301Q405 337 400 370T380 428T338 468T266 483Q219 483 188 464T137 418T111 358T103 300V0H81ZM131 610Q133 645 151 666T203 688Q222 688 235 680T259 663T282 645T310 637Q336 637 347 653T360 695H380Q378 660 360 639T309 617Q290 617 277 625T252 642T229 660T202 668Q176 668 165 652T151 610H131Z"  />
<glyph unicode="&#xF2;" horiz-adv-x="525" d="M117 80Q141 48 176 29T262 9Q311 9 347 29T406 82T441 159T453 248Q453 294 442 336T407 411T348 463T262 483Q213 483 177 463T118 410T84 333T72 244Q72 198 83 156T117 80ZM166 10Q126 32 100 68T62 150T50 244Q50 294 63 341T102 424T169 481T262 503Q318 503 358 482T424 424T462 342T475 248Q475 198 462 151T422 68T355 11T262 -11Q206 -11 166 10ZM266 585L174 721H201L284 585H266Z"  />
<glyph unicode="&#xF3;" horiz-adv-x="525" d="M117 80Q141 48 176 29T262 9Q311 9 347 29T406 82T441 159T453 248Q453 294 442 336T407 411T348 463T262 483Q213 483 177 463T118 410T84 333T72 244Q72 198 83 156T117 80ZM166 10Q126 32 100 68T62 150T50 244Q50 294 63 341T102 424T169 481T262 503Q318 503 358 482T424 424T462 342T475 248Q475 198 462 151T422 68T355 11T262 -11Q206 -11 166 10ZM238 585L322 721H348L256 585H238Z"  />
<glyph unicode="&#xF4;" horiz-adv-x="525" d="M117 80Q141 48 176 29T262 9Q311 9 347 29T406 82T441 159T453 248Q453 294 442 336T407 411T348 463T262 483Q213 483 177 463T118 410T84 333T72 244Q72 198 83 156T117 80ZM166 10Q126 32 100 68T62 150T50 244Q50 294 63 341T102 424T169 481T262 503Q318 503 358 482T424 424T462 342T475 248Q475 198 462 151T422 68T355 11T262 -11Q206 -11 166 10ZM139 585L248 721H275L384 585H360L261 707L163 585H139Z"  />
<glyph unicode="&#xF5;" horiz-adv-x="525" d="M117 80Q141 48 176 29T262 9Q311 9 347 29T406 82T441 159T453 248Q453 294 442 336T407 411T348 463T262 483Q213 483 177 463T118 410T84 333T72 244Q72 198 83 156T117 80ZM166 10Q126 32 100 68T62 150T50 244Q50 294 63 341T102 424T169 481T262 503Q318 503 358 482T424 424T462 342T475 248Q475 198 462 151T422 68T355 11T262 -11Q206 -11 166 10ZM137 610Q139 645 157 666T209 688Q228 688 241 680T265 663T288 645T316 637Q342 637 353 653T366 695H386Q384 660 366 639T315 617Q296 617 283 625T258 642T235 660T208 668Q182 668 171 652T157 610H137Z"  />
<glyph unicode="&#xF6;" horiz-adv-x="525" d="M117 80Q141 48 176 29T262 9Q311 9 347 29T406 82T441 159T453 248Q453 294 442 336T407 411T348 463T262 483Q213 483 177 463T118 410T84 333T72 244Q72 198 83 156T117 80ZM166 10Q126 32 100 68T62 150T50 244Q50 294 63 341T102 424T169 481T262 503Q318 503 358 482T424 424T462 342T475 248Q475 198 462 151T422 68T355 11T262 -11Q206 -11 166 10ZM186 623V685H210V623H186ZM313 623V685H337V623H313Z"  />
<glyph unicode="&#xF7;" horiz-adv-x="504" d="M9 230V250H495V230H9ZM252 16Q238 16 229 25T220 48Q220 62 229 71T252 81Q266 81 275 72T284 48Q284 35 275 26T252 16ZM252 400Q238 400 229 409T220 432Q220 446 229 455T252 465Q266 465 275 456T284 432Q284 419 275 410T252 400Z"  />
<glyph unicode="&#xF8;" horiz-adv-x="525" d="M39 -13L102 64Q75 100 63 147T50 244Q50 294 63 341T102 424T169 481T262 503Q311 503 347 486T410 440L472 516L486 504L422 426Q449 390 462 344T475 248Q475 198 462 151T422 68T355 11T262 -11Q213 -11 177 5T114 50L53 -25L39 -13ZM397 424Q374 451 341 467T262 483Q213 483 177 463T118 410T84 333T72 244Q72 198 83 156T117 82L397 424ZM128 67Q151 40 184 25T262 9Q311 9 347 29T406 82T441 159T453 248Q453 293 442 335T408 409L128 67Z"  />
<glyph unicode="&#xF9;" horiz-adv-x="504" d="M103 184Q103 146 109 114T131 59T173 23T240 9Q287 9 318 28T367 75T393 135T401 193V493H423V194Q423 172 423 155T423 118T424 70T427 0H406L403 107Q382 47 338 18T238 -11Q194 -11 164 4T116 44T89 105T81 179V493H103V184ZM256 585L164 721H191L274 585H256Z"  />
<glyph unicode="&#xFA;" horiz-adv-x="504" d="M103 184Q103 146 109 114T131 59T173 23T240 9Q287 9 318 28T367 75T393 135T401 193V493H423V194Q423 172 423 155T423 118T424 70T427 0H406L403 107Q382 47 338 18T238 -11Q194 -11 164 4T116 44T89 105T81 179V493H103V184ZM233 585L317 721H343L251 585H233Z"  />
<glyph unicode="&#xFB;" horiz-adv-x="504" d="M103 184Q103 146 109 114T131 59T173 23T240 9Q287 9 318 28T367 75T393 135T401 193V493H423V194Q423 172 423 155T423 118T424 70T427 0H406L403 107Q382 47 338 18T238 -11Q194 -11 164 4T116 44T89 105T81 179V493H103V184ZM132 585L241 721H268L377 585H353L254 707L156 585H132Z"  />
<glyph unicode="&#xFC;" horiz-adv-x="504" d="M103 184Q103 146 109 114T131 59T173 23T240 9Q287 9 318 28T367 75T393 135T401 193V493H423V194Q423 172 423 155T423 118T424 70T427 0H406L403 107Q382 47 338 18T238 -11Q194 -11 164 4T116 44T89 105T81 179V493H103V184ZM178 623V685H202V623H178ZM305 623V685H329V623H305Z"  />
<glyph unicode="&#xFD;" horiz-adv-x="402" d="M38 -203Q54 -207 66 -207Q79 -207 90 -204T112 -193T130 -169T147 -131L188 -10L16 493H40L200 18L363 493H386L167 -137Q149 -190 125 -208T65 -227Q60 -227 52 -227T35 -224L38 -203ZM172 585L256 721H282L190 585H172Z"  />
<glyph unicode="&#xFE;" horiz-adv-x="510" d="M145 72Q189 9 270 9Q312 9 343 26T396 75T427 149T438 243Q438 292 428 336T398 412T345 464T270 483Q190 483 146 422T102 248Q102 135 145 72ZM81 -216V721H103V372Q127 443 170 473T270 503Q319 503 355 483T414 427T448 345T460 243Q460 188 448 142T411 61T352 8T270 -11Q208 -11 163 24T103 127V-216H81Z"  />
<glyph unicode="&#xFF;" horiz-adv-x="402" d="M38 -203Q54 -207 66 -207Q79 -207 90 -204T112 -193T130 -169T147 -131L188 -10L16 493H40L200 18L363 493H386L167 -137Q149 -190 125 -208T65 -227Q60 -227 52 -227T35 -224L38 -203ZM126 623V685H150V623H126ZM253 623V685H277V623H253Z"  />
<glyph unicode="&#x131;" horiz-adv-x="186" d="M82 0V493H104V0H82Z"  />
<glyph unicode="&#x152;" horiz-adv-x="818" d="M471 0Q445 -5 422 -8T369 -11Q290 -11 232 16T136 91T80 200T61 333Q61 401 80 463T137 573T233 649T365 677Q395 677 419 675T472 667H755V647H492V360H741V340H492V20H767V0H471ZM470 646Q445 651 420 654T365 657Q295 657 242 630T154 558T101 455T83 333Q83 268 100 209T154 106T243 35T369 9Q398 9 421 11T470 20V646Z"  />
<glyph unicode="&#x153;" horiz-adv-x="848" d="M465 253Q465 201 476 157T511 79T570 28T652 9Q721 9 777 35L780 13Q753 2 723 -4T652 -11Q570 -11 521 36T454 164Q446 127 430 95T389 40T332 3T258 -11Q203 -11 164 10T99 68T62 150T50 244Q50 294 63 341T101 424T166 481T258 503Q301 503 334 490T391 453T430 398T454 332Q463 371 480 402T520 456T573 491T635 503Q678 503 710 487T763 440T794 369T805 277V253H465ZM116 80Q139 48 174 29T258 9Q306 9 341 29T400 82T434 159T445 248Q445 294 434 336T400 411T342 463T258 483Q210 483 175 463T117 410T83 333T72 244Q72 198 83 156T116 80ZM784 273Q784 369 748 426T635 483Q599 483 568 467T514 423T478 357T465 273H784Z"  />
<glyph unicode="&#x160;" horiz-adv-x="428" d="M52 35Q84 21 118 15T190 9Q224 9 254 17T306 44T342 92T355 163Q355 218 326 254T238 323L166 363Q112 393 83 430T53 521Q53 559 67 588T105 637T161 667T229 677Q269 677 299 671T358 654L355 632Q299 657 229 657Q198 657 170 649T121 623T88 581T75 521Q75 475 100 443T182 379L252 340Q311 307 344 266T377 163Q377 118 363 86T323 32T263 0T190 -11Q153 -11 117 -6T49 13L52 35ZM207 724L98 860H122L221 738L319 860H343L234 724H207Z"  />
<glyph unicode="&#x161;" horiz-adv-x="342" d="M40 28Q72 17 98 13T154 9Q206 9 242 37T278 120Q278 140 274 156T260 186T232 213T187 240L131 269Q83 293 63 320T42 386Q42 414 52 435T81 472T125 495T178 503Q212 503 234 499T281 484L278 462Q231 483 178 483Q155 483 134 477T98 459T73 429T64 386Q64 369 68 356T81 331T107 308T148 284L204 255Q258 227 279 196T300 120Q300 90 289 66T259 25T212 -2T154 -11Q124 -11 97 -8T37 6L40 28ZM159 585L50 721H74L173 599L271 721H295L186 585H159Z"  />
<glyph unicode="&#x178;" horiz-adv-x="533" d="M255 0V309L9 667H36L267 331L497 667H524L277 309V0H255ZM194 761V823H218V761H194ZM321 761V823H345V761H321Z"  />
<glyph unicode="&#x17D;" horiz-adv-x="438" d="M26 0V18L379 647H38V667H403V649L52 20H411V0H26ZM206 724L97 860H121L220 738L318 860H342L233 724H206Z"  />
<glyph unicode="&#x17E;" horiz-adv-x="381" d="M31 0V18L325 473H43V493H349V475L57 20H350V0H31ZM183 585L74 721H98L197 599L295 721H319L210 585H183Z"  />
<glyph unicode="&#x192;" horiz-adv-x="504" d="M-22 -202Q-7 -205 1 -206T21 -207Q42 -207 59 -201T89 -180T112 -141T130 -79L226 380H121V400H231L264 549Q278 612 303 644T381 677Q403 677 430 669L427 647Q403 657 381 657Q337 657 317 628T285 545L253 400H369V380H248L152 -83Q135 -164 104 -195T21 -227Q9 -227 0 -227T-23 -224L-22 -202Z"  />
<glyph unicode="&#x2C6;" horiz-adv-x="182" d="M-32 585L77 721H104L213 585H189L90 707L-8 585H-32Z"  />
<glyph unicode="&#x2C7;" horiz-adv-x="182" d="M77 585L-32 721H-8L91 599L189 721H213L104 585H77Z"  />
<glyph unicode="&#x2DA;" horiz-adv-x="182" d="M44 608Q62 589 91 589Q120 589 137 607T155 654Q155 681 138 700T91 719Q62 719 44 701T26 654Q26 627 44 608ZM91 569Q53 569 29 594T5 654Q5 689 29 714T91 739Q129 739 152 714T176 654Q176 619 152 594T91 569Z"  />
<glyph unicode="&#x2DC;" horiz-adv-x="182" d="M-34 610Q-32 645 -14 666T38 688Q57 688 70 680T94 663T117 645T145 637Q171 637 182 653T195 695H215Q213 660 195 639T144 617Q125 617 112 625T87 642T64 660T37 668Q11 668 0 652T-14 610H-34Z"  />
<glyph unicode="&#x2013;" horiz-adv-x="500" d="M0 300V320H500V300H0Z"  />
<glyph unicode="&#x2014;" horiz-adv-x="1000" d="M0 300V320H1000V300H0Z"  />
<glyph unicode="&#x2018;" horiz-adv-x="252" d="M77 531L143 721H160L104 531H77Z"  />
<glyph unicode="&#x2019;" horiz-adv-x="252" d="M84 531L140 721H167L101 531H84Z"  />
<glyph unicode="&#x201A;" horiz-adv-x="252" d="M63 -128L119 62H146L80 -128H63Z"  />
<glyph unicode="&#x201C;" horiz-adv-x="390" d="M77 531L143 721H160L104 531H77ZM215 531L281 721H298L242 531H215Z"  />
<glyph unicode="&#x201D;" horiz-adv-x="390" d="M84 531L140 721H167L101 531H84ZM222 531L278 721H305L239 531H222Z"  />
<glyph unicode="&#x201E;" horiz-adv-x="390" d="M63 -128L119 62H146L80 -128H63ZM201 -128L257 62H284L218 -128H201Z"  />
<glyph unicode="&#x2020;" horiz-adv-x="504" d="M241 -128V451H63V471H241V721H263V471H441V451H263V-128H241Z"  />
<glyph unicode="&#x2021;" horiz-adv-x="504" d="M241 -128V124H63V144H241V451H63V471H241V721H263V471H441V451H263V144H441V124H263V-128H241Z"  />
<glyph unicode="&#x2022;" horiz-adv-x="504" d="M216 225Q199 233 187 245T167 275T159 311Q159 330 166 347T186 376T216 396T252 404Q271 404 288 397T317 377T337 347T345 311Q345 292 338 275T318 246T288 226T252 218Q233 218 216 225Z"  />
<glyph unicode="&#x2026;" horiz-adv-x="1000" d="M152 0V62H181V0H152ZM485 0V62H514V0H485ZM818 0V62H847V0H818Z"  />
<glyph unicode="&#x2030;" horiz-adv-x="1111" d="M161 -24L601 691H624L184 -24H161ZM101 341Q131 290 190 290Q249 290 279 341T309 473Q309 554 279 605T190 657Q131 657 101 606T71 473Q71 392 101 341ZM130 284Q104 299 86 326T59 390T49 473Q49 518 58 555T86 620T130 662T190 677Q223 677 249 662T294 620T321 556T331 473Q331 428 322 391T294 327T250 285T190 270Q157 270 130 284ZM509 60Q539 9 598 9Q657 9 687 60T717 192Q717 273 687 324T598 376Q539 376 509 325T479 192Q479 111 509 60ZM538 3Q512 18 494 45T467 109T457 192Q457 237 466 274T494 339T538 381T598 396Q631 396 657 381T702 339T729 275T739 192Q739 147 730 110T702 46T658 4T598 -11Q565 -11 538 3ZM834 60Q864 9 923 9Q982 9 1012 60T1042 192Q1042 273 1012 324T923 376Q864 376 834 325T804 192Q804 111 834 60ZM863 3Q837 18 819 45T792 109T782 192Q782 237 791 274T819 339T863 381T923 396Q956 396 982 381T1027 339T1054 275T1064 192Q1064 147 1055 110T1027 46T983 4T923 -11Q890 -11 863 3Z"  />
<glyph unicode="&#x2039;" horiz-adv-x="252" d="M174 55L45 250L174 448H200L72 250L200 55H174Z"  />
<glyph unicode="&#x203A;" horiz-adv-x="252" d="M52 55L180 253L52 448H78L207 253L78 55H52Z"  />
<glyph unicode="&#x20AC;" horiz-adv-x="504" d="M30 260L36 280H114Q112 300 112 311T112 333Q112 343 112 354T114 387H31L37 407H116Q123 468 142 518T191 603T263 658T357 677Q392 677 420 672T475 653L471 632Q444 646 417 651T357 657Q309 657 271 639T205 588T160 509T137 407H432L426 387H135Q133 366 133 355T133 333Q133 322 133 311T134 280H405L399 260H137Q149 144 203 77T357 9Q385 9 414 15T472 35L475 14Q419 -11 357 -11Q303 -11 261 8T189 62T141 147T116 260H30Z"  />
<glyph unicode="&#x2122;" horiz-adv-x="841" d="M356 266V667H391L566 286L742 667H774V266H753V645L577 266H554L378 646V266H356ZM133 266V647H4V667H286V647H155V266H133Z"  />
<glyph unicode="&#xE300;" horiz-adv-x="182" d="M108 724L16 860H43L126 724H108Z"  />
<glyph unicode="&#xE301;" horiz-adv-x="182" d="M58 724L142 860H168L76 724H58Z"  />
<glyph unicode="&#xE302;" horiz-adv-x="182" d="M-32 724L77 860H104L213 724H189L90 846L-8 724H-32Z"  />
<glyph unicode="&#xE303;" horiz-adv-x="182" d="M77 724L-32 860H-8L91 738L189 860H213L104 724H77Z"  />
<glyph unicode="&#xE304;" horiz-adv-x="182" d="M-34 748Q-32 783 -14 804T38 826Q57 826 70 818T94 801T117 783T145 775Q171 775 182 791T195 833H215Q213 798 195 777T144 755Q125 755 112 763T87 780T64 798T37 806Q11 806 0 790T-14 748H-34Z"  />
<glyph unicode="&#xE305;" horiz-adv-x="182" d="M15 761V823H39V761H15ZM142 761V823H166V761H142Z"  />
<glyph unicode="&#xE308;" horiz-adv-x="182" d="M44 746Q62 727 91 727Q120 727 137 745T155 792Q155 819 138 838T91 857Q62 857 44 839T26 792Q26 765 44 746ZM91 707Q53 707 29 732T5 792Q5 827 29 852T91 877Q129 877 152 852T176 792Q176 757 152 732T91 707Z"  />

</font>
</defs>
</svg>
