<?xml  version="1.0" encoding="UTF-8"?>
<!DOCTYPE svg PUBLIC "-//W3C//DTD SVG 1.0//EN" "http://www.w3.org/TR/2001/REC-SVG-20010904/DTD/svg10.dtd" >
<svg xmlns="http://www.w3.org/2000/svg" >
<metadata>
<version>1.0</version>
<id><![CDATA[Frutiger Next W01 Heavy Cn]]></id>
<vendor>Monotype Imaging Inc.</vendor>
<credits>
<name>Fonts.com WebFonts</name>
<URL>http://webfonts.fonts.com</URL>
<role>Home of the Web fonts</role>
</credits>
<license>
<URL>http://webfonts.fonts.com/Legal</URL>
</license>
<copyright><![CDATA[Copyright © 2007 Linotype GmbH, www.linotype.com. All rights reserved. This font software may not be reproduced, modified, disclosed or transferred without the express written approval of Linotype GmbH. Frutiger Next is a trademark of Linotype GmbH and may be registered in certain jurisdictions. This typeface is original artwork of Adrian Frutiger and Linotype Design Studio. The design may be protected in certain jurisdictions.]]></copyright>
<trademark><![CDATA[Frutiger Next is a trademark of Linotype GmbH and may be registered in certain jurisdictions.]]></trademark>
<licensee>
<name></name>
</licensee>
</metadata>
<defs >
<font horiz-adv-x="486" id="5338c78d-52a2-44c6-a583-03f06e786ae1">
<font-face font-family="" panose-1="2 11 9 6 4 2 4 2 2 3" ascent="905" descent="-279" units-per-em="1000" alphabetic="0">
</font-face>
<missing-glyph horiz-adv-x="250" />

<glyph unicode="&#xA;" />
<glyph unicode="&#xD;" horiz-adv-x="0" />
<glyph unicode=" " horiz-adv-x="250" />
<glyph unicode="!" horiz-adv-x="289" d="M75 0V160H214V0H75ZM87 230L68 667H221L203 230H87Z"  />
<glyph unicode="&quot;" horiz-adv-x="443" d="M55 459V667H177V459H55ZM267 459V667H389V459H267Z"  />
<glyph unicode="#" horiz-adv-x="501" d="M193 281H289L305 386H209L193 281ZM61 0L90 191H19V281H104L120 386H37V476H134L162 667H251L223 476H319L346 667H436L408 476H478V386H394L378 281H461V191H364L335 0H246L275 191H179L150 0H61Z"  />
<glyph unicode="$" horiz-adv-x="501" d="M209 -108V-11Q168 -9 124 -2T47 16L53 144Q91 123 131 113T201 103Q228 103 246 110T275 128T290 153T295 181Q295 200 289 214T273 238T250 255T220 271L159 300Q94 331 69 377T43 486Q43 524 56 555T91 610T145 649T215 672V774H290V677Q332 676 364 670T433 654L427 527Q399 541 363 552T295 563Q260 563 234 546T207 493Q207 463 223 447T272 416L328 390Q359 376 383 360T424 321T450 269T459 197Q459 158 447 125T411 65T355 20T284 -6V-108H209Z"  />
<glyph unicode="%" horiz-adv-x="820" d="M158 369Q166 335 191 335Q218 335 225 371T233 471Q233 534 226 570T191 607Q164 607 157 572T150 471Q150 404 158 369ZM596 93Q604 59 629 59Q656 59 663 95T670 195Q670 258 663 294T629 331Q602 331 595 296T588 195Q588 128 596 93ZM116 284Q88 303 73 333T54 399T49 471Q49 502 54 538T74 605T117 656T191 677Q239 677 267 658T310 608T329 541T334 471Q334 436 329 400T308 333T264 284T191 265Q144 265 116 284ZM220 -24L515 691H599L305 -24H220ZM554 8Q526 27 511 57T492 123T487 195Q487 226 492 262T512 329T555 380T629 401Q677 401 705 382T747 332T766 265T771 195Q771 160 766 124T746 57T702 8T629 -11Q582 -11 554 8Z"  />
<glyph unicode="&amp;" horiz-adv-x="577" d="M309 287Q286 287 266 281T229 264T204 235T194 195Q194 148 225 126T304 103Q325 103 345 109V287H309ZM487 17Q444 4 396 -3T303 -11Q253 -11 207 -3T125 26T68 83T46 178Q46 215 60 244T98 293T153 325T217 342Q146 350 105 386T64 497Q64 543 85 577T141 633T219 666T306 677Q344 677 379 672T451 655L443 531Q411 547 380 555T307 563Q289 563 272 557T242 541T220 515T211 482Q211 438 238 417T309 395H345V459H487V395H563V287H487V17Z"  />
<glyph unicode="&apos;" horiz-adv-x="250" d="M64 459V667H186V459H64Z"  />
<glyph unicode="(" horiz-adv-x="285" d="M176 -128Q152 -85 129 -41T87 55T57 165T45 297Q45 369 56 428T86 538T128 633T176 721H295Q274 687 253 642T215 543T187 426T176 297Q176 230 186 168T214 52T253 -48T295 -128H176Z"  />
<glyph unicode=")" horiz-adv-x="285" d="M-9 -128Q12 -94 33 -49T71 51T98 168T109 297Q109 364 99 426T71 542T33 642T-9 721H109Q133 678 156 634T198 539T228 429T240 297Q240 225 229 166T199 55T157 -40T109 -128H-9Z"  />
<glyph unicode="*" horiz-adv-x="395" d="M50 382L140 473L17 495L51 601L167 539L145 667H256L235 539L346 601L379 495L254 473L347 382L254 318L198 432L141 318L50 382Z"  />
<glyph unicode="+" horiz-adv-x="600" d="M37 203V318H242V521H359V318H564V203H359V0H242V203H37Z"  />
<glyph unicode="&#x2c;" horiz-adv-x="250" d="M11 -128L73 160H206L126 -128H11Z"  />
<glyph unicode="-" horiz-adv-x="317" d="M40 251V369H278V251H40Z"  />
<glyph unicode="." horiz-adv-x="250" d="M56 0V160H195V0H56Z"  />
<glyph unicode="/" horiz-adv-x="280" d="M2 0L179 667H278L100 0H2Z"  />
<glyph unicode="0" horiz-adv-x="501" d="M216 115Q230 99 251 99Q274 99 287 116T308 163T318 237T320 333Q320 385 318 428T309 502T288 550T251 567Q228 567 215 551T194 504T185 430T182 333Q182 278 185 235T195 161T216 115ZM136 21Q94 54 71 104T41 215T34 333Q34 384 42 444T73 556T139 642T251 677Q324 677 367 644T432 560T461 449T468 333Q468 276 460 215T429 104T363 21T251 -11Q179 -11 136 21Z"  />
<glyph unicode="1" horiz-adv-x="501" d="M212 0V487L125 405L54 515L243 667H366V0H212Z"  />
<glyph unicode="2" horiz-adv-x="501" d="M42 0V117L114 195Q143 227 173 262T228 332T268 402T284 469Q284 518 259 540T192 563Q159 563 125 553T63 527L57 642Q82 655 131 666T236 677Q279 677 316 666T381 632T424 572T440 485Q440 435 423 391T380 307T322 233T261 168L210 116H446V0H42Z"  />
<glyph unicode="3" horiz-adv-x="501" d="M43 137Q74 122 108 113T181 103Q203 103 222 108T257 124T281 152T290 194Q290 244 256 266T160 288H127V400H160Q185 400 208 404T249 419T277 446T288 488Q288 508 280 522T259 546T228 559T191 563Q156 563 123 555T59 532L53 647Q93 662 137 669T228 677Q269 677 307 669T375 640T423 587T441 503Q441 450 408 407T306 349Q329 346 354 336T399 307T433 258T447 187Q447 132 426 95T369 34T286 0T188 -11Q153 -11 111 -4T37 17L43 137Z"  />
<glyph unicode="4" horiz-adv-x="501" d="M124 239H273V516L124 239ZM25 127V269L246 667H414V239H481V127H414V0H267V127H25Z"  />
<glyph unicode="5" horiz-adv-x="501" d="M55 131Q88 117 120 111T179 105Q203 105 225 110T264 129T291 165T301 222Q301 281 265 305T173 330Q145 330 116 325T64 311L70 667H429V551H202L198 430Q212 433 224 434T251 435Q354 435 406 378T458 222Q458 163 437 120T380 47T297 4T199 -11Q167 -11 127 -6T48 14L55 131Z"  />
<glyph unicode="6" horiz-adv-x="501" d="M436 537Q407 551 380 557T323 563Q282 563 256 546T214 501T192 438T184 368Q203 394 232 410T294 427Q342 427 375 410T429 363T459 296T469 217Q469 164 454 122T410 51T342 5T257 -11Q188 -11 146 18T80 93T50 196T42 309Q42 370 54 435T96 554T178 642T310 677Q387 677 442 655L436 537ZM202 140Q209 123 221 111T254 99Q275 99 288 111T308 140T318 177T321 213Q321 229 319 247T309 280T288 306T255 317Q235 317 223 307T203 281T193 247T190 213Q190 197 192 178T202 140Z"  />
<glyph unicode="7" horiz-adv-x="501" d="M87 0L300 551H45V667H449V545L254 0H87Z"  />
<glyph unicode="8" horiz-adv-x="501" d="M276 279Q261 290 244 301Q218 282 198 255T178 184Q178 168 183 153T197 125T219 106T251 99Q285 99 304 125T324 183Q324 206 318 223T302 254T276 279ZM207 432Q228 410 258 396Q283 413 299 438T315 495Q315 524 299 545T251 567Q221 567 204 545T187 495Q187 455 207 432ZM108 319Q131 336 157 350Q102 373 75 411T48 506Q48 549 65 581T110 634T175 666T251 677Q290 677 327 667T392 635T437 581T454 506Q454 478 445 454T420 410T385 375T344 350Q368 339 391 325T432 289T461 240T472 175Q472 129 455 94T407 36T337 1T251 -11Q205 -11 165 1T94 36T47 95T30 176Q30 208 40 234T68 282T108 319Z"  />
<glyph unicode="9" horiz-adv-x="501" d="M70 131Q128 105 188 105Q228 105 254 122T294 168T315 231T321 300Q304 272 276 256T210 240Q161 240 128 257T73 304T43 373T34 454Q34 501 48 542T89 613T155 660T246 678Q312 678 354 650T421 575T455 473T464 360Q464 299 454 234T414 114T335 25T203 -10Q165 -10 132 -5T64 13L70 131ZM194 387Q202 371 215 361T248 350Q267 350 280 360T300 387T310 421T313 454Q313 470 311 489T301 526T281 556T248 568Q227 568 214 557T193 528T184 492T181 456Q181 440 184 422T194 387Z"  />
<glyph unicode=":" horiz-adv-x="250" d="M56 0V160H195V0H56ZM56 349V510H195V349H56Z"  />
<glyph unicode=";" horiz-adv-x="250" d="M11 -128L73 160H206L126 -128H11ZM55 349V510H194V349H55Z"  />
<glyph unicode="&lt;" horiz-adv-x="600" d="M37 200V321L564 529V406L170 260L564 115V-8L37 200Z"  />
<glyph unicode="=" horiz-adv-x="600" d="M37 92V207H564V92H37ZM37 313V429H564V313H37Z"  />
<glyph unicode="&gt;" horiz-adv-x="600" d="M36 -8V115L430 260L36 406V529L563 321V200L36 -8Z"  />
<glyph unicode="?" horiz-adv-x="416" d="M128 230V258Q128 297 144 324T181 374T218 421T235 479Q235 517 211 537T142 557Q96 557 71 546T31 527L25 649Q34 652 49 657T85 666T129 674T181 677Q225 677 264 668T332 638T378 586T395 507Q395 475 385 449T360 400T327 358T294 320T269 285T259 249V230H128ZM124 0V160H263V0H124Z"  />
<glyph unicode="@" horiz-adv-x="930" d="M720 -188Q663 -208 610 -217T490 -226Q387 -226 304 -195T163 -106T74 36T43 225Q43 327 73 418T161 579T303 690T495 731Q588 731 661 701T785 619T861 495T888 341Q888 266 869 202T816 90T739 16T644 -11Q596 -11 564 12T522 85Q496 32 463 11T385 -11Q355 -11 330 1T285 36T255 92T244 170Q244 236 262 298T317 408T407 486T533 515Q572 515 610 509T696 486L627 172Q625 161 624 150T622 131Q622 109 631 96T663 82Q684 82 703 99T738 149T763 226T773 329Q773 470 702 550T491 630Q413 630 352 597T250 509T188 380T166 225Q166 144 187 79T250 -31T354 -101T498 -125Q553 -125 604 -116T712 -83L720 -188ZM534 330Q542 366 550 402Q537 407 517 407Q486 407 461 383T419 324T392 249T382 174Q382 131 396 115T427 99Q440 99 452 107T476 135T498 184T519 259Q527 295 534 330Z"  />
<glyph unicode="A" horiz-adv-x="611" d="M231 261H373L301 537L231 261ZM9 0L215 667H397L603 0H438L400 150H206L169 0H9Z"  />
<glyph unicode="B" horiz-adv-x="561" d="M226 112H277Q317 112 341 133T365 199Q365 241 341 263T278 286H226V112ZM226 393H269Q309 393 331 415T354 478Q354 518 330 536T269 555H226V393ZM71 0V667H315Q352 667 387 656T449 624T492 572T508 501Q508 469 498 444T472 398T434 365T388 346Q413 341 436 330T479 299T509 252T521 189Q521 145 505 110T461 51T396 13T317 0H71Z"  />
<glyph unicode="C" horiz-adv-x="540" d="M506 12Q479 1 447 -5T373 -11Q297 -11 236 13T133 83T68 191T45 333Q45 422 73 487T147 594T250 656T364 677Q412 677 446 670T502 651L496 524Q476 538 448 546T384 554Q346 554 315 539T260 495T223 425T210 333Q210 282 223 242T259 172T315 128T388 112Q420 112 448 119T500 139L506 12Z"  />
<glyph unicode="D" horiz-adv-x="632" d="M71 0V667H277Q355 667 413 644T510 577T568 474T588 338Q588 267 568 206T509 99T413 27T282 0H71ZM230 121H268Q312 121 342 139T390 187T415 257T423 338Q423 380 416 418T391 484T342 529T264 546H230V121Z"  />
<glyph unicode="E" horiz-adv-x="506" d="M71 0V667H454V546H228V403H438V283H228V121H463V0H71Z"  />
<glyph unicode="F" horiz-adv-x="480" d="M71 0V667H443V546H230V396H433V277H230V0H71Z"  />
<glyph unicode="G" horiz-adv-x="615" d="M563 24Q517 4 459 -3T351 -11Q273 -11 216 14T120 84T64 192T45 333Q45 409 68 472T135 580T241 651T380 677Q436 677 474 669T545 649L539 521Q523 529 508 536T475 548T438 556T392 559Q346 559 312 541T256 493T222 421T210 333Q210 291 218 251T244 178T293 127T369 107Q396 107 417 117V271H340V383H563V24Z"  />
<glyph unicode="H" horiz-adv-x="610" d="M70 0V667H229V405H380V667H540V0H380V280H229V0H70Z"  />
<glyph unicode="I" horiz-adv-x="300" d="M71 0V667H230V0H71Z"  />
<glyph unicode="J" horiz-adv-x="356" d="M13 133Q28 128 41 124T67 120Q89 120 102 127T122 148T131 178T133 214V667H293V219Q293 171 285 129T254 56T196 7T104 -11Q81 -11 56 -6T7 8L13 133Z"  />
<glyph unicode="K" horiz-adv-x="588" d="M71 0V667H230V387L385 667H566L367 356L584 0H393L230 307V0H71Z"  />
<glyph unicode="L" horiz-adv-x="457" d="M71 0V667H230V125H438V0H71Z"  />
<glyph unicode="M" horiz-adv-x="809" d="M71 0V667H299L401 223L510 667H739V0H585V528L453 0H338L206 528V0H71Z"  />
<glyph unicode="N" horiz-adv-x="645" d="M71 0V667H275L440 181V667H575V0H370L206 485V0H71Z"  />
<glyph unicode="O" horiz-adv-x="642" d="M232 173Q244 141 265 122T320 103Q358 103 380 125T413 182T428 256T432 333Q432 370 429 410T415 485T381 541T320 563Q284 563 263 541T229 484T214 410T210 333Q210 288 215 247T232 173ZM190 18Q138 47 106 95T60 205T45 333Q45 397 61 459T110 569T196 647T320 677Q397 677 450 648T535 570T582 460T597 333Q597 267 581 205T531 95T445 18T320 -11Q243 -11 190 18Z"  />
<glyph unicode="P" horiz-adv-x="540" d="M227 359H267Q313 359 334 386T356 455Q356 500 332 525T263 551H227V359ZM71 0V667H288Q338 667 380 654T452 614T500 547T517 455Q517 402 500 362T452 296T379 256T287 242H228V0H71Z"  />
<glyph unicode="Q" horiz-adv-x="642" d="M232 173Q244 141 265 122T320 103Q358 103 380 125T413 182T428 256T432 333Q432 370 429 410T415 485T381 541T320 563Q284 563 263 541T229 484T214 410T210 333Q210 288 215 247T232 173ZM422 -128L336 -10Q332 -11 328 -11Q324 -11 320 -11Q243 -11 191 18T106 95T60 205T45 333Q45 397 61 459T110 569T196 647T320 677Q397 677 450 648T535 570T582 460T597 333Q597 286 590 241T566 156T524 83T463 28L598 -128H422Z"  />
<glyph unicode="R" horiz-adv-x="573" d="M227 384H271Q314 384 337 406T361 469Q361 512 337 531T270 551H227V384ZM71 0V667H316Q356 667 393 657T459 625T505 572T522 496Q522 430 488 388T389 332Q425 322 445 299T480 227L550 0H381L328 195Q317 236 301 251T260 267H228V0H71Z"  />
<glyph unicode="S" horiz-adv-x="500" d="M54 144Q92 123 130 113T198 103Q253 103 274 127T296 184Q296 202 289 215T269 240T242 260T211 277L169 297Q137 312 114 329T75 368T52 417T44 479Q44 527 63 564T115 626T189 664T279 677Q323 677 363 671T434 654L428 527Q399 543 364 553T296 563Q261 563 235 546T208 493Q208 463 227 445T279 413L320 395Q351 381 377 364T421 324T450 270T460 197Q460 151 442 113T392 47T315 4T216 -11Q173 -11 130 -5T48 16L54 144Z"  />
<glyph unicode="T" horiz-adv-x="468" d="M155 0V542H13V667H455V542H314V0H155Z"  />
<glyph unicode="U" horiz-adv-x="603" d="M224 216Q224 195 226 175T237 140T261 116T301 107Q325 107 340 116T364 140T376 175T380 216V667H539V243Q539 185 524 138T480 58T406 7T301 -11Q177 -11 121 55T64 243V667H224V216Z"  />
<glyph unicode="V" horiz-adv-x="570" d="M196 0L7 667H180L290 177L396 667H563L375 0H196Z"  />
<glyph unicode="W" horiz-adv-x="830" d="M150 0L17 667H177L251 185L332 667H512L591 185L667 667H814L680 0H495L419 511L335 0H150Z"  />
<glyph unicode="X" horiz-adv-x="567" d="M8 0L185 354L22 667H201L287 465L369 667H541L379 354L559 0H380L280 241L177 0H8Z"  />
<glyph unicode="Y" horiz-adv-x="537" d="M189 0V254L-4 667H180L275 402L363 667H541L348 254V0H189Z"  />
<glyph unicode="Z" horiz-adv-x="495" d="M31 0V123L288 546H39V667H461V544L208 121H464V0H31Z"  />
<glyph unicode="[" horiz-adv-x="285" d="M69 -128V721H277V622H188V-28H277V-128H69Z"  />
<glyph unicode="\" horiz-adv-x="280" d="M180 0L2 667H101L278 0H180Z"  />
<glyph unicode="]" horiz-adv-x="285" d="M9 -128V-28H98V622H9V721H216V-128H9Z"  />
<glyph unicode="^" horiz-adv-x="600" d="M69 236L247 667H354L532 236H407L300 528L194 236H69Z"  />
<glyph unicode="_" horiz-adv-x="500" d="M0 -125V-75H500V-125H0Z"  />
<glyph unicode="`" horiz-adv-x="265" d="M95 581L4 717H111L184 581H95Z"  />
<glyph unicode="a" horiz-adv-x="511" d="M321 0L318 63Q297 24 262 7T179 -11Q110 -11 69 30T28 144Q28 196 51 229T110 281T190 307T277 314H312V332Q312 367 293 390T225 414Q193 414 156 406T84 377L78 482Q115 496 159 505T255 515Q312 515 351 501T413 461T446 400T456 322V111Q456 73 457 48T460 0H321ZM295 237Q268 237 245 233T206 220T180 194T171 153Q171 123 187 106T233 88Q257 88 272 99T296 127T308 166T312 207V237H295Z"  />
<glyph unicode="b" horiz-adv-x="548" d="M243 113Q258 96 284 96Q308 96 323 114T345 157T355 209T358 254Q358 272 356 298T346 348T323 390T284 407Q259 407 244 391T221 350T211 300T208 254Q208 234 210 207T220 155T243 113ZM56 0V721H208V430Q229 471 262 493T345 515Q397 515 430 490T483 427T509 343T517 255Q517 214 508 168T479 82T424 16T340 -11Q292 -11 257 9T201 74L199 0H56Z"  />
<glyph unicode="c" horiz-adv-x="422" d="M396 9Q347 -11 277 -11Q213 -11 167 9T91 66T47 150T32 255Q32 313 51 360T103 442T183 496T286 515Q348 515 394 498L388 383Q369 391 353 395T308 399Q278 399 256 387T220 355T198 308T191 255Q191 228 198 201T219 153T256 119T309 105Q332 105 351 109T390 123L396 9Z"  />
<glyph unicode="d" horiz-adv-x="548" d="M226 114Q241 96 265 96Q291 96 306 113T328 155T338 207T340 254Q340 273 338 299T327 350T304 390T264 407Q240 407 226 390T204 349T194 298T191 254Q191 236 193 209T203 157T226 114ZM350 0L347 75Q308 -11 208 -11Q157 -11 123 15T69 81T40 167T32 255Q32 297 40 343T68 427T122 490T207 515Q256 515 288 493T341 430V721H493V108Q493 79 493 54T496 0H350Z"  />
<glyph unicode="e" horiz-adv-x="489" d="M179 216Q179 190 186 167T210 127T251 99T311 88Q345 88 376 96T433 120L439 17Q377 -11 295 -11Q229 -11 180 8T98 61T49 145T32 255Q32 306 47 353T90 436T161 493T258 515Q318 515 357 493T419 435T451 353T460 258V216H179ZM322 294Q322 314 320 336T312 377T293 408T258 420Q238 420 224 410T200 382T185 341T179 294H322Z"  />
<glyph unicode="f" horiz-adv-x="346" d="M94 0V394H12V505H94V570Q94 614 106 645T138 695T187 722T247 731Q288 731 312 726T349 719L343 615Q325 623 304 623Q246 623 246 551V505H337V394H246V0H94Z"  />
<glyph unicode="g" horiz-adv-x="548" d="M225 123Q240 107 265 107Q291 107 306 123T328 162T338 210T340 256Q340 275 338 301T327 351T305 391T265 408Q241 408 226 391T204 350T194 299T191 255Q191 236 193 211T203 162T225 123ZM63 -76Q99 -95 138 -106T219 -118Q261 -118 285 -104T322 -67T337 -15T341 47V83Q326 50 296 25T210 0Q159 0 125 24T71 85T41 167T32 255Q32 298 40 344T69 428T122 490T205 515Q259 515 292 492T344 430V505H493V51Q493 -15 480 -67T436 -154T358 -207T239 -226Q192 -226 147 -218T57 -196L63 -76Z"  />
<glyph unicode="h" horiz-adv-x="536" d="M56 0V721H208V429Q215 448 228 464T258 491T295 508T336 515Q376 515 403 502T448 467T472 413T480 345V0H328V328Q328 357 316 380T271 403Q251 403 239 393T220 366T211 332T208 299V0H56Z"  />
<glyph unicode="i" horiz-adv-x="263" d="M56 586V713H209V586H56ZM56 0V505H208V0H56Z"  />
<glyph unicode="j" horiz-adv-x="265" d="M57 586V713H210V586H57ZM-20 -109Q-9 -114 7 -114Q23 -114 33 -108T48 -91T56 -68T58 -42V505H210V-40Q210 -78 203 -112T179 -171T134 -211T65 -226Q45 -226 19 -223T-26 -212L-20 -109Z"  />
<glyph unicode="k" horiz-adv-x="501" d="M56 0V721H208V303L321 505H485L341 278L497 0H329L208 247V0H56Z"  />
<glyph unicode="l" horiz-adv-x="263" d="M56 0V721H208V0H56Z"  />
<glyph unicode="m" horiz-adv-x="795" d="M56 0V399Q56 452 53 505H191L196 429Q217 471 251 493T333 515Q381 515 414 492T461 429Q507 515 595 515Q634 515 661 501T706 463T731 406T739 336V0H589V323Q589 337 587 351T579 377T563 396T534 403Q518 403 506 395T487 373T476 345T472 315V0H323V323Q323 337 321 351T313 377T297 396T268 403Q251 403 240 395T221 373T211 345T207 315V0H56Z"  />
<glyph unicode="n" horiz-adv-x="538" d="M56 0V399Q56 451 53 505H191L195 429Q215 471 250 493T334 515Q375 515 403 501T449 463T475 405T483 334V0H331V323Q331 338 329 352T319 378T301 396T273 403Q255 403 243 395T223 374T212 346T208 315V0H56Z"  />
<glyph unicode="o" horiz-adv-x="533" d="M227 114Q242 97 267 97Q292 97 307 115T329 158T339 210T342 255Q342 274 340 300T331 351T308 391T267 408Q242 408 227 391T204 350T194 300T191 255Q191 235 193 208T204 156T227 114ZM163 9Q119 30 90 66T47 150T32 255Q32 308 48 355T94 437T168 494T267 515Q326 515 370 495T443 441T486 358T501 255Q501 201 486 153T442 69T369 11T267 -11Q208 -11 163 9Z"  />
<glyph unicode="p" horiz-adv-x="548" d="M243 113Q258 96 284 96Q308 96 323 114T345 157T355 209T358 254Q358 272 356 298T346 348T324 390T285 407Q260 407 245 391T222 351T211 301T208 254Q208 234 210 207T220 155T243 113ZM56 -216V399Q56 428 56 452T53 505H200L202 429Q224 468 257 491T336 515Q390 515 425 491T480 429T509 345T517 255Q517 214 508 168T479 82T425 16T341 -11Q291 -11 260 10T208 73V-216H56Z"  />
<glyph unicode="q" horiz-adv-x="548" d="M226 115Q241 97 265 97Q291 97 306 114T328 156T338 208T340 255Q340 275 338 301T327 351T304 391T264 408Q240 408 226 391T204 350T194 299T191 255Q191 237 193 210T203 158T226 115ZM341 -216V73Q321 32 288 11T208 -11Q156 -11 122 15T68 81T40 167T32 255Q32 299 40 345T70 429T125 491T213 515Q259 515 291 493T346 430V505H493V-216H341Z"  />
<glyph unicode="r" horiz-adv-x="365" d="M56 0V399Q56 451 53 505H191L194 417Q215 462 248 488T332 515Q338 515 344 515T356 513L350 375Q339 377 329 379T307 381Q275 381 256 366T226 327T212 277T208 224V0H56Z"  />
<glyph unicode="s" horiz-adv-x="428" d="M43 135Q78 115 114 106T186 97Q213 97 228 108T244 142Q244 160 229 173T192 197T144 222T95 253T58 298T43 363Q43 407 62 436T112 482T179 507T248 515Q277 515 309 510T374 494L368 380Q339 394 312 401T249 409Q229 409 211 402T192 370Q192 351 207 339T244 316T293 294T341 265T379 223T394 158Q394 113 377 81T333 28T269 -1T195 -11Q156 -11 115 -4T33 17L43 135Z"  />
<glyph unicode="t" horiz-adv-x="364" d="M345 8Q322 -2 292 -6T237 -11Q162 -11 127 28T92 140V394H20V505H96V605L244 653V505H338V394H244V162Q244 132 252 117T293 101Q316 101 339 111L345 8Z"  />
<glyph unicode="u" horiz-adv-x="534" d="M344 0L340 75Q320 33 286 12T202 -10Q161 -10 133 4T88 43T62 101T54 172V505H206V182Q206 167 208 153T217 127T235 109T263 102Q281 102 293 110T312 131T323 159T327 190V505H479V107Q479 54 482 0H344Z"  />
<glyph unicode="v" horiz-adv-x="489" d="M155 0L2 505H165L249 137L335 505H487L335 0H155Z"  />
<glyph unicode="w" horiz-adv-x="757" d="M136 0L4 505H159L226 140L298 505H467L541 140L606 505H753L621 0H456L379 373L301 0H136Z"  />
<glyph unicode="x" horiz-adv-x="492" d="M3 0L156 259L16 505H187L253 357L317 505H477L336 258L490 0H318L244 167L166 0H3Z"  />
<glyph unicode="y" horiz-adv-x="490" d="M47 -103Q58 -108 70 -111T94 -114Q127 -114 143 -96T167 -46L181 4L1 505H168L256 171L334 505H487L311 -42Q296 -88 280 -122T241 -180T191 -214T126 -226Q106 -226 84 -222T41 -210L47 -103Z"  />
<glyph unicode="z" horiz-adv-x="414" d="M27 0V119L228 394H34V505H384V385L182 111H388V0H27Z"  />
<glyph unicode="{" horiz-adv-x="319" d="M241 -128Q214 -128 189 -120T144 -97T112 -57T100 1V162Q100 190 92 208T72 236T46 251T19 256V339Q32 339 46 343T72 357T92 383T100 426V592Q100 626 112 650T145 690T190 713T241 721H315V644H271Q239 644 232 626T224 574V414Q224 380 213 358T185 323T149 304T115 297Q130 296 149 292T184 274T212 237T224 174V19Q224 -14 231 -31T271 -49H315V-128H241Z"  />
<glyph unicode="|" horiz-adv-x="210" d="M53 -216V776H157V-216H53Z"  />
<glyph unicode="}" horiz-adv-x="319" d="M7 -128V-49H50Q82 -49 90 -32T98 19V174Q98 213 109 237T137 274T173 291T207 297Q192 298 173 303T138 322T110 358T98 414V574Q98 607 90 625T50 644H7V721H80Q106 721 131 714T176 690T208 650T221 592V426Q221 400 229 384T249 357T275 343T302 339V256Q289 256 275 252T249 237T229 208T221 162V1Q221 -32 209 -56T178 -96T133 -120T80 -128H7Z"  />
<glyph unicode="~" horiz-adv-x="600" d="M26 171Q27 201 36 233T64 291T107 335T168 352Q201 352 235 342T303 320T371 297T434 287Q465 287 479 307T498 353H574Q572 323 564 291T538 231T496 187T435 169Q402 169 368 179T299 202T231 224T168 235Q139 235 123 216T103 171H26Z"  />
<glyph unicode="&#xA0;" horiz-adv-x="250" />
<glyph unicode="&#xA1;" horiz-adv-x="289" d="M68 -162L87 275H203L221 -162H68ZM75 345V505H214V345H75Z"  />
<glyph unicode="&#xA2;" horiz-adv-x="501" d="M247 0V94Q204 101 172 122T118 175T85 249T74 337Q74 431 119 494T247 573V667H310V578Q336 577 360 570T409 555L403 449Q385 457 365 463T324 469Q298 469 279 458T247 428T227 386T220 337Q220 312 225 288T243 244T276 212T327 199Q349 199 368 205T408 220L414 113Q387 105 363 99T310 91V0H247Z"  />
<glyph unicode="&#xA3;" horiz-adv-x="501" d="M50 0V104H118V292H56V392H118V464Q118 518 134 558T181 624T253 664T346 677Q377 677 409 671T470 652L464 545Q442 554 418 561T370 568Q349 568 330 561T296 539T273 505T264 460V392H402V292H264V104H464V0H50Z"  />
<glyph unicode="&#xA4;" horiz-adv-x="501" d="M185 252Q198 236 215 227T251 218Q270 218 287 227T317 252T337 288T345 333Q345 357 338 377T318 414T288 439T251 448Q231 448 215 439T186 415T166 378T159 333Q159 309 166 289T185 252ZM88 81L25 152L83 218Q68 246 61 273T53 333Q53 365 60 393T83 449L24 515L88 587L148 520Q173 537 197 545T251 554Q281 554 305 546T356 521L414 586L478 514L420 450Q434 423 442 394T450 333Q450 272 419 218L479 152L415 80L355 147Q331 130 306 121T252 112Q223 112 198 120T147 146L88 81Z"  />
<glyph unicode="&#xA5;" horiz-adv-x="501" d="M47 106V204H183V276H47V374H139L15 667H158L257 410L349 667H487L362 374H458V276H317V204H458V106H317V0H183V106H47Z"  />
<glyph unicode="&#xA6;" horiz-adv-x="210" d="M53 -216V181H157V-216H53ZM53 379V775H157V379H53Z"  />
<glyph unicode="&#xA7;" horiz-adv-x="501" d="M67 22Q100 5 137 -7T212 -20Q244 -20 265 -5T286 34Q286 58 268 74T221 105L157 139Q136 150 117 164T82 196T58 235T48 282Q48 307 57 329T80 369T108 398T134 411Q98 437 83 464T68 530Q68 554 79 579T115 627T176 663T264 677Q288 677 311 674T355 667T390 659T413 651L407 540Q374 554 343 563T279 573Q269 573 258 571T238 562T222 547T216 525Q216 504 231 491T270 464L331 429Q387 397 417 364T448 277Q448 251 441 231T422 195T398 167T374 145Q397 131 414 101T432 35Q432 8 421 -20T386 -72T323 -109T227 -124Q184 -124 142 -113T61 -88L67 22ZM295 193Q309 207 315 224T321 258Q321 279 307 298T269 332L206 373Q195 362 185 344T175 311Q175 287 189 269T225 237L295 193Z"  />
<glyph unicode="&#xA8;" horiz-adv-x="263" d="M-3 584V712H101V584H-3ZM163 584V712H267V584H163Z"  />
<glyph unicode="&#xA9;" horiz-adv-x="778" d="M515 178Q470 164 422 164Q378 164 341 174T277 206T235 260T220 334Q220 374 236 405T279 459T344 492T422 504Q445 504 468 501T514 492L511 421Q477 434 441 434Q390 434 359 408T327 334Q327 286 357 260T439 234Q458 234 476 238T512 249L515 178ZM205 145Q240 108 287 87T389 65Q443 65 490 86T573 145T628 231T648 334Q648 388 628 436T573 521T491 579T389 601Q335 601 288 580T205 523T150 438T130 334Q130 280 150 231T205 145ZM255 16Q192 43 146 90T72 200T45 334Q45 405 72 467T145 576T255 650T389 677Q460 677 523 650T632 577T706 468T733 334Q733 263 706 200T633 90T523 16T389 -11Q318 -11 255 16Z"  />
<glyph unicode="&#xAA;" horiz-adv-x="350" d="M208 366L206 407Q191 381 171 370T120 359Q74 359 48 384T22 451Q22 481 37 501T75 533T127 551T183 557H206V566Q206 586 194 599T153 613Q133 613 108 607T59 588L55 659Q79 666 109 671T172 677Q211 677 236 669T277 645T298 607T304 557V433Q304 410 304 395T306 366H208ZM195 508Q166 508 143 498T119 460Q119 443 128 433T157 423Q172 423 181 429T196 446T204 469T206 493V508H195Z"  />
<glyph unicode="&#xAB;" horiz-adv-x="480" d="M142 55L31 260L141 465H263L160 260L263 55H142ZM337 55L226 260L336 465H459L355 260L459 55H337Z"  />
<glyph unicode="&#xAC;" horiz-adv-x="600" d="M37 313V429H564V92H444V313H37Z"  />
<glyph unicode="&#xAD;" horiz-adv-x="317" d="M40 251V369H278V251H40Z"  />
<glyph unicode="&#xAE;" horiz-adv-x="778" d="M339 362H374Q386 362 398 363T419 370T435 383T441 406Q441 431 421 438T375 445H339V362ZM238 175V506H416Q440 506 463 502T504 488T533 460T544 417Q544 381 520 360T460 333Q487 328 501 316T523 280L560 175H453L425 259Q421 270 418 278T408 291T393 298T370 301H341V175H238ZM205 145Q240 108 287 87T389 65Q443 65 490 86T573 145T628 231T648 334Q648 388 628 436T573 521T491 579T389 601Q335 601 288 580T205 523T150 438T130 334Q130 280 150 231T205 145ZM255 16Q192 43 146 90T72 200T45 334Q45 405 72 467T145 576T255 650T389 677Q460 677 523 650T632 577T706 468T733 334Q733 263 706 200T633 90T523 16T389 -11Q318 -11 255 16Z"  />
<glyph unicode="&#xAF;" horiz-adv-x="263" d="M-9 608V690H273V608H-9Z"  />
<glyph unicode="&#xB0;" horiz-adv-x="400" d="M122 526Q122 494 145 472T201 449Q233 449 256 471T279 526Q279 558 256 581T201 605Q169 605 146 582T122 526ZM93 420Q73 440 61 467T49 526Q49 557 61 584T93 632T141 665T201 677Q232 677 260 665T308 633T340 585T352 526Q352 494 340 467T308 420T260 389T201 377Q169 377 142 388T93 420Z"  />
<glyph unicode="&#xB1;" horiz-adv-x="600" d="M37 -34V81H564V-34H37ZM37 278V393H242V555H359V393H564V278H359V122H242V278H37Z"  />
<glyph unicode="&#xB2;" horiz-adv-x="360" d="M44 372V447L101 504Q143 546 171 583T199 654Q199 680 183 693T140 707Q120 707 100 702T57 687L53 759Q70 764 99 772T177 780Q232 780 268 750T304 665Q304 633 292 605T264 553T230 511T200 482L159 446H307V372H44Z"  />
<glyph unicode="&#xB3;" horiz-adv-x="360" d="M46 456Q72 446 92 442T134 438Q164 438 183 451T202 489Q202 518 181 530T120 543H100V615H120Q153 615 176 624T200 663Q200 686 183 696T141 707Q114 707 95 703T55 690L52 763Q81 771 107 775T173 780Q199 780 223 774T265 755T293 721T304 671Q304 642 284 617T220 582Q233 580 248 574T277 557T298 529T307 486Q307 463 299 441T270 402T218 375T140 365Q128 365 114 366T87 370T61 374T42 380L46 456Z"  />
<glyph unicode="&#xB4;" horiz-adv-x="263" d="M52 581L125 717H232L140 581H52Z"  />
<glyph unicode="&#xB5;" horiz-adv-x="501" d="M38 -216V505H190V181Q190 166 192 152T201 127T219 109T247 102Q265 102 277 110T296 131T307 159T311 190V506H463V109Q463 82 464 55T467 1H328L325 87Q319 73 311 56T290 24T263 -1T230 -11Q213 -11 200 -3T178 19V-216H38Z"  />
<glyph unicode="&#xB6;" horiz-adv-x="600" d="M212 -108V322Q176 322 145 333T91 367T55 421T42 495Q42 542 59 575T107 628T179 658T271 667H514V-108H412V590H313V-108H212Z"  />
<glyph unicode="&#xB7;" horiz-adv-x="250" d="M56 230V391H195V230H56Z"  />
<glyph unicode="&#xB8;" horiz-adv-x="263" d="M41 -149Q57 -156 73 -160T109 -164Q130 -164 144 -155T158 -127Q158 -113 146 -103T117 -93Q97 -93 81 -100L61 -74L117 0H168L127 -54Q135 -52 142 -51T160 -50Q195 -50 218 -70T241 -125Q241 -147 231 -163T204 -191T167 -207T125 -213Q90 -213 68 -209T23 -194L41 -149Z"  />
<glyph unicode="&#xB9;" horiz-adv-x="360" d="M153 372V659L94 611L46 680L176 774H257V372H153Z"  />
<glyph unicode="&#xBA;" horiz-adv-x="350" d="M107 371Q79 383 60 405T31 456T21 520Q21 552 31 580T62 630T110 664T175 677Q213 677 242 665T290 632T319 583T329 520Q329 487 319 458T290 407T241 372T175 359Q136 359 107 371ZM150 439Q160 429 175 429Q190 429 199 439T213 464T219 493T221 520Q221 531 220 546T215 575T201 598T175 608Q159 608 150 598T137 574T131 545T129 520Q129 509 130 493T136 463T150 439Z"  />
<glyph unicode="&#xBB;" horiz-adv-x="480" d="M22 55L125 260L21 465H143L254 260L143 55H22ZM217 55L320 260L216 465H339L449 260L339 55H217Z"  />
<glyph unicode="&#xBC;" horiz-adv-x="820" d="M200 -24L495 691H579L284 -24H200ZM437 75V165L580 402H692V146H736V75H692V0H593V75H437ZM505 146H598V306L505 146ZM166 269V556L107 508L59 577L189 671H270V269H166Z"  />
<glyph unicode="&#xBD;" horiz-adv-x="820" d="M178 -24L473 691H557L262 -24H178ZM143 269V556L84 508L36 577L166 671H247V269H143ZM467 0V75L524 132Q566 174 594 211T622 282Q622 308 606 321T563 335Q543 335 523 330T480 315L476 387Q493 392 522 400T600 408Q655 408 691 378T727 293Q727 261 715 233T687 181T653 139T623 110L582 74H730V0H467Z"  />
<glyph unicode="&#xBE;" horiz-adv-x="820" d="M229 -24L524 691H608L314 -24H229ZM64 353Q90 343 110 339T152 335Q182 335 201 348T220 386Q220 415 199 427T138 440H118V512H138Q171 512 194 521T218 560Q218 583 201 593T159 604Q132 604 113 600T73 587L70 660Q99 668 125 672T191 677Q217 677 241 671T283 652T311 618T322 568Q322 539 302 514T238 479Q251 477 266 471T295 454T316 426T325 383Q325 360 317 338T288 299T236 272T158 262Q146 262 132 263T105 267T79 271T60 277L64 353ZM467 75V165L610 402H722V146H766V75H722V0H623V75H467ZM535 146H628V306L535 146Z"  />
<glyph unicode="&#xBF;" horiz-adv-x="416" d="M153 345V505H293V345H153ZM392 -144Q383 -147 368 -152T332 -161T288 -169T236 -172Q192 -172 153 -163T84 -133T38 -80T21 -1Q21 47 42 82T89 147T136 203T158 256V275H288V247Q288 208 272 181T235 131T199 84T182 26Q182 -12 206 -32T274 -52Q319 -52 345 -41T386 -22L392 -144Z"  />
<glyph unicode="&#xC0;" horiz-adv-x="611" d="M231 261H373L301 537L231 261ZM9 0L215 667H397L603 0H438L400 150H206L169 0H9ZM276 724L185 860H292L365 724H276Z"  />
<glyph unicode="&#xC1;" horiz-adv-x="611" d="M231 261H373L301 537L231 261ZM9 0L215 667H397L603 0H438L400 150H206L169 0H9ZM251 724L324 860H431L339 724H251Z"  />
<glyph unicode="&#xC2;" horiz-adv-x="611" d="M231 261H373L301 537L231 261ZM9 0L215 667H397L603 0H438L400 150H206L169 0H9ZM164 724L256 860H356L448 724H351L306 803L261 724H164Z"  />
<glyph unicode="&#xC3;" horiz-adv-x="611" d="M231 261H373L301 537L231 261ZM9 0L215 667H397L603 0H438L400 150H206L169 0H9ZM156 725Q157 744 162 767T179 811T206 845T247 859Q265 859 280 853T310 838T337 823T360 816Q367 816 371 820T379 832T383 846T384 858H456Q456 838 451 815T436 771T408 738T366 724Q349 724 334 730T304 745T277 760T254 767Q248 767 243 763T235 752T230 738T228 725H156Z"  />
<glyph unicode="&#xC4;" horiz-adv-x="611" d="M231 261H373L301 537L231 261ZM9 0L215 667H397L603 0H438L400 150H206L169 0H9ZM337 727V855H441V727H337ZM171 727V855H275V727H171Z"  />
<glyph unicode="&#xC5;" horiz-adv-x="611" d="M231 261H373L301 537L231 261ZM9 0L215 667H397L603 0H438L400 150H206L169 0H9ZM233 720Q203 749 203 792Q203 813 211 832T233 864T266 886T306 894Q327 894 345 886T378 865T401 832T409 792Q409 749 379 720T306 691Q263 691 233 720ZM255 792Q255 770 269 756T306 741Q327 741 342 755T357 792Q357 813 343 828T306 843Q285 843 270 828T255 792Z"  />
<glyph unicode="&#xC6;" horiz-adv-x="820" d="M268 260H397V562L268 260ZM-5 0L292 667H768V546H552V403H753V283H552V121H777V0H397V148H225L163 0H-5Z"  />
<glyph unicode="&#xC7;" horiz-adv-x="540" d="M229 -148Q235 -151 251 -157T297 -164Q318 -164 332 -156T346 -124Q346 -110 334 -102T305 -93Q291 -93 283 -95T269 -100L250 -76L299 -8Q240 -1 193 26T113 98T63 202T45 333Q45 422 72 487T142 594T237 656T338 677Q407 677 446 664T502 645L496 516Q479 528 451 541T374 554Q338 554 308 539T256 495T222 425T210 333Q210 282 221 242T254 172T306 128T372 112Q401 112 422 117T459 128T485 140T500 148L506 12Q483 5 447 -2T350 -11L315 -54Q330 -49 349 -49Q384 -49 406 -69T429 -125Q429 -147 419 -163T392 -191T355 -207T313 -213Q278 -213 249 -206T211 -193L229 -148Z"  />
<glyph unicode="&#xC8;" horiz-adv-x="506" d="M71 0V667H454V546H228V403H438V283H228V121H463V0H71ZM233 724L142 860H249L322 724H233Z"  />
<glyph unicode="&#xC9;" horiz-adv-x="506" d="M71 0V667H454V546H228V403H438V283H228V121H463V0H71ZM202 724L275 860H382L290 724H202Z"  />
<glyph unicode="&#xCA;" horiz-adv-x="506" d="M71 0V667H454V546H228V403H438V283H228V121H463V0H71ZM120 724L212 860H312L404 724H307L262 803L217 724H120Z"  />
<glyph unicode="&#xCB;" horiz-adv-x="506" d="M71 0V667H454V546H228V403H438V283H228V121H463V0H71ZM293 727V855H397V727H293ZM127 727V855H231V727H127Z"  />
<glyph unicode="&#xCC;" horiz-adv-x="300" d="M71 0V667H230V0H71ZM111 724L20 860H127L200 724H111Z"  />
<glyph unicode="&#xCD;" horiz-adv-x="300" d="M71 0V667H230V0H71ZM100 724L173 860H280L188 724H100Z"  />
<glyph unicode="&#xCE;" horiz-adv-x="300" d="M71 0V667H230V0H71ZM9 724L101 860H201L293 724H196L151 803L106 724H9Z"  />
<glyph unicode="&#xCF;" horiz-adv-x="300" d="M71 0V667H230V0H71ZM182 727V855H286V727H182ZM16 727V855H120V727H16Z"  />
<glyph unicode="&#xD0;" horiz-adv-x="632" d="M71 0V287H13V383H71V667H277Q355 667 413 644T510 577T568 474T588 338Q588 267 568 206T509 99T413 27T282 0H71ZM230 121H268Q312 121 342 139T390 187T415 257T423 338Q423 380 416 418T391 484T342 529T264 546H230V383H326V287H230V121Z"  />
<glyph unicode="&#xD1;" horiz-adv-x="645" d="M71 0V667H275L440 181V667H575V0H370L206 485V0H71ZM175 725Q176 744 181 767T198 811T225 845T266 859Q284 859 299 853T329 838T356 823T379 816Q386 816 390 820T398 832T402 846T403 858H475Q475 838 470 815T455 771T427 738T385 724Q368 724 353 730T323 745T296 760T273 767Q267 767 262 763T254 752T249 738T247 725H175Z"  />
<glyph unicode="&#xD2;" horiz-adv-x="642" d="M232 173Q244 141 265 122T320 103Q358 103 380 125T413 182T428 256T432 333Q432 370 429 410T415 485T381 541T320 563Q284 563 263 541T229 484T214 410T210 333Q210 288 215 247T232 173ZM190 18Q138 47 106 95T60 205T45 333Q45 397 61 459T110 569T196 647T320 677Q397 677 450 648T535 570T582 460T597 333Q597 267 581 205T531 95T445 18T320 -11Q243 -11 190 18ZM289 724L198 860H305L378 724H289Z"  />
<glyph unicode="&#xD3;" horiz-adv-x="642" d="M232 173Q244 141 265 122T320 103Q358 103 380 125T413 182T428 256T432 333Q432 370 429 410T415 485T381 541T320 563Q284 563 263 541T229 484T214 410T210 333Q210 288 215 247T232 173ZM190 18Q138 47 106 95T60 205T45 333Q45 397 61 459T110 569T196 647T320 677Q397 677 450 648T535 570T582 460T597 333Q597 267 581 205T531 95T445 18T320 -11Q243 -11 190 18ZM264 724L337 860H444L352 724H264Z"  />
<glyph unicode="&#xD4;" horiz-adv-x="642" d="M232 173Q244 141 265 122T320 103Q358 103 380 125T413 182T428 256T432 333Q432 370 429 410T415 485T381 541T320 563Q284 563 263 541T229 484T214 410T210 333Q210 288 215 247T232 173ZM190 18Q138 47 106 95T60 205T45 333Q45 397 61 459T110 569T196 647T320 677Q397 677 450 648T535 570T582 460T597 333Q597 267 581 205T531 95T445 18T320 -11Q243 -11 190 18ZM178 724L270 860H370L462 724H365L320 803L275 724H178Z"  />
<glyph unicode="&#xD5;" horiz-adv-x="642" d="M232 173Q244 141 265 122T320 103Q358 103 380 125T413 182T428 256T432 333Q432 370 429 410T415 485T381 541T320 563Q284 563 263 541T229 484T214 410T210 333Q210 288 215 247T232 173ZM190 18Q138 47 106 95T60 205T45 333Q45 397 61 459T110 569T196 647T320 677Q397 677 450 648T535 570T582 460T597 333Q597 267 581 205T531 95T445 18T320 -11Q243 -11 190 18ZM170 725Q171 744 176 767T193 811T220 845T261 859Q279 859 294 853T324 838T351 823T374 816Q381 816 385 820T393 832T397 846T398 858H470Q470 838 465 815T450 771T422 738T380 724Q363 724 348 730T318 745T291 760T268 767Q262 767 257 763T249 752T244 738T242 725H170Z"  />
<glyph unicode="&#xD6;" horiz-adv-x="642" d="M232 173Q244 141 265 122T320 103Q358 103 380 125T413 182T428 256T432 333Q432 370 429 410T415 485T381 541T320 563Q284 563 263 541T229 484T214 410T210 333Q210 288 215 247T232 173ZM190 18Q138 47 106 95T60 205T45 333Q45 397 61 459T110 569T196 647T320 677Q397 677 450 648T535 570T582 460T597 333Q597 267 581 205T531 95T445 18T320 -11Q243 -11 190 18ZM351 727V855H455V727H351ZM185 727V855H289V727H185Z"  />
<glyph unicode="&#xD7;" horiz-adv-x="600" d="M127 7L47 87L220 261L47 434L127 516L300 341L474 515L554 434L381 261L554 87L474 6L300 180L127 7Z"  />
<glyph unicode="&#xD8;" horiz-adv-x="644" d="M232 174Q245 141 263 122T320 103Q358 103 380 125T413 182T428 256T432 333Q432 354 431 378T425 424L232 174ZM411 497Q399 527 379 545T321 563Q285 563 263 541T230 484T214 410T210 333Q210 312 211 290T217 246L411 497ZM28 10L101 102Q71 150 58 210T45 333Q45 397 61 459T110 569T196 647T320 677Q380 677 425 659T502 609L569 694L614 659L539 565Q570 517 583 457T597 333Q597 267 581 205T531 95T445 18T320 -11Q260 -11 215 8T138 59L73 -24L28 10Z"  />
<glyph unicode="&#xD9;" horiz-adv-x="603" d="M224 216Q224 195 226 175T237 140T261 116T301 107Q325 107 340 116T364 140T376 175T380 216V667H539V243Q539 185 524 138T480 58T406 7T301 -11Q177 -11 121 55T64 243V667H224V216ZM280 724L189 860H296L369 724H280Z"  />
<glyph unicode="&#xDA;" horiz-adv-x="603" d="M224 216Q224 195 226 175T237 140T261 116T301 107Q325 107 340 116T364 140T376 175T380 216V667H539V243Q539 185 524 138T480 58T406 7T301 -11Q177 -11 121 55T64 243V667H224V216ZM248 724L321 860H428L336 724H248Z"  />
<glyph unicode="&#xDB;" horiz-adv-x="603" d="M224 216Q224 195 226 175T237 140T261 116T301 107Q325 107 340 116T364 140T376 175T380 216V667H539V243Q539 185 524 138T480 58T406 7T301 -11Q177 -11 121 55T64 243V667H224V216ZM160 724L252 860H352L444 724H347L302 803L257 724H160Z"  />
<glyph unicode="&#xDC;" horiz-adv-x="603" d="M224 216Q224 195 226 175T237 140T261 116T301 107Q325 107 340 116T364 140T376 175T380 216V667H539V243Q539 185 524 138T480 58T406 7T301 -11Q177 -11 121 55T64 243V667H224V216ZM333 727V855H437V727H333ZM167 727V855H271V727H167Z"  />
<glyph unicode="&#xDD;" horiz-adv-x="537" d="M189 0V254L-4 667H180L275 402L363 667H541L348 254V0H189ZM221 724L294 860H401L309 724H221Z"  />
<glyph unicode="&#xDE;" horiz-adv-x="540" d="M227 239H267Q313 239 334 266T356 335Q356 380 332 405T263 431H227V239ZM71 0V667H228V547H288Q338 547 380 534T452 494T500 427T517 335Q517 282 500 242T452 176T379 136T287 122H228V0H71Z"  />
<glyph unicode="&#xDF;" horiz-adv-x="591" d="M56 0V478Q56 531 71 577T119 658T200 711T315 731Q361 731 402 719T475 681T524 614T542 516Q542 486 536 446Q508 446 484 444T443 436T415 418T405 386Q405 365 417 350T446 323T485 297T523 266T553 223T565 160Q565 115 551 83T513 29T456 -1T387 -11Q362 -11 330 -7T263 7L268 117Q321 92 363 92Q389 92 405 102T422 142Q422 162 410 176T380 204T342 231T303 264T273 310T261 376Q261 439 299 477T397 522Q400 531 400 543Q400 575 380 601T320 627Q259 627 234 587T208 479V0H56Z"  />
<glyph unicode="&#xE0;" horiz-adv-x="511" d="M321 0L318 63Q297 24 262 7T179 -11Q110 -11 69 30T28 144Q28 196 51 229T110 281T190 307T277 314H312V332Q312 367 293 390T225 414Q193 414 156 406T84 377L78 482Q115 496 159 505T255 515Q312 515 351 501T413 461T446 400T456 322V111Q456 73 457 48T460 0H321ZM295 237Q268 237 245 233T206 220T180 194T171 153Q171 123 187 106T233 88Q257 88 272 99T296 127T308 166T312 207V237H295ZM227 581L136 717H243L316 581H227Z"  />
<glyph unicode="&#xE1;" horiz-adv-x="511" d="M321 0L318 63Q297 24 262 7T179 -11Q110 -11 69 30T28 144Q28 196 51 229T110 281T190 307T277 314H312V332Q312 367 293 390T225 414Q193 414 156 406T84 377L78 482Q115 496 159 505T255 515Q312 515 351 501T413 461T446 400T456 322V111Q456 73 457 48T460 0H321ZM295 237Q268 237 245 233T206 220T180 194T171 153Q171 123 187 106T233 88Q257 88 272 99T296 127T308 166T312 207V237H295ZM192 581L265 717H372L280 581H192Z"  />
<glyph unicode="&#xE2;" horiz-adv-x="511" d="M321 0L318 63Q297 24 262 7T179 -11Q110 -11 69 30T28 144Q28 196 51 229T110 281T190 307T277 314H312V332Q312 367 293 390T225 414Q193 414 156 406T84 377L78 482Q115 496 159 505T255 515Q312 515 351 501T413 461T446 400T456 322V111Q456 73 457 48T460 0H321ZM295 237Q268 237 245 233T206 220T180 194T171 153Q171 123 187 106T233 88Q257 88 272 99T296 127T308 166T312 207V237H295ZM112 581L204 717H304L396 581H299L254 660L209 581H112Z"  />
<glyph unicode="&#xE3;" horiz-adv-x="511" d="M321 0L318 63Q297 24 262 7T179 -11Q110 -11 69 30T28 144Q28 196 51 229T110 281T190 307T277 314H312V332Q312 367 293 390T225 414Q193 414 156 406T84 377L78 482Q115 496 159 505T255 515Q312 515 351 501T413 461T446 400T456 322V111Q456 73 457 48T460 0H321ZM295 237Q268 237 245 233T206 220T180 194T171 153Q171 123 187 106T233 88Q257 88 272 99T296 127T308 166T312 207V237H295ZM109 582Q110 601 115 624T132 668T159 702T200 716Q218 716 233 710T263 695T290 680T313 673Q320 673 324 677T331 689T335 703T337 715H409Q409 695 404 672T389 628T361 595T319 581Q302 581 287 587T257 602T230 617T207 624Q201 624 196 620T188 609T183 595T181 582H109Z"  />
<glyph unicode="&#xE4;" horiz-adv-x="511" d="M321 0L318 63Q297 24 262 7T179 -11Q110 -11 69 30T28 144Q28 196 51 229T110 281T190 307T277 314H312V332Q312 367 293 390T225 414Q193 414 156 406T84 377L78 482Q115 496 159 505T255 515Q312 515 351 501T413 461T446 400T456 322V111Q456 73 457 48T460 0H321ZM295 237Q268 237 245 233T206 220T180 194T171 153Q171 123 187 106T233 88Q257 88 272 99T296 127T308 166T312 207V237H295ZM121 584V712H225V584H121ZM287 584V712H391V584H287Z"  />
<glyph unicode="&#xE5;" horiz-adv-x="511" d="M321 0L318 63Q297 24 262 7T179 -11Q110 -11 69 30T28 144Q28 196 51 229T110 281T190 307T277 314H312V332Q312 367 293 390T225 414Q193 414 156 406T84 377L78 482Q115 496 159 505T255 515Q312 515 351 501T413 461T446 400T456 322V111Q456 73 457 48T460 0H321ZM295 237Q268 237 245 233T206 220T180 194T171 153Q171 123 187 106T233 88Q257 88 272 99T296 127T308 166T312 207V237H295ZM204 649Q204 627 218 613T255 598Q276 598 291 612T306 649Q306 670 292 685T255 700Q234 700 219 685T204 649ZM182 577Q152 606 152 649Q152 670 160 689T182 721T215 743T255 751Q276 751 294 743T327 722T350 689T358 649Q358 606 328 577T255 548Q212 548 182 577Z"  />
<glyph unicode="&#xE6;" horiz-adv-x="759" d="M78 482Q116 496 158 505T252 515Q307 515 343 496T396 451Q415 475 446 495T526 515Q586 515 625 494T687 439T719 359T728 265V223H447Q447 197 454 173T478 130T519 100T579 88Q613 88 644 96T701 120L707 17Q645 -11 563 -11Q516 -11 484 -4T429 15T389 44T355 81Q343 61 328 45T291 16T242 -4T177 -11Q106 -11 67 30T28 140Q28 185 49 216T105 267T183 296T268 305H308V326Q308 342 305 358T293 387T268 408T227 416Q194 416 158 406T84 375L78 482ZM290 226Q269 226 248 222T210 209T182 185T171 147Q171 118 186 101T231 84Q255 84 270 95T293 124T305 162T308 202V226H290ZM590 301Q590 321 588 342T580 380T561 409T526 420Q506 420 492 411T468 385T453 347T447 301H590Z"  />
<glyph unicode="&#xE7;" horiz-adv-x="422" d="M156 -149Q172 -156 188 -160T224 -164Q245 -164 259 -155T273 -127Q273 -113 261 -103T232 -93Q212 -93 196 -100L176 -74L224 -6Q174 2 138 25T79 82T44 161T32 255Q32 313 51 360T103 442T183 496T286 515Q348 515 394 498L388 383Q369 391 353 395T308 399Q278 399 256 387T220 355T198 308T191 255Q191 228 198 201T219 153T256 119T309 105Q332 105 351 109T390 123L396 9Q347 -11 277 -11H272L242 -54Q250 -52 257 -51T275 -50Q310 -50 333 -70T356 -125Q356 -147 346 -163T319 -191T282 -207T240 -213Q205 -213 183 -209T138 -194L156 -149Z"  />
<glyph unicode="&#xE8;" horiz-adv-x="489" d="M179 216Q179 190 186 167T210 127T251 99T311 88Q345 88 376 96T433 120L439 17Q377 -11 295 -11Q229 -11 180 8T98 61T49 145T32 255Q32 306 47 353T90 436T161 493T258 515Q318 515 357 493T419 435T451 353T460 258V216H179ZM322 294Q322 314 320 336T312 377T293 408T258 420Q238 420 224 410T200 382T185 341T179 294H322ZM217 581L126 717H233L306 581H217Z"  />
<glyph unicode="&#xE9;" horiz-adv-x="489" d="M179 216Q179 190 186 167T210 127T251 99T311 88Q345 88 376 96T433 120L439 17Q377 -11 295 -11Q229 -11 180 8T98 61T49 145T32 255Q32 306 47 353T90 436T161 493T258 515Q318 515 357 493T419 435T451 353T460 258V216H179ZM322 294Q322 314 320 336T312 377T293 408T258 420Q238 420 224 410T200 382T185 341T179 294H322ZM192 581L265 717H372L280 581H192Z"  />
<glyph unicode="&#xEA;" horiz-adv-x="489" d="M179 216Q179 190 186 167T210 127T251 99T311 88Q345 88 376 96T433 120L439 17Q377 -11 295 -11Q229 -11 180 8T98 61T49 145T32 255Q32 306 47 353T90 436T161 493T258 515Q318 515 357 493T419 435T451 353T460 258V216H179ZM322 294Q322 314 320 336T312 377T293 408T258 420Q238 420 224 410T200 382T185 341T179 294H322ZM107 581L199 717H299L391 581H294L249 660L204 581H107Z"  />
<glyph unicode="&#xEB;" horiz-adv-x="489" d="M179 216Q179 190 186 167T210 127T251 99T311 88Q345 88 376 96T433 120L439 17Q377 -11 295 -11Q229 -11 180 8T98 61T49 145T32 255Q32 306 47 353T90 436T161 493T258 515Q318 515 357 493T419 435T451 353T460 258V216H179ZM322 294Q322 314 320 336T312 377T293 408T258 420Q238 420 224 410T200 382T185 341T179 294H322ZM113 584V712H217V584H113ZM279 584V712H383V584H279Z"  />
<glyph unicode="&#xEC;" horiz-adv-x="263" d="M56 0V505H208V0H56ZM95 581L4 717H111L184 581H95Z"  />
<glyph unicode="&#xED;" horiz-adv-x="263" d="M56 0V505H208V0H56ZM80 581L153 717H260L168 581H80Z"  />
<glyph unicode="&#xEE;" horiz-adv-x="263" d="M56 0V505H208V0H56ZM-10 581L82 717H182L274 581H177L132 660L87 581H-10Z"  />
<glyph unicode="&#xEF;" horiz-adv-x="263" d="M56 0V505H208V0H56ZM-3 584V712H101V584H-3ZM163 584V712H267V584H163Z"  />
<glyph unicode="&#xF0;" horiz-adv-x="530" d="M205 150Q213 127 228 112T266 97Q292 97 307 112T331 150T341 201T344 253Q344 272 342 295T331 339T308 373T266 387Q242 387 227 374T204 340T194 296T191 253Q191 229 194 202T205 150ZM142 534L91 587L183 631Q166 642 147 652T108 672L224 731Q247 723 268 712T307 688L394 731L445 679L369 640Q407 602 432 558T472 466T493 368T499 266Q499 216 486 167T444 78T371 14T266 -11Q207 -11 163 9T90 65T47 149T32 253Q32 304 45 348T84 425T144 476T223 495Q252 495 279 483T326 450Q311 495 292 527T245 584L142 534Z"  />
<glyph unicode="&#xF1;" horiz-adv-x="538" d="M56 0V399Q56 451 53 505H191L195 429Q215 471 250 493T334 515Q375 515 403 501T449 463T475 405T483 334V0H331V323Q331 338 329 352T319 378T301 396T273 403Q255 403 243 395T223 374T212 346T208 315V0H56ZM118 582Q119 601 124 624T141 668T168 702T209 716Q227 716 242 710T272 695T299 680T322 673Q329 673 333 677T340 689T344 703T346 715H418Q418 695 413 672T398 628T370 595T328 581Q311 581 296 587T266 602T239 617T216 624Q210 624 205 620T197 609T192 595T190 582H118Z"  />
<glyph unicode="&#xF2;" horiz-adv-x="533" d="M227 114Q242 97 267 97Q292 97 307 115T329 158T339 210T342 255Q342 274 340 300T331 351T308 391T267 408Q242 408 227 391T204 350T194 300T191 255Q191 235 193 208T204 156T227 114ZM163 9Q119 30 90 66T47 150T32 255Q32 308 48 355T94 437T168 494T267 515Q326 515 370 495T443 441T486 358T501 255Q501 201 486 153T442 69T369 11T267 -11Q208 -11 163 9ZM242 581L151 717H258L331 581H242Z"  />
<glyph unicode="&#xF3;" horiz-adv-x="533" d="M227 114Q242 97 267 97Q292 97 307 115T329 158T339 210T342 255Q342 274 340 300T331 351T308 391T267 408Q242 408 227 391T204 350T194 300T191 255Q191 235 193 208T204 156T227 114ZM163 9Q119 30 90 66T47 150T32 255Q32 308 48 355T94 437T168 494T267 515Q326 515 370 495T443 441T486 358T501 255Q501 201 486 153T442 69T369 11T267 -11Q208 -11 163 9ZM203 581L276 717H383L291 581H203Z"  />
<glyph unicode="&#xF4;" horiz-adv-x="533" d="M227 114Q242 97 267 97Q292 97 307 115T329 158T339 210T342 255Q342 274 340 300T331 351T308 391T267 408Q242 408 227 391T204 350T194 300T191 255Q191 235 193 208T204 156T227 114ZM163 9Q119 30 90 66T47 150T32 255Q32 308 48 355T94 437T168 494T267 515Q326 515 370 495T443 441T486 358T501 255Q501 201 486 153T442 69T369 11T267 -11Q208 -11 163 9ZM125 581L217 717H317L409 581H312L267 660L222 581H125Z"  />
<glyph unicode="&#xF5;" horiz-adv-x="533" d="M227 114Q242 97 267 97Q292 97 307 115T329 158T339 210T342 255Q342 274 340 300T331 351T308 391T267 408Q242 408 227 391T204 350T194 300T191 255Q191 235 193 208T204 156T227 114ZM163 9Q119 30 90 66T47 150T32 255Q32 308 48 355T94 437T168 494T267 515Q326 515 370 495T443 441T486 358T501 255Q501 201 486 153T442 69T369 11T267 -11Q208 -11 163 9ZM117 582Q118 601 123 624T140 668T167 702T208 716Q226 716 241 710T271 695T298 680T321 673Q328 673 332 677T339 689T343 703T345 715H417Q417 695 412 672T397 628T369 595T327 581Q310 581 295 587T265 602T238 617T215 624Q209 624 204 620T196 609T191 595T189 582H117Z"  />
<glyph unicode="&#xF6;" horiz-adv-x="533" d="M227 114Q242 97 267 97Q292 97 307 115T329 158T339 210T342 255Q342 274 340 300T331 351T308 391T267 408Q242 408 227 391T204 350T194 300T191 255Q191 235 193 208T204 156T227 114ZM163 9Q119 30 90 66T47 150T32 255Q32 308 48 355T94 437T168 494T267 515Q326 515 370 495T443 441T486 358T501 255Q501 201 486 153T442 69T369 11T267 -11Q208 -11 163 9ZM132 584V712H236V584H132ZM298 584V712H402V584H298Z"  />
<glyph unicode="&#xF7;" horiz-adv-x="600" d="M300 -11Q268 -11 246 12T223 67Q223 99 245 121T300 144Q332 144 354 122T377 67Q377 35 355 12T300 -11ZM37 203V318H564V203H37ZM300 377Q268 377 246 399T223 454Q223 486 245 508T300 531Q332 531 354 509T377 454Q377 422 355 400T300 377Z"  />
<glyph unicode="&#xF8;" horiz-adv-x="533" d="M210 138Q218 120 232 109T267 97Q292 97 306 114T329 155T339 207T342 255Q342 266 341 279T338 305L210 138ZM325 368Q317 385 303 396T267 408Q242 408 227 391T204 350T194 300T191 255Q191 243 192 229T197 201L325 368ZM43 1L93 65Q59 104 46 154T32 255Q32 308 48 355T94 437T168 494T267 515Q307 515 341 505T405 473L451 533L489 503L442 441Q475 403 488 355T501 255Q501 201 486 153T442 69T368 11T267 -11Q188 -11 129 33L82 -29L43 1Z"  />
<glyph unicode="&#xF9;" horiz-adv-x="534" d="M344 0L340 75Q320 33 286 12T202 -10Q161 -10 133 4T88 43T62 101T54 172V505H206V182Q206 167 208 153T217 127T235 109T263 102Q281 102 293 110T312 131T323 159T327 190V505H479V107Q479 54 482 0H344ZM240 581L149 717H256L329 581H240Z"  />
<glyph unicode="&#xFA;" horiz-adv-x="534" d="M344 0L340 75Q320 33 286 12T202 -10Q161 -10 133 4T88 43T62 101T54 172V505H206V182Q206 167 208 153T217 127T235 109T263 102Q281 102 293 110T312 131T323 159T327 190V505H479V107Q479 54 482 0H344ZM202 581L275 717H382L290 581H202Z"  />
<glyph unicode="&#xFB;" horiz-adv-x="534" d="M344 0L340 75Q320 33 286 12T202 -10Q161 -10 133 4T88 43T62 101T54 172V505H206V182Q206 167 208 153T217 127T235 109T263 102Q281 102 293 110T312 131T323 159T327 190V505H479V107Q479 54 482 0H344ZM124 581L216 717H316L408 581H311L266 660L221 581H124Z"  />
<glyph unicode="&#xFC;" horiz-adv-x="534" d="M344 0L340 75Q320 33 286 12T202 -10Q161 -10 133 4T88 43T62 101T54 172V505H206V182Q206 167 208 153T217 127T235 109T263 102Q281 102 293 110T312 131T323 159T327 190V505H479V107Q479 54 482 0H344ZM131 584V712H235V584H131ZM297 584V712H401V584H297Z"  />
<glyph unicode="&#xFD;" horiz-adv-x="490" d="M47 -103Q58 -108 70 -111T94 -114Q127 -114 143 -96T167 -46L181 4L1 505H168L256 171L334 505H487L311 -42Q296 -88 280 -122T241 -180T191 -214T126 -226Q106 -226 84 -222T41 -210L47 -103ZM201 581L274 717H381L289 581H201Z"  />
<glyph unicode="&#xFE;" horiz-adv-x="548" d="M243 113Q258 96 284 96Q308 96 323 114T345 157T355 209T358 254Q358 272 356 298T346 348T324 390T285 407Q260 407 245 391T222 351T211 301T208 254Q208 234 210 207T220 155T243 113ZM56 -216V721H208V430Q229 471 262 493T345 515Q397 515 430 490T483 427T509 343T517 255Q517 214 508 168T479 82T425 16T341 -11Q291 -11 260 10T208 73V-216H56Z"  />
<glyph unicode="&#xFF;" horiz-adv-x="490" d="M47 -103Q58 -108 70 -111T94 -114Q127 -114 143 -96T167 -46L181 4L1 505H168L256 171L334 505H487L311 -42Q296 -88 280 -122T241 -180T191 -214T126 -226Q106 -226 84 -222T41 -210L47 -103ZM115 584V712H219V584H115ZM281 584V712H385V584H281Z"  />
<glyph unicode="&#x131;" horiz-adv-x="263" d="M56 0V505H208V0H56Z"  />
<glyph unicode="&#x152;" horiz-adv-x="826" d="M403 550Q368 563 329 563Q292 563 269 543T233 491T215 417T210 333Q210 289 215 248T233 175T270 123T329 103Q352 103 367 105T403 117V550ZM474 0Q436 0 398 -5T325 -11Q247 -11 194 17T107 92T60 202T45 333Q45 397 60 459T108 569T195 647T325 677Q360 677 393 672T474 667H774V546H558V403H759V283H558V121H784V0H474Z"  />
<glyph unicode="&#x153;" horiz-adv-x="794" d="M227 110Q242 93 267 93Q292 93 307 111T329 155T339 208T342 255Q342 275 340 302T331 353T308 395T267 412Q242 412 227 395T204 352T194 301T191 255Q191 234 193 207T204 154T227 110ZM627 294Q627 314 625 336T615 377T594 408T558 420Q537 420 523 408T500 376T488 335T484 294H627ZM484 216Q484 190 491 167T512 127T549 99T601 88Q638 88 672 98T739 125L745 17Q707 3 667 -4T587 -11Q524 -11 484 6T414 59Q391 28 352 9T267 -11Q208 -11 164 9T90 66T47 150T32 255Q32 308 48 355T94 437T168 494T267 515Q315 515 353 498T414 449Q434 478 472 496T555 515Q613 515 653 493T718 435T754 353T765 258V216H484Z"  />
<glyph unicode="&#x160;" horiz-adv-x="500" d="M54 144Q92 123 130 113T198 103Q253 103 274 127T296 184Q296 202 289 215T269 240T242 260T211 277L169 297Q137 312 114 329T75 368T52 417T44 479Q44 527 63 564T115 626T189 664T279 677Q323 677 363 671T434 654L428 527Q399 543 364 553T296 563Q261 563 235 546T208 493Q208 463 227 445T279 413L320 395Q351 381 377 364T421 324T450 270T460 197Q460 151 442 113T392 47T315 4T216 -11Q173 -11 130 -5T48 16L54 144ZM204 724L112 860H209L254 780L299 860H396L304 724H204Z"  />
<glyph unicode="&#x161;" horiz-adv-x="428" d="M43 135Q78 115 114 106T186 97Q213 97 228 108T244 142Q244 160 229 173T192 197T144 222T95 253T58 298T43 363Q43 407 62 436T112 482T179 507T248 515Q277 515 309 510T374 494L368 380Q339 394 312 401T249 409Q229 409 211 402T192 370Q192 351 207 339T244 316T293 294T341 265T379 223T394 158Q394 113 377 81T333 28T269 -1T195 -11Q156 -11 115 -4T33 17L43 135ZM166 581L74 717H171L216 637L261 717H358L266 581H166Z"  />
<glyph unicode="&#x178;" horiz-adv-x="537" d="M189 0V254L-4 667H180L275 402L363 667H541L348 254V0H189ZM304 727V855H408V727H304ZM138 727V855H242V727H138Z"  />
<glyph unicode="&#x17D;" horiz-adv-x="495" d="M31 0V123L288 546H39V667H461V544L208 121H464V0H31ZM199 724L107 860H204L249 780L294 860H391L299 724H199Z"  />
<glyph unicode="&#x17E;" horiz-adv-x="414" d="M27 0V119L228 394H34V505H384V385L182 111H388V0H27ZM160 581L68 717H165L210 637L255 717H352L260 581H160Z"  />
<glyph unicode="&#x192;" horiz-adv-x="501" d="M-4 -107Q10 -114 30 -114Q47 -114 59 -102T79 -73T93 -38T102 -5L163 289H70V400H186L203 477Q213 523 227 560T261 623T310 663T376 677Q399 677 422 675T468 663L461 555Q441 564 418 564Q401 564 389 555T368 531T355 499T346 466L332 400H425V289H309L245 -16Q237 -56 224 -93T190 -160T143 -208T79 -226Q56 -226 34 -224T-11 -214L-4 -107Z"  />
<glyph unicode="&#x2C6;" horiz-adv-x="263" d="M-10 581L82 717H182L274 581H177L132 660L87 581H-10Z"  />
<glyph unicode="&#x2C7;" horiz-adv-x="263" d="M82 581L-10 717H87L132 637L177 717H274L182 581H82Z"  />
<glyph unicode="&#x2DA;" horiz-adv-x="263" d="M81 649Q81 627 95 613T132 598Q153 598 168 612T183 649Q183 670 169 685T132 700Q111 700 96 685T81 649ZM59 577Q29 606 29 649Q29 670 37 689T59 721T92 743T132 751Q153 751 171 743T204 722T227 689T235 649Q235 606 205 577T132 548Q89 548 59 577Z"  />
<glyph unicode="&#x2DC;" horiz-adv-x="263" d="M-18 582Q-17 601 -12 624T5 668T32 702T73 716Q91 716 106 710T136 695T163 680T186 673Q193 673 197 677T204 689T208 703T210 715H282Q282 695 277 672T262 628T234 595T192 581Q175 581 160 587T130 602T103 617T80 624Q74 624 69 620T61 609T56 595T54 582H-18Z"  />
<glyph unicode="&#x2013;" horiz-adv-x="500" d="M0 258V362H500V258H0Z"  />
<glyph unicode="&#x2014;" horiz-adv-x="1000" d="M0 258V362H1000V258H0Z"  />
<glyph unicode="&#x2018;" horiz-adv-x="250" d="M27 433L108 721H222L160 433H27Z"  />
<glyph unicode="&#x2019;" horiz-adv-x="250" d="M28 433L90 721H223L142 433H28Z"  />
<glyph unicode="&#x201A;" horiz-adv-x="250" d="M11 -128L73 160H206L126 -128H11Z"  />
<glyph unicode="&#x201C;" horiz-adv-x="436" d="M27 433L108 721H222L160 433H27ZM213 433L294 721H408L347 433H213Z"  />
<glyph unicode="&#x201D;" horiz-adv-x="436" d="M28 433L90 721H223L142 433H28ZM214 433L276 721H409L328 433H214Z"  />
<glyph unicode="&#x201E;" horiz-adv-x="436" d="M11 -128L73 160H206L126 -128H11ZM197 -128L259 160H392L312 -128H197Z"  />
<glyph unicode="&#x2020;" horiz-adv-x="501" d="M178 -128V401H43V521H178V721H324V521H459V401H324V-128H178Z"  />
<glyph unicode="&#x2021;" horiz-adv-x="501" d="M178 -128V72H43V192H178V401H43V521H178V721H324V521H459V401H324V192H459V72H324V-128H178Z"  />
<glyph unicode="&#x2022;" horiz-adv-x="501" d="M200 189Q176 199 158 217T130 259T120 310Q120 337 130 361T158 404T200 432T251 443Q278 443 302 433T344 404T372 362T382 310Q382 283 372 259T344 217T302 189T251 179Q224 179 200 189Z"  />
<glyph unicode="&#x2026;" horiz-adv-x="1000" d="M98 0V160H238V0H98ZM431 0V160H571V0H431ZM764 0V160H904V0H764Z"  />
<glyph unicode="&#x2030;" horiz-adv-x="1150" d="M159 369Q167 335 192 335Q219 335 226 371T234 471Q234 534 227 570T192 607Q165 607 158 572T151 471Q151 404 159 369ZM597 93Q605 59 630 59Q657 59 664 95T671 195Q671 258 664 294T630 331Q603 331 596 296T589 195Q589 128 597 93ZM925 93Q933 59 958 59Q985 59 992 95T999 195Q999 258 992 294T958 331Q931 331 924 296T917 195Q917 128 925 93ZM117 284Q89 303 74 333T55 399T50 471Q50 502 55 538T75 605T118 656T192 677Q240 677 268 658T311 608T330 541T335 471Q335 436 330 400T309 333T265 284T192 265Q145 265 117 284ZM221 -24L516 691H600L306 -24H221ZM555 8Q527 27 512 57T493 123T488 195Q488 226 493 262T513 329T556 380T630 401Q678 401 706 382T748 332T767 265T772 195Q772 160 767 124T747 57T703 8T630 -11Q583 -11 555 8ZM883 8Q855 27 840 57T821 123T816 195Q816 226 821 262T841 329T884 380T958 401Q1006 401 1034 382T1076 332T1095 265T1100 195Q1100 160 1095 124T1075 57T1031 8T958 -11Q911 -11 883 8Z"  />
<glyph unicode="&#x2039;" horiz-adv-x="287" d="M143 55L33 260L142 465H265L161 260L265 55H143Z"  />
<glyph unicode="&#x203A;" horiz-adv-x="287" d="M22 55L126 260L22 465H144L255 260L144 55H22Z"  />
<glyph unicode="&#x20AC;" horiz-adv-x="501" d="M32 234L45 299H98Q97 308 97 316T97 333Q97 341 97 349T98 367H32L45 432H107Q116 478 134 522T181 601T251 656T346 677Q382 677 413 670T476 645L454 537Q437 550 414 556T370 563Q344 563 325 551T292 521T270 479T257 432H436L422 367H250Q249 358 249 350T249 333Q249 325 249 317T250 299H409L396 234H257Q261 210 269 187T292 145T326 115T373 103Q394 103 414 108T451 125L457 6Q431 -4 403 -7T346 -11Q290 -11 249 9T178 64T131 142T105 234H32Z"  />
<glyph unicode="&#x2122;" horiz-adv-x="838" d="M100 266V591H9V667H299V591H207V266H100ZM354 267V667H507L571 406L639 667H793V267H689V580L605 267H528L445 580V267H354Z"  />
<glyph unicode="&#xE300;" horiz-adv-x="263" d="M95 724L4 860H111L184 724H95Z"  />
<glyph unicode="&#xE301;" horiz-adv-x="263" d="M52 724L125 860H232L140 724H52Z"  />
<glyph unicode="&#xE302;" horiz-adv-x="263" d="M-10 724L82 860H182L274 724H177L132 803L87 724H-10Z"  />
<glyph unicode="&#xE303;" horiz-adv-x="263" d="M82 724L-10 860H87L132 780L177 860H274L182 724H82Z"  />
<glyph unicode="&#xE304;" horiz-adv-x="263" d="M-18 725Q-17 744 -12 767T5 811T32 845T73 859Q91 859 106 853T136 838T163 823T186 816Q193 816 197 820T205 832T209 846T210 858H282Q282 838 277 815T262 771T234 738T192 724Q175 724 160 730T130 745T103 760T80 767Q74 767 69 763T61 752T56 738T54 725H-18Z"  />
<glyph unicode="&#xE305;" horiz-adv-x="263" d="M163 727V855H267V727H163ZM-3 727V855H101V727H-3Z"  />
<glyph unicode="&#xE308;" horiz-adv-x="263" d="M59 720Q29 749 29 792Q29 813 37 832T59 864T92 886T132 894Q153 894 171 886T204 865T227 832T235 792Q235 749 205 720T132 691Q89 691 59 720ZM81 792Q81 770 95 756T132 741Q153 741 168 755T183 792Q183 813 169 828T132 843Q111 843 96 828T81 792Z"  />

</font>
</defs>
</svg>
