<?xml  version="1.0" encoding="UTF-8"?>
<!DOCTYPE svg PUBLIC "-//W3C//DTD SVG 1.0//EN" "http://www.w3.org/TR/2001/REC-SVG-20010904/DTD/svg10.dtd" >
<svg xmlns="http://www.w3.org/2000/svg" >
<metadata>
<version>1.0</version>
<id><![CDATA[Frutiger Next W01 Black Cn]]></id>
<vendor>Monotype Imaging Inc.</vendor>
<credits>
<name>Fonts.com WebFonts</name>
<URL>http://webfonts.fonts.com</URL>
<role>Home of the Web fonts</role>
</credits>
<license>
<URL>http://webfonts.fonts.com/Legal</URL>
</license>
<copyright><![CDATA[Copyright © 2007 Linotype GmbH, www.linotype.com. All rights reserved. This font software may not be reproduced, modified, disclosed or transferred without the express written approval of Linotype GmbH. Frutiger Next is a trademark of Linotype GmbH and may be registered in certain jurisdictions. This typeface is original artwork of Adrian Frutiger and Linotype Design Studio. The design may be protected in certain jurisdictions.]]></copyright>
<trademark><![CDATA[Frutiger Next is a trademark of Linotype GmbH and may be registered in certain jurisdictions.]]></trademark>
<licensee>
<name></name>
</licensee>
</metadata>
<defs >
<font horiz-adv-x="515" id="afb5f3e5-4ec5-461a-9bdb-51992f1d672e">
<font-face font-family="" panose-1="2 11 10 6 4 2 4 2 2 3" ascent="721" descent="-279" units-per-em="1000" alphabetic="0">
</font-face>
<missing-glyph horiz-adv-x="260" />

<glyph unicode="&#xA;" />
<glyph unicode="&#xD;" horiz-adv-x="0" />
<glyph unicode=" " horiz-adv-x="260" />
<glyph unicode="!" horiz-adv-x="303" d="M67 0V195H236V0H67ZM80 262L56 667H247L223 262H80Z"  />
<glyph unicode="&quot;" horiz-adv-x="481" d="M41 459V667H191V459H41ZM290 459V667H440V459H290Z"  />
<glyph unicode="#" horiz-adv-x="520" d="M209 290H298L313 377H224L209 290ZM52 0L83 182H17V290H101L116 377H32V485H134L163 667H271L242 485H331L360 667H468L439 485H503V377H421L406 290H488V182H388L357 0H249L280 182H191L160 0H52Z"  />
<glyph unicode="$" horiz-adv-x="520" d="M211 -108V-11Q166 -9 118 -3T34 13L40 168Q80 151 122 140T200 129Q244 129 262 144T281 188Q281 219 261 232T215 255L153 277Q117 290 93 309T55 354T35 410T29 474Q29 510 41 542T78 600T137 644T217 671V774H306V677Q348 676 382 670T464 653L458 500Q426 515 385 526T315 537Q277 537 257 522T237 481Q237 458 252 446T297 424L352 406Q382 396 407 382T451 345T480 289T491 208Q491 167 477 132T438 70T378 23T300 -5V-108H211Z"  />
<glyph unicode="%" horiz-adv-x="850" d="M172 369Q176 355 181 350T194 345Q203 345 208 351T217 371T222 410T224 471Q224 507 223 531T218 570T209 590T194 596Q186 596 181 591T172 571T168 533T166 471Q166 432 167 408T172 369ZM633 93Q637 79 642 74T655 69Q664 69 669 75T678 95T683 134T685 195Q685 231 684 255T679 294T670 314T655 320Q647 320 642 315T633 295T629 257T627 195Q627 156 628 132T633 93ZM114 283Q85 301 70 330T49 396T44 471Q44 504 49 540T71 607T116 657T194 677Q245 677 275 658T321 610T341 544T346 471Q346 433 340 396T318 330T272 283T194 265Q144 265 114 283ZM223 -24L526 691H626L323 -24H223ZM575 7Q546 25 531 54T510 120T505 195Q505 228 510 264T532 331T577 381T655 401Q706 401 736 382T782 334T802 268T807 195Q807 157 801 120T779 54T733 7T655 -11Q605 -11 575 7Z"  />
<glyph unicode="&amp;" horiz-adv-x="604" d="M517 16Q474 3 424 -4T329 -11Q276 -11 225 -5T133 20T67 77T42 179Q42 218 57 246T98 293T156 323T220 340Q184 344 155 354T104 383T72 428T60 495Q60 544 85 578T150 635T238 667T333 677Q412 677 487 657L479 505Q447 520 412 528T335 537Q321 537 305 533T276 520T255 500T246 473Q246 437 270 421T330 405H337V461H517V405H592V273H517V16ZM337 129V272H330Q312 272 294 268T261 256T237 234T228 203Q228 182 236 168T258 146T290 133T330 129H337Z"  />
<glyph unicode="&apos;" horiz-adv-x="260" d="M54 459V667H204V459H54Z"  />
<glyph unicode="(" horiz-adv-x="304" d="M169 -128Q146 -87 124 -44T83 51T54 162T42 297Q42 367 52 425T79 533T120 629T169 721H321Q302 694 282 652T244 554T215 434T204 297Q204 226 215 161T243 40T281 -58T321 -128H169Z"  />
<glyph unicode=")" horiz-adv-x="304" d="M-17 -128Q2 -101 22 -59T60 39T88 159T100 296Q100 367 89 432T60 553T23 651T-17 721H135Q157 680 180 637T221 542T250 431T262 296Q262 226 252 168T225 60T184 -36T135 -128H-17Z"  />
<glyph unicode="*" horiz-adv-x="409" d="M39 378L137 461L10 475L51 604L169 537L141 667H275L249 537L361 604L400 475L270 461L373 378L260 298L206 414L148 298L39 378Z"  />
<glyph unicode="+" horiz-adv-x="600" d="M30 197V341H228V538H373V341H570V197H373V0H228V197H30Z"  />
<glyph unicode="&#x2c;" horiz-adv-x="260" d="M0 -128L67 195H230L144 -128H0Z"  />
<glyph unicode="-" horiz-adv-x="335" d="M38 237V383H297V237H38Z"  />
<glyph unicode="." horiz-adv-x="260" d="M45 0V195H214V0H45Z"  />
<glyph unicode="/" horiz-adv-x="299" d="M-2 0L181 667H301L116 0H-2Z"  />
<glyph unicode="0" horiz-adv-x="520" d="M225 163Q231 140 239 132T259 123Q272 123 281 132T296 166T303 230T306 333Q306 393 304 433T296 498T282 533T259 543Q246 543 238 534T224 501T216 437T214 333Q214 268 217 228T225 163ZM137 19Q92 49 68 98T36 208T28 333Q28 388 36 448T69 560T139 644T259 677Q337 677 383 646T454 565T485 454T492 333Q492 270 483 208T449 98T378 19T259 -11Q183 -11 137 19Z"  />
<glyph unicode="1" horiz-adv-x="520" d="M206 0V437L120 361L31 501L252 667H402V0H206Z"  />
<glyph unicode="2" horiz-adv-x="520" d="M36 0V146L122 232Q152 262 179 291T226 348T259 404T272 456Q272 504 247 520T186 537Q154 537 123 529T52 506L46 644Q64 651 88 657T138 668T191 674T242 677Q291 677 332 665T404 629T452 569T470 482Q470 431 455 389T414 310T357 242T292 181L250 144H474V0H36Z"  />
<glyph unicode="3" horiz-adv-x="520" d="M38 163Q74 147 112 138T184 129Q229 129 253 145T278 198Q278 241 250 257T158 273H130V411H160Q182 411 203 413T240 423T266 442T276 475Q276 509 251 523T190 537Q158 537 122 529T52 508L46 648Q84 662 131 669T239 677Q281 677 322 669T397 640T450 586T470 500Q470 476 462 452T437 408T393 372T329 349Q348 347 373 339T422 312T460 264T476 186Q476 133 455 96T396 35T307 0T194 -11Q157 -11 114 -4T32 18L38 163Z"  />
<glyph unicode="4" horiz-adv-x="520" d="M139 253H263V478L139 253ZM20 115V293L232 667H440V253H507V115H440V0H254V115H20Z"  />
<glyph unicode="5" horiz-adv-x="520" d="M44 162Q73 147 109 139T171 130Q193 130 214 134T251 148T276 176T286 223Q286 248 275 264T247 291T207 304T160 308Q134 308 102 304T53 293L57 667H458V523H222L220 432Q232 434 247 435T274 436Q382 436 433 381T484 233Q484 165 459 119T393 44T302 2T201 -11Q167 -11 123 -4T38 20L44 162Z"  />
<glyph unicode="6" horiz-adv-x="520" d="M458 509Q427 523 399 530T339 537Q304 537 281 524T243 490T223 442T217 388Q235 408 264 419T322 431Q370 431 402 414T454 367T482 299T491 220Q491 163 474 120T426 47T354 4T267 -11Q193 -11 148 18T79 94T46 200T38 319Q38 382 51 445T95 560T178 644T308 677Q388 677 464 651L458 509ZM239 133Q248 123 263 123Q278 123 286 133T299 158T304 187T305 214Q305 224 304 238T299 266T286 288T263 297Q249 297 241 288T228 266T222 239T221 214Q221 203 222 188T227 158T239 133Z"  />
<glyph unicode="7" horiz-adv-x="520" d="M75 0L291 523H38V667H478V516L287 0H75Z"  />
<glyph unicode="8" horiz-adv-x="520" d="M297 250Q283 271 254 291Q234 275 222 251T209 189Q209 166 221 145T260 123Q286 123 298 144T311 189Q311 229 297 250ZM229 435Q243 417 266 407Q286 420 295 440T305 485Q305 509 296 526T260 543Q237 543 226 524T215 485Q215 453 229 435ZM101 322Q124 338 150 350Q93 370 67 407T41 499Q41 545 59 578T109 634T179 666T260 677Q302 677 341 667T411 635T460 580T479 499Q479 472 470 448T444 405T409 371T370 350Q393 342 415 329T456 295T485 245T497 177Q497 129 478 94T427 35T351 0T260 -11Q212 -11 169 0T94 34T42 93T23 177Q23 210 33 236T60 284T101 322Z"  />
<glyph unicode="9" horiz-adv-x="520" d="M66 159Q97 145 125 138T185 131Q220 131 243 144T281 178T301 226T307 280Q289 260 260 249T202 237Q154 237 122 254T70 301T42 368T33 448Q33 505 50 548T98 621T169 664T257 679Q331 679 376 650T445 574T478 468T486 349Q486 286 473 223T429 108T346 24T216 -9Q136 -9 60 17L66 159ZM238 380Q246 371 261 371Q275 371 283 380T296 402T302 429T303 454Q303 464 302 480T297 510T285 534T261 545Q246 545 238 535T225 510T220 480T219 454Q219 444 220 430T225 402T238 380Z"  />
<glyph unicode=":" horiz-adv-x="260" d="M45 0V195H214V0H45ZM45 320V515H214V320H45Z"  />
<glyph unicode=";" horiz-adv-x="260" d="M0 -128L67 195H230L144 -128H0ZM44 320V515H214V320H44Z"  />
<glyph unicode="&lt;" horiz-adv-x="600" d="M30 194V344L570 556V403L194 268L570 135V-18L30 194Z"  />
<glyph unicode="=" horiz-adv-x="600" d="M30 78V222H570V78H30ZM30 315V460H570V315H30Z"  />
<glyph unicode="&gt;" horiz-adv-x="600" d="M30 -18V135L406 268L30 403V556L570 344V194L30 -18Z"  />
<glyph unicode="?" horiz-adv-x="449" d="M133 0V195H302V0H133ZM136 262V296Q136 322 151 341T184 378T217 416T232 465Q232 498 210 513T146 529Q117 529 97 525T63 516T41 506T27 499L21 647Q28 650 45 655T86 665T139 673T202 677Q249 677 291 668T366 639T417 586T436 503Q436 458 415 422T368 359T321 312T299 282V262H136Z"  />
<glyph unicode="@" horiz-adv-x="960" d="M738 -190Q678 -210 623 -218T503 -226Q395 -226 309 -196T162 -107T69 36T36 228Q36 330 67 421T159 581T308 690T508 731Q608 731 685 701T816 619T896 497T924 348Q924 267 903 201T845 88T761 15T663 -11Q611 -11 577 12T529 84Q501 33 471 11T392 -11Q362 -11 336 1T289 36T258 95T246 176Q246 245 264 307T319 416T411 491T541 519Q586 519 628 512T727 486L660 183Q658 172 656 161T654 142Q654 102 686 102Q703 102 720 116T752 160T775 232T784 332Q784 466 715 538T505 610Q427 610 368 580T268 497T207 375T186 228Q186 69 268 -18T512 -105Q565 -105 617 -97T730 -64L738 -190ZM543 382Q537 384 533 385T521 386Q500 386 482 365T450 313T428 247T420 182Q420 147 429 136T451 124Q458 124 465 128T480 147T496 188T515 257L543 382Z"  />
<glyph unicode="A" horiz-adv-x="651" d="M270 272H371L318 505L270 272ZM8 0L208 667H443L643 0H433L403 134H241L212 0H8Z"  />
<glyph unicode="B" horiz-adv-x="596" d="M262 138H295Q324 138 344 154T364 206Q364 238 344 254T295 271H262V138ZM262 403H285Q317 403 336 420T356 469Q356 501 335 515T285 529H262V403ZM64 0V667H349Q386 667 422 657T486 626T532 574T550 503Q550 470 539 443T509 396T469 363T424 345Q446 341 470 331T515 302T548 256T562 191Q562 149 546 114T501 54T436 14T359 0H64Z"  />
<glyph unicode="C" horiz-adv-x="569" d="M533 12Q473 -11 392 -11Q305 -11 240 14T130 84T64 192T42 333Q42 409 66 472T136 580T243 651T382 677Q424 677 461 671T530 654L522 499Q472 524 413 524Q372 524 342 509T292 468T262 407T252 333Q252 295 260 261T288 200T339 158T417 142Q445 142 473 149T527 170L533 12Z"  />
<glyph unicode="D" horiz-adv-x="672" d="M268 150H295Q331 150 355 165T393 205T414 264T420 333Q420 368 415 401T397 460T359 501T295 517H268V150ZM64 0V667H326Q402 667 459 642T554 572T611 466T630 333Q630 265 609 205T548 99T451 27T322 0H64Z"  />
<glyph unicode="E" horiz-adv-x="543" d="M64 0V667H492V517H265V416H475V266H265V150H501V0H64Z"  />
<glyph unicode="F" horiz-adv-x="518" d="M64 0V667H480V517H268V407H470V257H268V0H64Z"  />
<glyph unicode="G" horiz-adv-x="646" d="M343 257V395H598V23Q547 3 495 -4T396 -11Q213 -11 128 78T42 333Q42 414 68 478T142 586T260 653T415 677Q457 677 502 671T577 651L571 496Q539 513 506 522T427 531Q386 531 354 517T299 477T264 415T252 333Q252 294 259 258T282 195T325 152T390 135Q405 135 418 139V257H343Z"  />
<glyph unicode="H" horiz-adv-x="641" d="M64 0V667H268V418H373V667H577V0H373V262H268V0H64Z"  />
<glyph unicode="I" horiz-adv-x="332" d="M64 0V667H268V0H64Z"  />
<glyph unicode="J" horiz-adv-x="399" d="M16 166Q33 160 47 157T75 153Q113 153 125 173T137 230V667H341V238Q341 185 331 140T296 61T231 8T130 -11Q101 -11 70 -4T10 13L16 166Z"  />
<glyph unicode="K" horiz-adv-x="637" d="M64 0V667H268V397L386 667H616L442 359L631 0H390L268 296V0H64Z"  />
<glyph unicode="L" horiz-adv-x="494" d="M64 0V667H268V156H474V0H64Z"  />
<glyph unicode="M" horiz-adv-x="849" d="M64 0V667H352L418 288L497 667H785V0H589V490L483 0H340L234 490V0H64Z"  />
<glyph unicode="N" horiz-adv-x="674" d="M64 0V667H322L440 230V667H610V0H352L234 437V0H64Z"  />
<glyph unicode="O" horiz-adv-x="676" d="M271 185Q281 158 297 144T337 129Q367 129 384 148T410 198T421 264T424 333Q424 367 422 403T412 469T386 518T337 537Q309 537 293 518T267 469T255 403T252 333Q252 287 256 250T271 185ZM203 16Q147 44 111 91T59 200T42 333Q42 401 60 463T115 573T207 649T337 677Q416 677 472 649T565 574T617 464T634 333Q634 262 616 200T560 90T468 16T337 -11Q259 -11 203 16Z"  />
<glyph unicode="P" horiz-adv-x="583" d="M263 365H292Q309 365 321 372T342 391T353 417T357 445Q357 475 340 499T292 523H263V365ZM64 0V667H322Q374 667 417 653T493 610T543 541T561 445Q561 387 542 345T490 276T411 235T313 221H265V0H64Z"  />
<glyph unicode="Q" horiz-adv-x="676" d="M271 185Q281 158 297 144T337 129Q367 129 384 148T410 198T421 264T424 333Q424 367 422 403T412 469T386 518T337 537Q309 537 293 518T267 469T255 403T252 333Q252 287 256 250T271 185ZM421 -128L344 -11H337Q259 -11 203 16T111 91T59 200T42 333Q42 401 60 463T115 573T207 649T337 677Q416 677 472 649T565 574T617 464T634 333Q634 238 601 160T502 36L643 -128H421Z"  />
<glyph unicode="R" horiz-adv-x="615" d="M263 392H291Q324 392 344 410T365 458Q365 493 345 508T291 523H263V392ZM64 0V667H349Q390 667 429 657T500 627T550 574T569 496Q569 430 535 388T435 331Q474 319 497 293T537 207L593 0H377L336 180Q326 224 311 236T277 248H265V0H64Z"  />
<glyph unicode="S" horiz-adv-x="542" d="M53 168Q93 151 133 140T210 129Q254 129 274 145T294 193Q294 207 287 217T268 236T240 252T206 265L177 276Q114 299 78 341T42 459Q42 513 63 554T120 622T204 663T309 677Q356 677 396 672T477 655L471 502Q439 518 402 527T328 537Q290 537 270 523T250 482Q250 459 268 447T322 423L342 416Q373 406 402 392T453 355T490 299T504 217Q504 158 481 115T419 44T329 3T223 -11Q178 -11 132 -5T47 13L53 168Z"  />
<glyph unicode="T" horiz-adv-x="506" d="M151 0V511H14V667H492V511H355V0H151Z"  />
<glyph unicode="U" horiz-adv-x="629" d="M262 204Q262 175 272 155T314 135Q343 135 355 155T367 204V667H571V243Q571 118 504 54T314 -11Q187 -11 123 51T58 243V667H262V204Z"  />
<glyph unicode="V" horiz-adv-x="615" d="M192 0L6 667H227L313 226L394 667H609L423 0H192Z"  />
<glyph unicode="W" horiz-adv-x="872" d="M142 0L18 667H221L273 238L330 667H559L614 238L668 667H854L729 0H492L441 470L379 0H142Z"  />
<glyph unicode="X" horiz-adv-x="606" d="M6 0L175 354L17 667H246L307 494L361 667H581L425 354L600 0H371L298 210L221 0H6Z"  />
<glyph unicode="Y" horiz-adv-x="599" d="M197 0V238L-6 667H231L307 429L375 667H605L401 238V0H197Z"  />
<glyph unicode="Z" horiz-adv-x="534" d="M32 0V151L277 517H38V667H500V515L260 150H502V0H32Z"  />
<glyph unicode="[" horiz-adv-x="304" d="M65 -128V721H309V601H214V-6H309V-128H65Z"  />
<glyph unicode="\" horiz-adv-x="299" d="M183 0L-2 667H118L301 0H183Z"  />
<glyph unicode="]" horiz-adv-x="304" d="M-5 -128V-6H91V601H-5V721H239V-128H-5Z"  />
<glyph unicode="^" horiz-adv-x="600" d="M53 229L235 667H366L549 229H394L300 496L207 229H53Z"  />
<glyph unicode="_" horiz-adv-x="500" d="M0 -125V-75H500V-125H0Z"  />
<glyph unicode="`" horiz-adv-x="292" d="M97 579L6 715H131L204 579H97Z"  />
<glyph unicode="a" horiz-adv-x="548" d="M323 0L320 59Q299 24 264 7T182 -11Q109 -11 67 32T25 148Q25 197 45 230T99 284T180 313T279 322H316V331Q316 357 300 376T237 396Q205 396 167 388T88 359L82 490Q120 503 170 511T272 519Q338 519 382 506T452 467T489 406T500 326V112Q500 70 500 45T503 0H323ZM298 231Q254 231 230 217T205 167Q205 141 218 126T255 110Q276 110 288 120T306 146T314 180T316 216V231H298Z"  />
<glyph unicode="b" horiz-adv-x="591" d="M271 136Q283 121 303 121Q322 121 333 137T351 174T358 219T360 256Q360 270 359 292T351 334T334 370T304 385Q284 385 273 370T255 335T248 292T246 256Q246 241 247 219T254 174T271 136ZM48 0V721H244V431Q288 519 389 519Q442 519 476 494T529 431T556 346T564 257Q564 216 555 169T524 82T468 16T382 -11Q331 -11 293 9T235 77L232 0H48Z"  />
<glyph unicode="c" horiz-adv-x="447" d="M427 13Q400 1 364 -5T285 -11Q221 -11 173 8T92 63T44 147T27 257Q27 317 46 365T102 447T188 500T302 519Q334 519 366 513T421 495L415 358Q383 374 338 374Q284 374 258 340T231 257Q231 234 237 213T258 174T293 147T343 136Q365 136 382 139T421 150L427 13Z"  />
<glyph unicode="d" horiz-adv-x="591" d="M257 137Q269 121 288 121Q308 121 319 136T336 174T343 218T345 256Q345 270 343 292T335 334T318 370T287 385Q268 385 257 370T240 335T233 292T231 256Q231 242 232 219T240 175T257 137ZM356 0L353 77Q333 29 296 9T208 -11Q156 -11 121 15T65 82T36 169T27 257Q27 300 35 346T64 430T119 494T206 519Q257 519 290 498T347 431V721H543V88Q543 66 543 44T546 0H356Z"  />
<glyph unicode="e" horiz-adv-x="525" d="M327 299Q327 317 325 336T317 370T299 394T270 404Q253 404 242 394T225 368T216 334T213 299H327ZM213 208Q213 163 243 137T322 110Q363 110 399 119T472 145L478 17Q394 -11 304 -11Q168 -11 98 56T27 257Q27 311 42 359T88 442T163 498T266 519Q329 519 374 498T447 441T488 358T501 257V208H213Z"  />
<glyph unicode="f" horiz-adv-x="389" d="M94 0V370H8V509H94V559Q94 607 108 640T145 693T199 722T262 731Q316 731 347 725T391 717L385 589Q377 593 367 595T345 598Q318 598 304 582T290 528V509H382V370H290V0H94Z"  />
<glyph unicode="g" horiz-adv-x="591" d="M257 146Q269 132 288 132Q308 132 319 146T336 180T343 221T345 258Q345 272 344 294T336 336T319 371T288 386Q269 386 258 371T241 336T233 293T231 257Q231 243 232 222T240 180T257 146ZM59 -48Q98 -68 140 -80T227 -93Q267 -93 290 -82T326 -53T343 -8T347 48V88Q341 71 330 56T303 28T263 8T210 0Q159 0 124 24T68 86T37 169T27 257Q27 301 36 347T65 432T119 494T203 519Q260 519 295 496T350 431V509H543V69Q543 -6 527 -61T477 -153T388 -208T255 -226Q204 -226 153 -218T53 -194L59 -48Z"  />
<glyph unicode="h" horiz-adv-x="573" d="M48 0V721H244V431Q251 451 264 467T296 495T334 513T376 519Q418 519 446 507T492 471T517 416T525 345V0H329V321Q329 343 321 361T286 380Q270 380 262 371T249 349T245 320T244 292V0H48Z"  />
<glyph unicode="i" horiz-adv-x="292" d="M48 0V509H244V0H48ZM48 573V721H244V573H48Z"  />
<glyph unicode="j" horiz-adv-x="293" d="M49 573V721H245V573H49ZM-30 -82Q-20 -87 -1 -87Q17 -87 27 -79T42 -58T48 -34T49 -13V509H245V-13Q245 -59 236 -98T208 -165T156 -210T79 -226Q57 -226 23 -223T-36 -208L-30 -82Z"  />
<glyph unicode="k" horiz-adv-x="549" d="M48 0V721H244V308L329 509H537L414 278L547 0H333L244 240V0H48Z"  />
<glyph unicode="l" horiz-adv-x="292" d="M48 0V721H244V0H48Z"  />
<glyph unicode="m" horiz-adv-x="854" d="M48 0V423Q48 465 45 509H223L229 431Q274 519 376 519Q426 519 461 495T511 431Q554 519 652 519Q694 519 723 503T770 461T797 401T806 329V0H612V314Q612 325 611 337T604 358T591 374T568 380Q555 380 547 374T533 358T525 337T523 314V0H331V314Q331 325 330 337T323 358T310 374T287 380Q273 380 265 374T251 358T244 337T242 314V0H48Z"  />
<glyph unicode="n" horiz-adv-x="577" d="M48 0V423Q48 465 45 509H223L228 431Q272 519 373 519Q416 519 445 505T493 465T520 404T529 329V0H333V314Q333 326 331 337T325 358T311 374T289 380Q275 380 267 374T253 359T246 338T244 314V0H48Z"  />
<glyph unicode="o" horiz-adv-x="572" d="M256 137Q267 122 286 122Q305 122 316 138T332 176T339 220T341 257Q341 271 340 293T334 335T317 371T286 386Q266 386 255 371T239 336T232 293T231 257Q231 241 232 218T239 174T256 137ZM286 -11Q161 -11 94 60T27 257Q27 314 46 362T99 445T181 499T286 519Q409 519 477 449T545 257Q545 198 527 149T476 65T394 9T286 -11Z"  />
<glyph unicode="p" horiz-adv-x="591" d="M272 136Q284 121 304 121Q323 121 334 136T351 174T358 219T360 256Q360 270 359 292T352 334T335 370T305 385Q285 385 274 371T256 336T248 293T246 256Q246 241 247 219T255 174T272 136ZM48 -216V423Q48 465 45 509H235L238 431Q262 474 295 496T376 519Q431 519 467 495T525 434T555 350T564 257Q564 216 555 169T524 82T468 16T383 -11Q331 -11 298 11T244 77V-216H48Z"  />
<glyph unicode="q" horiz-adv-x="591" d="M257 137Q269 122 288 122Q308 122 319 137T336 175T343 219T345 257Q345 272 343 294T335 336T318 371T287 386Q268 386 257 371T240 336T233 293T231 257Q231 243 232 220T240 175T257 137ZM347 -216V77Q306 -11 208 -11Q155 -11 120 15T65 82T36 169T27 257Q27 303 36 349T68 433T126 495T215 519Q262 519 295 497T353 431V509H543V-216H347Z"  />
<glyph unicode="r" horiz-adv-x="408" d="M48 0V423Q48 465 45 509H223L226 415Q249 465 283 492T375 519Q381 519 387 519T400 517L394 343Q365 351 339 351Q305 351 286 335T258 294T246 240T244 186V0H48Z"  />
<glyph unicode="s" horiz-adv-x="469" d="M44 163Q84 141 128 132T208 122Q221 122 235 127T250 149Q250 162 234 171T194 191T143 213T91 244T51 290T35 358Q35 406 57 437T113 486T186 511T262 519Q300 519 341 514T420 495L412 355Q375 371 345 378T274 386Q260 386 244 381T227 361Q227 345 243 335T283 316T334 295T386 267T426 224T442 159Q442 111 424 78T375 26T306 -2T226 -11Q173 -11 125 -3T32 20L44 163Z"  />
<glyph unicode="t" horiz-adv-x="410" d="M22 370V509H100V602L290 663V509H382V370H290V184Q290 153 298 141T337 128Q351 128 361 129T385 136L391 11Q364 0 328 -5T263 -11Q94 -11 94 161V370H22Z"  />
<glyph unicode="u" horiz-adv-x="573" d="M350 0L345 77Q322 32 287 11T201 -10Q158 -10 129 4T81 44T54 105T46 180V509H242V195Q242 183 243 172T250 151T263 135T285 129Q298 129 307 135T320 150T327 171T329 195V509H525V86Q525 43 528 0H350Z"  />
<glyph unicode="v" horiz-adv-x="543" d="M156 0L-2 509H207L276 172L350 509H545L386 0H156Z"  />
<glyph unicode="w" horiz-adv-x="821" d="M134 0L0 509H197L249 177L308 509H522L585 177L633 509H821L687 0H478L411 349L343 0H134Z"  />
<glyph unicode="x" horiz-adv-x="545" d="M-2 0L157 257L11 509H230L281 382L331 509H534L388 257L547 0H328L270 143L206 0H-2Z"  />
<glyph unicode="y" horiz-adv-x="550" d="M49 -76Q60 -81 76 -84T110 -87Q142 -87 160 -65T186 -12L192 9L-6 509H209L289 213L353 509H550L368 -16Q330 -127 281 -176T155 -226Q131 -226 99 -222T43 -208L49 -76Z"  />
<glyph unicode="z" horiz-adv-x="447" d="M26 0V149L216 370H34V509H416V358L224 139H421V0H26Z"  />
<glyph unicode="{" horiz-adv-x="353" d="M266 -128Q237 -128 209 -119T157 -93T120 -50T105 10V165Q105 189 95 204T71 229T42 243T14 247V348Q26 348 41 351T71 363T95 385T105 419V583Q105 618 120 644T159 687T211 712T266 721H353V629H303Q288 629 280 624T267 610T262 587T261 558V415Q261 379 247 356T212 320T170 302T131 297Q147 297 169 294T212 278T246 240T261 170V35Q261 19 262 6T267 -16T279 -29T303 -34H353V-128H266Z"  />
<glyph unicode="|" horiz-adv-x="212" d="M43 -216V777H169V-216H43Z"  />
<glyph unicode="}" horiz-adv-x="353" d="M2 -128V-34H52Q67 -34 75 -30T88 -16T93 6T94 35V170Q94 214 108 239T143 277T185 293T224 297Q208 297 186 302T143 320T109 356T94 415V558Q94 574 93 587T88 609T76 624T52 629H2V721H89Q115 721 143 713T195 687T234 644T250 583V419Q250 399 260 385T284 363T313 352T341 348V247Q329 247 314 243T284 230T260 205T250 165V10Q250 -24 236 -50T198 -93T146 -119T89 -128H2Z"  />
<glyph unicode="~" horiz-adv-x="600" d="M20 170Q20 201 30 236T59 302T107 353T171 373Q203 373 236 364T302 343T368 323T431 313Q460 313 470 330T486 371H580Q578 339 569 303T543 236T498 185T432 164Q400 164 366 173T299 195T233 216T171 226Q145 226 131 210T114 170H20Z"  />
<glyph unicode="&#xA0;" horiz-adv-x="260" />
<glyph unicode="&#xA1;" horiz-adv-x="303" d="M56 -158L80 247H223L247 -158H56ZM67 314V509H236V314H67Z"  />
<glyph unicode="&#xA2;" horiz-adv-x="520" d="M248 0V94Q163 107 116 172T69 337Q69 431 115 493T248 572V667H321V578Q351 577 378 570T432 553L426 426Q408 432 389 438T347 444Q327 444 310 436T281 413T262 379T255 337Q255 316 260 296T276 261T304 235T348 225Q371 225 390 231T431 243L437 115Q406 107 380 100T321 91V0H248Z"  />
<glyph unicode="&#xA3;" horiz-adv-x="520" d="M48 0V127H113V271H54V392H113V459Q113 519 131 561T182 628T261 665T363 677Q431 677 495 652L489 525Q466 531 443 537T395 544Q376 544 358 538T327 520T305 492T297 455V392H429V271H297V127H489V0H48Z"  />
<glyph unicode="&#xA4;" horiz-adv-x="520" d="M208 265Q229 237 260 237Q291 237 313 265T335 334Q335 374 313 402T260 430Q229 430 208 402T187 334Q187 294 208 265ZM102 70L24 158L84 225Q71 252 65 277T58 333Q58 364 64 390T84 443L23 510L102 598L163 530Q187 544 209 551T260 559Q288 559 311 552T359 531L418 597L497 509L438 444Q450 418 456 391T463 333Q463 276 437 224L498 158L419 70L359 138Q335 124 313 116T262 108Q233 108 210 115T161 137L102 70Z"  />
<glyph unicode="&#xA5;" horiz-adv-x="520" d="M32 83V204H175V276H32V397H117L6 667H185L269 439L342 667H514L401 397H492V276H343V204H492V83H343V0H175V83H32Z"  />
<glyph unicode="&#xA6;" horiz-adv-x="212" d="M43 -216V181H169V-216H43ZM43 379V775H169V379H43Z"  />
<glyph unicode="&#xA7;" horiz-adv-x="520" d="M55 46Q94 28 134 16T218 4Q253 4 264 16T276 40Q276 58 258 73T211 102L140 136Q94 158 63 191T32 278Q32 305 39 324T59 359T87 385T120 405Q84 431 69 458T53 523Q53 543 64 569T100 620T166 660T268 677Q315 677 353 671T436 651L430 514Q393 530 358 539T288 549Q282 549 274 548T258 544T246 534T241 517Q241 503 252 494T288 473L341 448Q411 415 445 379T479 283Q479 257 472 237T454 200T429 172T403 150Q433 128 447 102T462 41Q462 17 453 -12T419 -66T351 -107T240 -124Q192 -124 142 -114T49 -88L55 46ZM306 206Q317 217 319 230T321 255Q321 275 308 292T271 323L208 360Q201 351 196 338T190 315Q190 290 205 274T243 243L306 206Z"  />
<glyph unicode="&#xA8;" horiz-adv-x="292" d="M-6 573V721H120V573H-6ZM172 573V721H298V573H172Z"  />
<glyph unicode="&#xA9;" horiz-adv-x="772" d="M510 191Q466 179 419 179Q378 179 343 188T282 216T240 264T225 334Q225 372 241 401T284 449T346 479T419 489Q442 489 464 486T509 479L506 399Q492 404 477 406T445 409Q407 409 381 391T355 334Q355 296 379 278T442 259Q459 259 475 262T507 271L510 191ZM210 153Q244 118 289 97T386 76Q438 76 483 97T561 153T614 235T633 334Q633 386 614 432T562 514T483 569T386 590Q334 590 289 570T211 515T158 433T139 334Q139 282 158 235T210 153ZM252 16Q189 43 143 90T69 200T42 334Q42 405 69 467T142 576T252 650T386 677Q457 677 520 650T629 577T703 468T730 334Q730 263 703 200T630 90T520 16T386 -11Q315 -11 252 16Z"  />
<glyph unicode="&#xAA;" horiz-adv-x="370" d="M221 366L219 406Q204 380 184 370T132 359Q84 359 57 384T30 453Q30 482 45 502T84 535T137 553T195 559H219V565Q219 581 208 593T170 605Q150 605 124 599T71 580L67 660Q92 666 126 671T195 677Q237 677 264 669T308 646T332 610T339 562V433Q339 408 340 393T341 366H221ZM208 505Q184 505 166 495T147 464Q147 432 180 432Q193 432 201 438T213 453T218 474T219 496V505H208Z"  />
<glyph unicode="&#xAB;" horiz-adv-x="532" d="M142 55L31 263L141 470H295L191 263L295 55H142ZM366 55L255 263L365 470H519L415 263L519 55H366Z"  />
<glyph unicode="&#xAC;" horiz-adv-x="600" d="M30 315V460H570V78H420V315H30Z"  />
<glyph unicode="&#xAD;" horiz-adv-x="335" d="M38 237V383H297V237H38Z"  />
<glyph unicode="&#xAE;" horiz-adv-x="772" d="M348 360H378Q397 360 413 365T429 393Q429 413 414 418T380 423H348V360ZM226 190V491H427Q449 491 471 488T512 475T541 450T553 409Q553 374 532 356T476 331Q505 326 519 315T540 277L563 190H434L419 255Q414 275 407 283T376 292H350V190H226ZM210 153Q244 118 289 97T386 76Q438 76 483 97T561 153T614 235T633 334Q633 386 614 432T562 514T483 569T386 590Q334 590 289 570T211 515T158 433T139 334Q139 282 158 235T210 153ZM252 16Q189 43 143 90T69 200T42 334Q42 405 69 467T142 576T252 650T386 677Q457 677 520 650T629 577T703 468T730 334Q730 263 703 200T630 90T520 16T386 -11Q315 -11 252 16Z"  />
<glyph unicode="&#xAF;" horiz-adv-x="292" d="M-7 597V697H299V597H-7Z"  />
<glyph unicode="&#xB0;" horiz-adv-x="400" d="M130 521Q130 492 151 472T201 451Q230 451 250 471T271 521Q271 550 251 571T201 593Q172 593 151 572T130 521ZM89 410Q68 431 56 459T43 521Q43 554 55 582T89 632T139 665T201 677Q234 677 262 665T312 632T345 583T358 521Q358 488 346 460T312 411T263 378T201 366Q168 366 140 378T89 410Z"  />
<glyph unicode="&#xB1;" horiz-adv-x="600" d="M30 -45V98H570V-45H30ZM30 284V428H228V584H373V428H570V284H373V137H228V284H30Z"  />
<glyph unicode="&#xB2;" horiz-adv-x="350" d="M29 374V462L84 513Q103 531 121 549T152 584T174 617T183 648Q183 673 167 684T127 696Q107 696 87 692T40 678L36 760Q53 764 86 772T174 780Q202 780 226 773T270 752T300 715T311 663Q311 630 298 601T267 549T232 511T207 490L167 460H314V374H29Z"  />
<glyph unicode="&#xB3;" horiz-adv-x="350" d="M31 470Q60 459 82 455T126 451Q152 451 169 461T187 491Q187 517 169 527T109 538H90V621H110Q139 621 162 628T185 659Q185 679 169 687T132 696Q103 696 83 692T40 679L36 763Q54 767 69 770T99 775T133 779T174 780Q202 780 226 774T270 755T300 721T311 670Q311 644 290 618T220 583Q233 582 249 577T280 562T305 533T315 486Q315 465 307 444T278 406T223 378T135 367Q122 367 106 368T75 372T47 377T27 383L31 470Z"  />
<glyph unicode="&#xB4;" horiz-adv-x="292" d="M48 579L121 715H246L155 579H48Z"  />
<glyph unicode="&#xB5;" horiz-adv-x="520" d="M21 -216V509H217V194Q217 183 218 172T224 151T237 135T260 129Q274 129 282 135T296 151T302 172T304 195V510H500V89Q500 67 500 45T503 1H325L322 95Q317 82 310 64T293 30T270 1T239 -11Q225 -11 215 -2T199 20V-216H21Z"  />
<glyph unicode="&#xB6;" horiz-adv-x="600" d="M180 -108V322Q110 322 65 366T19 495Q19 542 37 575T87 628T164 658T260 667H534V-108H408V575H306V-108H180Z"  />
<glyph unicode="&#xB7;" horiz-adv-x="260" d="M45 213V408H214V213H45Z"  />
<glyph unicode="&#xB8;" horiz-adv-x="292" d="M50 -153Q70 -161 89 -164T119 -168Q142 -168 155 -159T168 -132Q168 -120 156 -111T125 -102Q107 -102 89 -107L65 -80L123 0H182L141 -55Q156 -51 174 -51Q215 -51 239 -73T263 -133Q263 -158 252 -176T223 -206T182 -223T133 -229Q101 -229 78 -225T28 -209L50 -153Z"  />
<glyph unicode="&#xB9;" horiz-adv-x="350" d="M140 374V636L84 591L26 675L170 774H267V374H140Z"  />
<glyph unicode="&#xBA;" horiz-adv-x="370" d="M60 402Q17 445 17 520Q17 554 29 583T63 633T116 665T185 677Q265 677 309 635T353 520Q353 485 342 456T308 405T255 371T185 359Q104 359 60 402ZM165 448Q173 439 185 439Q197 439 204 448T215 471T220 498T221 520Q221 529 220 542T216 567T205 589T185 598Q172 598 165 589T154 568T150 542T149 520Q149 511 150 497T154 470T165 448Z"  />
<glyph unicode="&#xBB;" horiz-adv-x="532" d="M13 55L117 263L12 470H166L277 263L166 55H13ZM237 55L341 263L236 470H390L501 263L390 55H237Z"  />
<glyph unicode="&#xBC;" horiz-adv-x="850" d="M207 -24L510 691H610L307 -24H207ZM467 69V176L605 400H740V152H784V69H740V0H619V69H467ZM544 152H625V287L544 152ZM163 269V531L107 486L49 570L193 669H290V269H163Z"  />
<glyph unicode="&#xBD;" horiz-adv-x="850" d="M190 -24L493 691H593L290 -24H190ZM494 0V88L549 139Q568 157 586 175T617 210T639 243T648 274Q648 299 632 310T592 322Q572 322 552 318T505 304L501 386Q518 390 551 398T639 406Q667 406 691 399T735 378T765 341T776 289Q776 256 763 227T732 175T697 137T672 116L632 86H779V0H494ZM146 269V531L90 486L32 570L176 669H273V269H146Z"  />
<glyph unicode="&#xBE;" horiz-adv-x="850" d="M237 -24L540 691H640L337 -24H237ZM57 365Q86 354 108 350T152 346Q178 346 195 356T213 386Q213 412 195 422T135 433H116V516H136Q165 516 188 523T211 554Q211 574 195 582T158 591Q129 591 109 587T66 574L62 658Q80 662 95 665T125 670T159 674T200 675Q228 675 252 669T296 650T326 616T337 565Q337 539 316 513T246 478Q259 477 275 472T306 457T331 428T341 381Q341 360 333 339T304 301T249 273T161 262Q148 262 132 263T101 267T73 272T53 278L57 365ZM497 69V176L635 400H770V152H814V69H770V0H649V69H497ZM574 152H655V287L574 152Z"  />
<glyph unicode="&#xBF;" horiz-adv-x="449" d="M428 -138Q421 -141 404 -146T363 -156T310 -164T247 -168Q200 -168 158 -159T83 -130T32 -77T13 6Q13 51 34 87T81 150T128 197T150 227V247H313V213Q313 187 298 168T265 131T232 93T217 44Q217 11 239 -4T303 -20Q331 -20 351 -16T386 -7T408 3T422 10L428 -138ZM147 314V509H316V314H147Z"  />
<glyph unicode="&#xC0;" horiz-adv-x="651" d="M270 272H371L318 505L270 272ZM8 0L208 667H443L643 0H433L403 134H241L212 0H8ZM288 724L197 860H322L395 724H288Z"  />
<glyph unicode="&#xC1;" horiz-adv-x="651" d="M270 272H371L318 505L270 272ZM8 0L208 667H443L643 0H433L403 134H241L212 0H8ZM262 724L335 860H460L369 724H262Z"  />
<glyph unicode="&#xC2;" horiz-adv-x="651" d="M270 272H371L318 505L270 272ZM8 0L208 667H443L643 0H433L403 134H241L212 0H8ZM174 724L266 860H386L478 724H363L326 795L289 724H174Z"  />
<glyph unicode="&#xC3;" horiz-adv-x="651" d="M270 272H371L318 505L270 272ZM8 0L208 667H443L643 0H433L403 134H241L212 0H8ZM165 718Q166 738 172 764T189 814T218 854T262 870Q280 870 297 863T328 848T355 833T379 826Q385 826 388 830T394 841T398 855T399 866H485Q485 843 481 817T465 768T435 730T388 714Q372 714 356 721T324 736T295 751T271 758Q265 758 262 754T256 743T252 729T251 718H165Z"  />
<glyph unicode="&#xC4;" horiz-adv-x="651" d="M270 272H371L318 505L270 272ZM8 0L208 667H443L643 0H433L403 134H241L212 0H8ZM173 718V866H299V718H173ZM351 718V866H477V718H351Z"  />
<glyph unicode="&#xC5;" horiz-adv-x="651" d="M270 272H371L318 505L270 272ZM8 0L208 667H443L643 0H433L403 134H241L212 0H8ZM278 792Q278 772 292 758T326 744Q346 744 360 758T374 792Q374 812 360 826T326 841Q306 841 292 827T278 792ZM250 716Q235 731 227 750T218 792Q218 814 226 834T250 868T284 890T326 899Q348 899 367 891T402 868T425 834T434 792Q434 769 426 750T402 717T368 694T326 686Q304 686 285 694T250 716Z"  />
<glyph unicode="&#xC6;" horiz-adv-x="874" d="M310 270H412V536L310 270ZM-4 0L276 667H823V517H610V416H807V266H610V150H832V0H412V132H259L210 0H-4Z"  />
<glyph unicode="&#xC7;" horiz-adv-x="569" d="M243 -153Q263 -161 282 -164T312 -168Q335 -168 348 -159T361 -132Q361 -120 349 -111T318 -102Q300 -102 282 -107L258 -80L311 -4Q244 6 194 35T110 107T59 208T42 333Q42 409 66 472T136 580T243 651T382 677Q424 677 461 671T530 654L522 499Q472 524 413 524Q372 524 342 509T292 468T262 407T252 333Q252 295 260 261T288 200T339 158T417 142Q445 142 473 149T527 170L533 12Q473 -11 392 -11H368L334 -55Q349 -51 367 -51Q408 -51 432 -73T456 -133Q456 -158 445 -176T416 -206T375 -223T326 -229Q294 -229 271 -225T221 -209L243 -153Z"  />
<glyph unicode="&#xC8;" horiz-adv-x="543" d="M64 0V667H492V517H265V416H475V266H265V150H501V0H64ZM242 724L151 860H276L349 724H242Z"  />
<glyph unicode="&#xC9;" horiz-adv-x="543" d="M64 0V667H492V517H265V416H475V266H265V150H501V0H64ZM206 724L279 860H404L313 724H206Z"  />
<glyph unicode="&#xCA;" horiz-adv-x="543" d="M64 0V667H492V517H265V416H475V266H265V150H501V0H64ZM126 724L218 860H338L430 724H315L278 795L241 724H126Z"  />
<glyph unicode="&#xCB;" horiz-adv-x="543" d="M64 0V667H492V517H265V416H475V266H265V150H501V0H64ZM125 718V866H251V718H125ZM303 718V866H429V718H303Z"  />
<glyph unicode="&#xCC;" horiz-adv-x="332" d="M64 0V667H268V0H64ZM115 724L24 860H149L222 724H115Z"  />
<glyph unicode="&#xCD;" horiz-adv-x="332" d="M64 0V667H268V0H64ZM110 724L183 860H308L217 724H110Z"  />
<glyph unicode="&#xCE;" horiz-adv-x="332" d="M64 0V667H268V0H64ZM14 724L106 860H226L318 724H203L166 795L129 724H14Z"  />
<glyph unicode="&#xCF;" horiz-adv-x="332" d="M64 0V667H268V0H64ZM14 718V866H140V718H14ZM192 718V866H318V718H192Z"  />
<glyph unicode="&#xD0;" horiz-adv-x="672" d="M64 0V277H7V393H64V667H326Q402 667 459 642T554 572T611 466T630 333Q630 265 609 205T548 99T451 27T322 0H64ZM268 150H295Q331 150 355 165T393 205T414 264T420 333Q420 368 415 401T397 460T359 501T295 517H268V393H343V277H268V150Z"  />
<glyph unicode="&#xD1;" horiz-adv-x="674" d="M64 0V667H322L440 230V667H610V0H352L234 437V0H64ZM177 718Q178 738 184 764T201 814T230 854T274 870Q292 870 309 863T340 848T367 833T391 826Q397 826 400 830T406 841T410 855T411 866H497Q497 843 493 817T477 768T447 730T400 714Q384 714 368 721T336 736T307 751T283 758Q277 758 274 754T268 743T264 729T263 718H177Z"  />
<glyph unicode="&#xD2;" horiz-adv-x="676" d="M271 185Q281 158 297 144T337 129Q367 129 384 148T410 198T421 264T424 333Q424 367 422 403T412 469T386 518T337 537Q309 537 293 518T267 469T255 403T252 333Q252 287 256 250T271 185ZM203 16Q147 44 111 91T59 200T42 333Q42 401 60 463T115 573T207 649T337 677Q416 677 472 649T565 574T617 464T634 333Q634 262 616 200T560 90T468 16T337 -11Q259 -11 203 16ZM301 724L210 860H335L408 724H301Z"  />
<glyph unicode="&#xD3;" horiz-adv-x="676" d="M271 185Q281 158 297 144T337 129Q367 129 384 148T410 198T421 264T424 333Q424 367 422 403T412 469T386 518T337 537Q309 537 293 518T267 469T255 403T252 333Q252 287 256 250T271 185ZM203 16Q147 44 111 91T59 200T42 333Q42 401 60 463T115 573T207 649T337 677Q416 677 472 649T565 574T617 464T634 333Q634 262 616 200T560 90T468 16T337 -11Q259 -11 203 16ZM269 724L342 860H467L376 724H269Z"  />
<glyph unicode="&#xD4;" horiz-adv-x="676" d="M271 185Q281 158 297 144T337 129Q367 129 384 148T410 198T421 264T424 333Q424 367 422 403T412 469T386 518T337 537Q309 537 293 518T267 469T255 403T252 333Q252 287 256 250T271 185ZM203 16Q147 44 111 91T59 200T42 333Q42 401 60 463T115 573T207 649T337 677Q416 677 472 649T565 574T617 464T634 333Q634 262 616 200T560 90T468 16T337 -11Q259 -11 203 16ZM186 724L278 860H398L490 724H375L338 795L301 724H186Z"  />
<glyph unicode="&#xD5;" horiz-adv-x="676" d="M271 185Q281 158 297 144T337 129Q367 129 384 148T410 198T421 264T424 333Q424 367 422 403T412 469T386 518T337 537Q309 537 293 518T267 469T255 403T252 333Q252 287 256 250T271 185ZM203 16Q147 44 111 91T59 200T42 333Q42 401 60 463T115 573T207 649T337 677Q416 677 472 649T565 574T617 464T634 333Q634 262 616 200T560 90T468 16T337 -11Q259 -11 203 16ZM177 718Q178 738 184 764T201 814T230 854T274 870Q292 870 309 863T340 848T367 833T391 826Q397 826 400 830T406 841T410 855T411 866H497Q497 843 493 817T477 768T447 730T400 714Q384 714 368 721T336 736T307 751T283 758Q277 758 274 754T268 743T264 729T263 718H177Z"  />
<glyph unicode="&#xD6;" horiz-adv-x="676" d="M271 185Q281 158 297 144T337 129Q367 129 384 148T410 198T421 264T424 333Q424 367 422 403T412 469T386 518T337 537Q309 537 293 518T267 469T255 403T252 333Q252 287 256 250T271 185ZM203 16Q147 44 111 91T59 200T42 333Q42 401 60 463T115 573T207 649T337 677Q416 677 472 649T565 574T617 464T634 333Q634 262 616 200T560 90T468 16T337 -11Q259 -11 203 16ZM185 718V866H311V718H185ZM363 718V866H489V718H363Z"  />
<glyph unicode="&#xD7;" horiz-adv-x="600" d="M137 6L38 106L201 269L38 432L138 533L300 369L464 532L563 432L400 269L563 106L464 6L300 169L137 6Z"  />
<glyph unicode="&#xD8;" horiz-adv-x="676" d="M268 194Q278 162 291 146T337 129Q367 129 384 148T410 198T421 264T424 333Q424 346 424 360Q424 374 423 388L268 194ZM410 477Q401 505 387 521T338 537Q310 537 293 518T267 469T255 403T252 333Q252 319 252 306Q252 293 253 281L410 477ZM34 14L104 100Q72 147 57 206T42 333Q42 401 60 463T115 573T207 649T337 677Q397 677 443 661T525 616L587 692L640 652L570 566Q603 519 618 459T634 333Q634 262 616 200T560 90T468 16T337 -11Q277 -11 231 5T149 51L87 -26L34 14Z"  />
<glyph unicode="&#xD9;" horiz-adv-x="629" d="M262 204Q262 175 272 155T314 135Q343 135 355 155T367 204V667H571V243Q571 118 504 54T314 -11Q187 -11 123 51T58 243V667H262V204ZM285 724L194 860H319L392 724H285Z"  />
<glyph unicode="&#xDA;" horiz-adv-x="629" d="M262 204Q262 175 272 155T314 135Q343 135 355 155T367 204V667H571V243Q571 118 504 54T314 -11Q187 -11 123 51T58 243V667H262V204ZM256 724L329 860H454L363 724H256Z"  />
<glyph unicode="&#xDB;" horiz-adv-x="629" d="M262 204Q262 175 272 155T314 135Q343 135 355 155T367 204V667H571V243Q571 118 504 54T314 -11Q187 -11 123 51T58 243V667H262V204ZM163 724L255 860H375L467 724H352L315 795L278 724H163Z"  />
<glyph unicode="&#xDC;" horiz-adv-x="629" d="M262 204Q262 175 272 155T314 135Q343 135 355 155T367 204V667H571V243Q571 118 504 54T314 -11Q187 -11 123 51T58 243V667H262V204ZM162 718V866H288V718H162ZM340 718V866H466V718H340Z"  />
<glyph unicode="&#xDD;" horiz-adv-x="599" d="M197 0V238L-6 667H231L307 429L375 667H605L401 238V0H197ZM247 724L320 860H445L354 724H247Z"  />
<glyph unicode="&#xDE;" horiz-adv-x="583" d="M263 253H292Q309 253 321 260T342 279T353 305T357 333Q357 363 340 387T292 411H263V253ZM64 0V667H265V555H322Q374 555 417 541T493 498T543 429T561 333Q561 275 542 233T490 164T411 123T313 109H265V0H64Z"  />
<glyph unicode="&#xDF;" horiz-adv-x="651" d="M48 0V476Q48 535 68 582T127 663T220 713T345 731Q392 731 438 722T521 687T581 619T604 507Q604 492 603 475T597 438Q528 438 498 429T467 390Q467 373 479 360T508 335T547 309T585 276T615 231T627 166Q627 116 611 82T568 28T503 -2T424 -11Q398 -11 362 -7T289 7L294 142Q352 117 397 117Q418 117 431 123T445 150Q445 165 434 177T404 202T366 230T328 265T299 311T287 374Q287 440 322 479T417 530Q419 538 419 547Q419 573 400 588T345 604Q315 604 296 594T265 566T249 526T244 478V0H48Z"  />
<glyph unicode="&#xE0;" horiz-adv-x="548" d="M323 0L320 59Q299 24 264 7T182 -11Q109 -11 67 32T25 148Q25 197 45 230T99 284T180 313T279 322H316V331Q316 357 300 376T237 396Q205 396 167 388T88 359L82 490Q120 503 170 511T272 519Q338 519 382 506T452 467T489 406T500 326V112Q500 70 500 45T503 0H323ZM298 231Q254 231 230 217T205 167Q205 141 218 126T255 110Q276 110 288 120T306 146T314 180T316 216V231H298ZM242 579L151 715H276L349 579H242Z"  />
<glyph unicode="&#xE1;" horiz-adv-x="548" d="M323 0L320 59Q299 24 264 7T182 -11Q109 -11 67 32T25 148Q25 197 45 230T99 284T180 313T279 322H316V331Q316 357 300 376T237 396Q205 396 167 388T88 359L82 490Q120 503 170 511T272 519Q338 519 382 506T452 467T489 406T500 326V112Q500 70 500 45T503 0H323ZM298 231Q254 231 230 217T205 167Q205 141 218 126T255 110Q276 110 288 120T306 146T314 180T316 216V231H298ZM203 579L276 715H401L310 579H203Z"  />
<glyph unicode="&#xE2;" horiz-adv-x="548" d="M323 0L320 59Q299 24 264 7T182 -11Q109 -11 67 32T25 148Q25 197 45 230T99 284T180 313T279 322H316V331Q316 357 300 376T237 396Q205 396 167 388T88 359L82 490Q120 503 170 511T272 519Q338 519 382 506T452 467T489 406T500 326V112Q500 70 500 45T503 0H323ZM298 231Q254 231 230 217T205 167Q205 141 218 126T255 110Q276 110 288 120T306 146T314 180T316 216V231H298ZM124 579L216 715H336L428 579H313L276 650L239 579H124Z"  />
<glyph unicode="&#xE3;" horiz-adv-x="548" d="M323 0L320 59Q299 24 264 7T182 -11Q109 -11 67 32T25 148Q25 197 45 230T99 284T180 313T279 322H316V331Q316 357 300 376T237 396Q205 396 167 388T88 359L82 490Q120 503 170 511T272 519Q338 519 382 506T452 467T489 406T500 326V112Q500 70 500 45T503 0H323ZM298 231Q254 231 230 217T205 167Q205 141 218 126T255 110Q276 110 288 120T306 146T314 180T316 216V231H298ZM122 573Q123 593 129 619T146 669T175 709T219 725Q237 725 254 718T285 703T312 688T336 681Q342 681 345 685T351 696T355 710T356 721H442Q442 698 438 672T422 623T392 585T345 569Q329 569 313 576T281 591T252 606T228 613Q222 613 219 609T213 598T209 584T208 573H122Z"  />
<glyph unicode="&#xE4;" horiz-adv-x="548" d="M323 0L320 59Q299 24 264 7T182 -11Q109 -11 67 32T25 148Q25 197 45 230T99 284T180 313T279 322H316V331Q316 357 300 376T237 396Q205 396 167 388T88 359L82 490Q120 503 170 511T272 519Q338 519 382 506T452 467T489 406T500 326V112Q500 70 500 45T503 0H323ZM298 231Q254 231 230 217T205 167Q205 141 218 126T255 110Q276 110 288 120T306 146T314 180T316 216V231H298ZM126 573V721H252V573H126ZM304 573V721H430V573H304Z"  />
<glyph unicode="&#xE5;" horiz-adv-x="548" d="M323 0L320 59Q299 24 264 7T182 -11Q109 -11 67 32T25 148Q25 197 45 230T99 284T180 313T279 322H316V331Q316 357 300 376T237 396Q205 396 167 388T88 359L82 490Q120 503 170 511T272 519Q338 519 382 506T452 467T489 406T500 326V112Q500 70 500 45T503 0H323ZM298 231Q254 231 230 217T205 167Q205 141 218 126T255 110Q276 110 288 120T306 146T314 180T316 216V231H298ZM229 647Q229 627 243 613T277 599Q297 599 311 613T325 647Q325 667 311 681T277 696Q257 696 243 682T229 647ZM201 571Q186 586 178 605T169 647Q169 669 177 689T201 723T235 745T277 754Q299 754 318 746T353 723T376 689T385 647Q385 624 377 605T353 572T319 549T277 541Q255 541 236 549T201 571Z"  />
<glyph unicode="&#xE6;" horiz-adv-x="808" d="M82 490Q119 503 169 511T274 519Q335 519 371 502T426 466Q435 476 449 485T480 502T518 514T559 519Q622 519 665 499T735 445T772 363T784 263V220H496Q496 170 526 140T605 110Q646 110 682 119T755 145L761 17Q677 -11 587 -11Q544 -11 511 -5T453 12T411 38T381 71Q352 33 310 11T196 -11Q163 -11 132 -3T77 23T39 69T25 140Q25 187 45 219T99 272T180 302T279 311H316V331Q316 357 299 377T240 398Q208 398 169 388T88 356L82 490ZM610 311Q610 327 608 343T600 373T582 395T553 404Q536 404 525 395T508 372T499 342T496 311H610ZM298 220Q280 220 263 217T234 207T213 187T205 156Q205 104 255 104Q276 104 288 114T306 139T314 172T316 206V220H298Z"  />
<glyph unicode="&#xE7;" horiz-adv-x="447" d="M164 -153Q184 -161 203 -164T233 -168Q256 -168 269 -159T282 -132Q282 -120 270 -111T239 -102Q221 -102 203 -107L179 -80L231 -7Q180 0 142 22T78 79T40 159T27 257Q27 317 46 365T102 447T188 500T302 519Q334 519 366 513T421 495L415 358Q383 374 338 374Q284 374 258 340T231 257Q231 234 237 213T258 174T293 147T343 136Q365 136 382 139T421 150L427 13Q400 1 365 -5T287 -11L255 -55Q270 -51 288 -51Q329 -51 353 -73T377 -133Q377 -158 366 -176T337 -206T296 -223T247 -229Q215 -229 192 -225T142 -209L164 -153Z"  />
<glyph unicode="&#xE8;" horiz-adv-x="525" d="M327 299Q327 317 325 336T317 370T299 394T270 404Q253 404 242 394T225 368T216 334T213 299H327ZM213 208Q213 163 243 137T322 110Q363 110 399 119T472 145L478 17Q394 -11 304 -11Q168 -11 98 56T27 257Q27 311 42 359T88 442T163 498T266 519Q329 519 374 498T447 441T488 358T501 257V208H213ZM225 579L134 715H259L332 579H225Z"  />
<glyph unicode="&#xE9;" horiz-adv-x="525" d="M327 299Q327 317 325 336T317 370T299 394T270 404Q253 404 242 394T225 368T216 334T213 299H327ZM213 208Q213 163 243 137T322 110Q363 110 399 119T472 145L478 17Q394 -11 304 -11Q168 -11 98 56T27 257Q27 311 42 359T88 442T163 498T266 519Q329 519 374 498T447 441T488 358T501 257V208H213ZM197 579L270 715H395L304 579H197Z"  />
<glyph unicode="&#xEA;" horiz-adv-x="525" d="M327 299Q327 317 325 336T317 370T299 394T270 404Q253 404 242 394T225 368T216 334T213 299H327ZM213 208Q213 163 243 137T322 110Q363 110 399 119T472 145L478 17Q394 -11 304 -11Q168 -11 98 56T27 257Q27 311 42 359T88 442T163 498T266 519Q329 519 374 498T447 441T488 358T501 257V208H213ZM115 579L207 715H327L419 579H304L267 650L230 579H115Z"  />
<glyph unicode="&#xEB;" horiz-adv-x="525" d="M327 299Q327 317 325 336T317 370T299 394T270 404Q253 404 242 394T225 368T216 334T213 299H327ZM213 208Q213 163 243 137T322 110Q363 110 399 119T472 145L478 17Q394 -11 304 -11Q168 -11 98 56T27 257Q27 311 42 359T88 442T163 498T266 519Q329 519 374 498T447 441T488 358T501 257V208H213ZM113 573V721H239V573H113ZM291 573V721H417V573H291Z"  />
<glyph unicode="&#xEC;" horiz-adv-x="292" d="M48 0V509H244V0H48ZM97 579L6 715H131L204 579H97Z"  />
<glyph unicode="&#xED;" horiz-adv-x="292" d="M48 0V509H244V0H48ZM88 579L161 715H286L195 579H88Z"  />
<glyph unicode="&#xEE;" horiz-adv-x="292" d="M48 0V509H244V0H48ZM-6 579L86 715H206L298 579H183L146 650L109 579H-6Z"  />
<glyph unicode="&#xEF;" horiz-adv-x="292" d="M48 0V509H244V0H48ZM-6 573V721H120V573H-6ZM172 573V721H298V573H172Z"  />
<glyph unicode="&#xF0;" horiz-adv-x="568" d="M257 134Q268 122 285 122Q306 122 317 134T334 167T341 210T343 257Q343 272 342 290T334 324T317 351T285 362Q267 362 257 351T240 325T233 291T231 257Q231 234 233 211T241 167T257 134ZM145 519L83 584L177 622Q149 640 117 657L268 731Q287 725 304 715T337 693L423 731L485 666L413 635Q452 593 477 549T516 457T535 360T541 257Q541 205 524 157T475 71T394 12T285 -11Q223 -11 175 8T94 61T44 145T27 257Q27 311 42 355T85 430T147 478T223 495Q250 495 277 486T323 456Q309 496 291 520T253 564L145 519Z"  />
<glyph unicode="&#xF1;" horiz-adv-x="577" d="M48 0V423Q48 465 45 509H223L228 431Q272 519 373 519Q416 519 445 505T493 465T520 404T529 329V0H333V314Q333 326 331 337T325 358T311 374T289 380Q275 380 267 374T253 359T246 338T244 314V0H48ZM125 573Q126 593 132 619T149 669T178 709T222 725Q240 725 257 718T288 703T315 688T339 681Q345 681 348 685T354 696T358 710T359 721H445Q445 698 441 672T425 623T395 585T348 569Q332 569 316 576T284 591T255 606T231 613Q225 613 222 609T216 598T212 584T211 573H125Z"  />
<glyph unicode="&#xF2;" horiz-adv-x="572" d="M256 137Q267 122 286 122Q305 122 316 138T332 176T339 220T341 257Q341 271 340 293T334 335T317 371T286 386Q266 386 255 371T239 336T232 293T231 257Q231 241 232 218T239 174T256 137ZM286 -11Q161 -11 94 60T27 257Q27 314 46 362T99 445T181 499T286 519Q409 519 477 449T545 257Q545 198 527 149T476 65T394 9T286 -11ZM255 579L164 715H289L362 579H255Z"  />
<glyph unicode="&#xF3;" horiz-adv-x="572" d="M256 137Q267 122 286 122Q305 122 316 138T332 176T339 220T341 257Q341 271 340 293T334 335T317 371T286 386Q266 386 255 371T239 336T232 293T231 257Q231 241 232 218T239 174T256 137ZM286 -11Q161 -11 94 60T27 257Q27 314 46 362T99 445T181 499T286 519Q409 519 477 449T545 257Q545 198 527 149T476 65T394 9T286 -11ZM210 579L283 715H408L317 579H210Z"  />
<glyph unicode="&#xF4;" horiz-adv-x="572" d="M256 137Q267 122 286 122Q305 122 316 138T332 176T339 220T341 257Q341 271 340 293T334 335T317 371T286 386Q266 386 255 371T239 336T232 293T231 257Q231 241 232 218T239 174T256 137ZM286 -11Q161 -11 94 60T27 257Q27 314 46 362T99 445T181 499T286 519Q409 519 477 449T545 257Q545 198 527 149T476 65T394 9T286 -11ZM134 579L226 715H346L438 579H323L286 650L249 579H134Z"  />
<glyph unicode="&#xF5;" horiz-adv-x="572" d="M256 137Q267 122 286 122Q305 122 316 138T332 176T339 220T341 257Q341 271 340 293T334 335T317 371T286 386Q266 386 255 371T239 336T232 293T231 257Q231 241 232 218T239 174T256 137ZM286 -11Q161 -11 94 60T27 257Q27 314 46 362T99 445T181 499T286 519Q409 519 477 449T545 257Q545 198 527 149T476 65T394 9T286 -11ZM126 573Q127 593 133 619T150 669T179 709T223 725Q241 725 258 718T289 703T316 688T340 681Q346 681 349 685T355 696T359 710T360 721H446Q446 698 442 672T426 623T396 585T349 569Q333 569 317 576T285 591T256 606T232 613Q226 613 223 609T217 598T213 584T212 573H126Z"  />
<glyph unicode="&#xF6;" horiz-adv-x="572" d="M256 137Q267 122 286 122Q305 122 316 138T332 176T339 220T341 257Q341 271 340 293T334 335T317 371T286 386Q266 386 255 371T239 336T232 293T231 257Q231 241 232 218T239 174T256 137ZM286 -11Q161 -11 94 60T27 257Q27 314 46 362T99 445T181 499T286 519Q409 519 477 449T545 257Q545 198 527 149T476 65T394 9T286 -11ZM134 573V721H260V573H134ZM312 573V721H438V573H312Z"  />
<glyph unicode="&#xF7;" horiz-adv-x="600" d="M300 -22Q262 -22 236 4T210 69Q210 107 236 133T300 159Q338 159 364 133T390 69Q390 31 364 5T300 -22ZM30 197V341H570V197H30ZM300 379Q262 379 236 405T210 469Q210 507 236 533T300 560Q338 560 364 533T390 469Q390 431 364 405T300 379Z"  />
<glyph unicode="&#xF8;" horiz-adv-x="572" d="M245 154Q251 140 261 131T286 122Q304 122 315 137T332 173T339 218T341 257V279L245 154ZM328 355Q322 369 312 377T286 386Q266 386 255 371T239 336T232 293T231 257Q231 250 231 243Q231 236 232 229L328 355ZM60 3L100 55Q59 95 43 148T27 257Q27 314 46 362T99 445T181 499T286 519Q323 519 359 512T427 486L467 539L512 505L473 453Q513 415 529 363T545 257Q545 198 527 149T475 65T394 9T286 -11Q249 -11 213 -4T145 22L105 -31L60 3Z"  />
<glyph unicode="&#xF9;" horiz-adv-x="573" d="M355 0L350 77Q327 32 292 11T206 -10Q163 -10 134 4T86 44T59 105T51 180V509H247V195Q247 183 248 172T255 151T268 135T290 129Q303 129 312 135T325 150T332 171T334 195V509H530V86Q530 43 533 0H355ZM252 579L161 715H286L359 579H252Z"  />
<glyph unicode="&#xFA;" horiz-adv-x="573" d="M355 0L350 77Q327 32 292 11T206 -10Q163 -10 134 4T86 44T59 105T51 180V509H247V195Q247 183 248 172T255 151T268 135T290 129Q303 129 312 135T325 150T332 171T334 195V509H530V86Q530 43 533 0H355ZM210 579L283 715H408L317 579H210Z"  />
<glyph unicode="&#xFB;" horiz-adv-x="573" d="M355 0L350 77Q327 32 292 11T206 -10Q163 -10 134 4T86 44T59 105T51 180V509H247V195Q247 183 248 172T255 151T268 135T290 129Q303 129 312 135T325 150T332 171T334 195V509H530V86Q530 43 533 0H355ZM133 579L225 715H345L437 579H322L285 650L248 579H133Z"  />
<glyph unicode="&#xFC;" horiz-adv-x="573" d="M355 0L350 77Q327 32 292 11T206 -10Q163 -10 134 4T86 44T59 105T51 180V509H247V195Q247 183 248 172T255 151T268 135T290 129Q303 129 312 135T325 150T332 171T334 195V509H530V86Q530 43 533 0H355ZM133 573V721H259V573H133ZM311 573V721H437V573H311Z"  />
<glyph unicode="&#xFD;" horiz-adv-x="550" d="M49 -76Q60 -81 76 -84T110 -87Q142 -87 160 -65T186 -12L192 9L-6 509H209L289 213L353 509H550L368 -16Q330 -127 281 -176T155 -226Q131 -226 99 -222T43 -208L49 -76ZM224 579L297 715H422L331 579H224Z"  />
<glyph unicode="&#xFE;" horiz-adv-x="591" d="M272 136Q284 121 304 121Q323 121 334 136T351 174T358 219T360 256Q360 270 359 292T352 334T335 370T305 385Q285 385 274 371T256 336T248 293T246 256Q246 241 247 219T255 174T272 136ZM48 -216V721H244V431Q288 519 389 519Q442 519 476 494T529 431T556 346T564 257Q564 216 555 169T524 82T468 16T383 -11Q331 -11 298 11T244 77V-216H48Z"  />
<glyph unicode="&#xFF;" horiz-adv-x="550" d="M49 -76Q60 -81 76 -84T110 -87Q142 -87 160 -65T186 -12L192 9L-6 509H209L289 213L353 509H550L368 -16Q330 -127 281 -176T155 -226Q131 -226 99 -222T43 -208L49 -76ZM128 573V721H254V573H128ZM306 573V721H432V573H306Z"  />
<glyph unicode="&#x131;" horiz-adv-x="292" d="M48 0V509H244V0H48Z"  />
<glyph unicode="&#x152;" horiz-adv-x="879" d="M417 524Q397 532 380 534T349 537Q320 537 302 521T272 478T257 413T252 333Q252 289 257 252T273 187T303 145T349 129Q369 129 381 131T417 144V524ZM520 0Q470 0 426 -5T343 -11Q262 -11 205 15T112 88T59 197T42 333Q42 401 59 463T112 573T206 649T343 677Q363 677 381 676T420 672T465 669T520 667H828V517H615V416H812V266H615V150H837V0H520Z"  />
<glyph unicode="&#x153;" horiz-adv-x="833" d="M256 132Q267 116 286 116Q305 116 316 133T332 173T339 219T341 257Q341 272 340 295T334 339T317 376T286 392Q266 392 255 377T239 339T232 295T231 257Q231 240 232 216T239 170T256 132ZM635 299Q635 317 633 336T625 370T607 394T578 404Q561 404 550 394T533 368T524 334T521 299H635ZM521 208Q521 163 551 137T630 110Q671 110 707 119T780 145L786 17Q702 -11 612 -11Q546 -11 506 3T433 44Q410 21 370 5T286 -11Q161 -11 94 60T27 257Q27 314 46 362T99 445T181 499T286 519Q333 519 371 506T433 468Q454 490 492 504T574 519Q637 519 682 498T755 441T796 358T809 257V208H521Z"  />
<glyph unicode="&#x160;" horiz-adv-x="542" d="M53 168Q93 151 133 140T210 129Q254 129 274 145T294 193Q294 207 287 217T268 236T240 252T206 265L177 276Q114 299 78 341T42 459Q42 513 63 554T120 622T204 663T309 677Q356 677 396 672T477 655L471 502Q439 518 402 527T328 537Q290 537 270 523T250 482Q250 459 268 447T322 423L342 416Q373 406 402 392T453 355T490 299T504 217Q504 158 481 115T419 44T329 3T223 -11Q178 -11 132 -5T47 13L53 168ZM213 724L121 860H236L273 789L310 860H425L333 724H213Z"  />
<glyph unicode="&#x161;" horiz-adv-x="469" d="M44 163Q84 141 128 132T208 122Q221 122 235 127T250 149Q250 162 234 171T194 191T143 213T91 244T51 290T35 358Q35 406 57 437T113 486T186 511T262 519Q300 519 341 514T420 495L412 355Q375 371 345 378T274 386Q260 386 244 381T227 361Q227 345 243 335T283 316T334 295T386 267T426 224T442 159Q442 111 424 78T375 26T306 -2T226 -11Q173 -11 125 -3T32 20L44 163ZM177 579L85 715H200L237 644L274 715H389L297 579H177Z"  />
<glyph unicode="&#x178;" horiz-adv-x="599" d="M197 0V238L-6 667H231L307 429L375 667H605L401 238V0H197ZM152 718V866H278V718H152ZM330 718V866H456V718H330Z"  />
<glyph unicode="&#x17D;" horiz-adv-x="534" d="M32 0V151L277 517H38V667H500V515L260 150H502V0H32ZM209 724L117 860H232L269 789L306 860H421L329 724H209Z"  />
<glyph unicode="&#x17E;" horiz-adv-x="447" d="M26 0V149L216 370H34V509H416V358L224 139H421V0H26ZM165 579L73 715H188L225 644L262 715H377L285 579H165Z"  />
<glyph unicode="&#x192;" horiz-adv-x="520" d="M-4 -80Q4 -84 13 -85T31 -86Q45 -86 55 -79T73 -61T85 -36T93 -11L149 261H53V400H178L197 484Q220 588 266 632T386 677Q413 677 440 675T494 662L488 530Q468 537 445 537Q415 537 400 518T379 472L364 400H460V261H335L275 -23Q266 -67 251 -104T214 -168T164 -210T101 -226Q72 -226 44 -223T-10 -212L-4 -80Z"  />
<glyph unicode="&#x2C6;" horiz-adv-x="292" d="M-6 579L86 715H206L298 579H183L146 650L109 579H-6Z"  />
<glyph unicode="&#x2C7;" horiz-adv-x="292" d="M86 579L-6 715H109L146 644L183 715H298L206 579H86Z"  />
<glyph unicode="&#x2DA;" horiz-adv-x="292" d="M98 647Q98 627 112 613T146 599Q166 599 180 613T194 647Q194 667 180 681T146 696Q126 696 112 682T98 647ZM70 571Q55 586 47 605T38 647Q38 669 46 689T70 723T104 745T146 754Q168 754 187 746T222 723T245 689T254 647Q254 624 246 605T222 572T188 549T146 541Q124 541 105 549T70 571Z"  />
<glyph unicode="&#x2DC;" horiz-adv-x="292" d="M-14 573Q-13 593 -7 619T10 669T39 709T83 725Q101 725 118 718T149 703T176 688T200 681Q206 681 209 685T215 696T219 710T220 721H306Q306 698 302 672T286 623T256 585T209 569Q193 569 177 576T145 591T116 606T92 613Q86 613 83 609T77 598T73 584T72 573H-14Z"  />
<glyph unicode="&#x2013;" horiz-adv-x="500" d="M0 245V375H500V245H0Z"  />
<glyph unicode="&#x2014;" horiz-adv-x="1000" d="M0 245V375H1000V245H0Z"  />
<glyph unicode="&#x2018;" horiz-adv-x="260" d="M15 398L101 721H245L178 398H15Z"  />
<glyph unicode="&#x2019;" horiz-adv-x="260" d="M15 398L82 721H245L159 398H15Z"  />
<glyph unicode="&#x201A;" horiz-adv-x="260" d="M0 -128L67 195H230L144 -128H0Z"  />
<glyph unicode="&#x201C;" horiz-adv-x="469" d="M15 398L101 721H245L178 398H15ZM224 398L310 721H454L387 398H224Z"  />
<glyph unicode="&#x201D;" horiz-adv-x="469" d="M15 398L82 721H245L159 398H15ZM224 398L291 721H454L368 398H224Z"  />
<glyph unicode="&#x201E;" horiz-adv-x="469" d="M0 -128L67 195H230L144 -128H0ZM209 -128L276 195H439L353 -128H209Z"  />
<glyph unicode="&#x2020;" horiz-adv-x="520" d="M168 -128V386H31V536H168V721H352V536H489V386H352V-128H168Z"  />
<glyph unicode="&#x2021;" horiz-adv-x="520" d="M168 -128V57H31V207H168V386H31V536H168V721H352V536H489V386H352V207H489V57H352V-128H168Z"  />
<glyph unicode="&#x2022;" horiz-adv-x="520" d="M204 179Q179 190 160 209T129 254T118 310Q118 340 129 366T159 411T204 442T260 454Q290 454 315 443T360 412T391 366T402 310Q402 280 391 255T361 210T316 179T260 168Q230 168 204 179Z"  />
<glyph unicode="&#x2026;" horiz-adv-x="1000" d="M83 0V195H253V0H83ZM416 0V195H586V0H416ZM749 0V195H919V0H749Z"  />
<glyph unicode="&#x2030;" horiz-adv-x="1188" d="M170 369Q174 355 179 350T192 345Q201 345 206 351T215 371T220 410T222 471Q222 507 221 531T216 570T207 590T192 596Q184 596 179 591T170 571T166 533T164 471Q164 432 165 408T170 369ZM631 93Q635 79 640 74T653 69Q662 69 667 75T676 95T681 134T683 195Q683 231 682 255T677 294T668 314T653 320Q645 320 640 315T631 295T627 257T625 195Q625 156 626 132T631 93ZM973 93Q977 79 982 74T995 69Q1004 69 1009 75T1018 95T1023 134T1025 195Q1025 231 1024 255T1019 294T1010 314T995 320Q987 320 982 315T973 295T969 257T967 195Q967 156 968 132T973 93ZM112 283Q83 301 68 330T47 396T42 471Q42 504 47 540T69 607T114 657T192 677Q243 677 273 658T319 610T339 544T344 471Q344 433 338 396T316 330T270 283T192 265Q142 265 112 283ZM221 -24L524 691H624L321 -24H221ZM573 7Q544 25 529 54T508 120T503 195Q503 228 508 264T530 331T575 381T653 401Q704 401 734 382T780 334T800 268T805 195Q805 157 799 120T777 54T731 7T653 -11Q603 -11 573 7ZM915 7Q886 25 871 54T850 120T845 195Q845 228 850 264T872 331T917 381T995 401Q1046 401 1076 382T1122 334T1142 268T1147 195Q1147 157 1141 120T1119 54T1073 7T995 -11Q945 -11 915 7Z"  />
<glyph unicode="&#x2039;" horiz-adv-x="311" d="M144 55L33 263L143 470H297L193 263L297 55H144Z"  />
<glyph unicode="&#x203A;" horiz-adv-x="311" d="M14 55L118 263L13 470H167L278 263L167 55H14Z"  />
<glyph unicode="&#x20AC;" horiz-adv-x="520" d="M30 230L46 303H96Q95 311 95 318T95 333Q95 341 95 348T96 363H30L46 436H106Q116 483 135 526T186 603T259 657T356 677Q398 677 432 669T504 641L476 512Q457 525 435 531T390 537Q369 537 354 529T328 506T309 474T297 436H460L444 363H288Q287 355 287 348T287 333Q287 326 287 319T288 303H431L415 230H296Q300 210 307 192T327 159T355 137T394 129Q414 129 434 133T471 149L477 6Q448 -4 418 -7T356 -11Q298 -11 255 8T182 61T132 138T104 230H30Z"  />
<glyph unicode="&#x2122;" horiz-adv-x="881" d="M98 266V575H9V667H319V575H230V266H98ZM370 267V667H557L601 440L651 667H839V267H711V561L642 267H549L480 561V267H370Z"  />
<glyph unicode="&#xE300;" horiz-adv-x="292" d="M97 724L6 860H131L204 724H97Z"  />
<glyph unicode="&#xE301;" horiz-adv-x="292" d="M48 724L121 860H246L155 724H48Z"  />
<glyph unicode="&#xE302;" horiz-adv-x="292" d="M-6 724L86 860H206L298 724H183L146 795L109 724H-6Z"  />
<glyph unicode="&#xE303;" horiz-adv-x="292" d="M86 724L-6 860H109L146 789L183 860H298L206 724H86Z"  />
<glyph unicode="&#xE304;" horiz-adv-x="292" d="M-14 718Q-13 738 -7 764T10 814T39 854T83 870Q101 870 118 863T149 848T176 833T200 826Q206 826 209 830T215 841T219 855T220 866H306Q306 843 302 817T286 768T256 730T209 714Q193 714 177 721T145 736T116 751T92 758Q86 758 83 754T77 743T73 729T72 718H-14Z"  />
<glyph unicode="&#xE305;" horiz-adv-x="292" d="M-6 718V866H120V718H-6ZM172 718V866H298V718H172Z"  />
<glyph unicode="&#xE308;" horiz-adv-x="292" d="M98 792Q98 772 112 758T146 744Q166 744 180 758T194 792Q194 812 180 826T146 841Q126 841 112 827T98 792ZM70 716Q55 731 47 750T38 792Q38 814 46 834T70 868T104 890T146 899Q168 899 187 891T222 868T245 834T254 792Q254 769 246 750T222 717T188 694T146 686Q124 686 105 694T70 716Z"  />

</font>
</defs>
</svg>
